<svg width="357" height="359" viewBox="0 0 357 359" fill="none" xmlns="http://www.w3.org/2000/svg">
<g filter="url(#filter0_dddd_11834_34563)">
<g clip-path="url(#clip0_11834_34563)">
<rect x="20" y="11" width="235.529" height="179.511" rx="25.4626" fill="#FAF9F8"/>
<g clip-path="url(#clip1_11834_34563)">
<path d="M42.3572 44.4087C43.0223 44.5327 43.569 44.8653 43.9974 45.4064C44.4258 45.9475 44.64 46.5675 44.64 47.2665C44.64 47.8978 44.4822 48.4558 44.1665 48.9405C43.8621 49.414 43.4169 49.786 42.8306 50.0566C42.2444 50.3271 41.5511 50.4624 40.7507 50.4624H35.6609V38.6594H40.5309C41.3313 38.6594 42.019 38.789 42.5939 39.0483C43.1801 39.3076 43.6198 39.6683 43.9129 40.1305C44.2172 40.5927 44.3694 41.1169 44.3694 41.7032C44.3694 42.3908 44.1834 42.9657 43.8114 43.4279C43.4507 43.8901 42.9659 44.2171 42.3572 44.4087ZM38.0283 43.5294H40.1927C40.7564 43.5294 41.1904 43.4054 41.4948 43.1574C41.7992 42.8981 41.9513 42.5317 41.9513 42.0583C41.9513 41.5848 41.7992 41.2184 41.4948 40.9591C41.1904 40.6998 40.7564 40.5702 40.1927 40.5702H38.0283V43.5294ZM40.4126 48.5347C40.9875 48.5347 41.4328 48.3994 41.7484 48.1289C42.0753 47.8583 42.2388 47.475 42.2388 46.979C42.2388 46.4717 42.0697 46.0771 41.7315 45.7953C41.3933 45.5022 40.9368 45.3557 40.3618 45.3557H38.0283V48.5347H40.4126ZM50.6865 50.6146C49.7847 50.6146 48.973 50.4173 48.2515 50.0227C47.5301 49.6169 46.9608 49.0476 46.5437 48.3149C46.1378 47.5821 45.9349 46.7366 45.9349 45.7784C45.9349 44.8202 46.1435 43.9747 46.5606 43.2419C46.9889 42.5092 47.5695 41.9455 48.3023 41.551C49.035 41.1451 49.8523 40.9422 50.7542 40.9422C51.656 40.9422 52.4733 41.1451 53.2061 41.551C53.9389 41.9455 54.5138 42.5092 54.9309 43.2419C55.3593 43.9747 55.5735 44.8202 55.5735 45.7784C55.5735 46.7366 55.3536 47.5821 54.914 48.3149C54.4856 49.0476 53.8994 49.6169 53.1554 50.0227C52.4226 50.4173 51.5997 50.6146 50.6865 50.6146ZM50.6865 48.5516C51.1149 48.5516 51.5151 48.4501 51.8871 48.2472C52.2704 48.033 52.5748 47.7174 52.8003 47.3003C53.0257 46.8832 53.1385 46.3759 53.1385 45.7784C53.1385 44.8878 52.9017 44.2058 52.4282 43.7323C51.966 43.2476 51.3968 43.0052 50.7204 43.0052C50.044 43.0052 49.4747 43.2476 49.0125 43.7323C48.5616 44.2058 48.3361 44.8878 48.3361 45.7784C48.3361 46.669 48.5559 47.3566 48.9956 47.8414C49.4465 48.3149 50.0102 48.5516 50.6865 48.5516ZM61.4698 50.6146C60.568 50.6146 59.7563 50.4173 59.0348 50.0227C58.3133 49.6169 57.744 49.0476 57.3269 48.3149C56.9211 47.5821 56.7182 46.7366 56.7182 45.7784C56.7182 44.8202 56.9267 43.9747 57.3438 43.2419C57.7722 42.5092 58.3528 41.9455 59.0855 41.551C59.8183 41.1451 60.6356 40.9422 61.5375 40.9422C62.4393 40.9422 63.2566 41.1451 63.9894 41.551C64.7221 41.9455 65.2971 42.5092 65.7142 43.2419C66.1425 43.9747 66.3567 44.8202 66.3567 45.7784C66.3567 46.7366 66.1369 47.5821 65.6972 48.3149C65.2689 49.0476 64.6827 49.6169 63.9386 50.0227C63.2059 50.4173 62.3829 50.6146 61.4698 50.6146ZM61.4698 48.5516C61.8982 48.5516 62.2984 48.4501 62.6704 48.2472C63.0537 48.033 63.3581 47.7174 63.5835 47.3003C63.809 46.8832 63.9217 46.3759 63.9217 45.7784C63.9217 44.8878 63.685 44.2058 63.2115 43.7323C62.7493 43.2476 62.18 43.0052 61.5036 43.0052C60.8272 43.0052 60.2579 43.2476 59.7957 43.7323C59.3448 44.2058 59.1194 44.8878 59.1194 45.7784C59.1194 46.669 59.3392 47.3566 59.7788 47.8414C60.2298 48.3149 60.7934 48.5516 61.4698 48.5516ZM73.6397 50.4624L70.4606 46.4717V50.4624H68.0933V37.9492H70.4606V45.0682L73.6059 41.0944H76.6834L72.5575 45.7953L76.7173 50.4624H73.6397ZM85.9037 48.281L88.2711 41.0944H90.7907L87.3242 50.4624H84.4495L80.9999 41.0944H83.5364L85.9037 48.281ZM93.3209 39.9784C92.9038 39.9784 92.5543 39.8487 92.2725 39.5894C92.0019 39.3189 91.8667 38.9863 91.8667 38.5918C91.8667 38.1972 92.0019 37.8703 92.2725 37.611C92.5543 37.3404 92.9038 37.2052 93.3209 37.2052C93.738 37.2052 94.0818 37.3404 94.3524 37.611C94.6342 37.8703 94.7751 38.1972 94.7751 38.5918C94.7751 38.9863 94.6342 39.3189 94.3524 39.5894C94.0818 39.8487 93.738 39.9784 93.3209 39.9784ZM94.4877 41.0944V50.4624H92.1203V41.0944H94.4877ZM105.535 45.5755C105.535 45.9137 105.513 46.2181 105.468 46.4886H98.6191C98.6754 47.165 98.9122 47.6948 99.3293 48.0781C99.7464 48.4614 100.259 48.6531 100.868 48.6531C101.747 48.6531 102.373 48.2754 102.745 47.5201H105.298C105.028 48.422 104.509 49.166 103.743 49.7522C102.976 50.3271 102.035 50.6146 100.919 50.6146C100.017 50.6146 99.2053 50.4173 98.4838 50.0227C97.7736 49.6169 97.2156 49.0476 96.8097 48.3149C96.4152 47.5821 96.2179 46.7366 96.2179 45.7784C96.2179 44.8089 96.4152 43.9578 96.8097 43.225C97.2043 42.4923 97.7567 41.9286 98.4669 41.5341C99.1771 41.1395 99.9944 40.9422 100.919 40.9422C101.809 40.9422 102.604 41.1339 103.303 41.5171C104.013 41.9004 104.56 42.4472 104.943 43.1574C105.338 43.8563 105.535 44.6624 105.535 45.5755ZM103.083 44.8991C103.072 44.2903 102.852 43.8056 102.424 43.4449C101.995 43.0728 101.471 42.8868 100.851 42.8868C100.265 42.8868 99.7689 43.0672 99.3631 43.4279C98.9685 43.7774 98.7262 44.2678 98.636 44.8991H103.083ZM120.25 41.0944L117.51 50.4624H114.957L113.249 43.9183L111.541 50.4624H108.971L106.215 41.0944H108.616L110.273 48.2303L112.066 41.0944H114.568L116.327 48.2134L117.984 41.0944H120.25ZM122.731 39.9784C122.314 39.9784 121.965 39.8487 121.683 39.5894C121.412 39.3189 121.277 38.9863 121.277 38.5918C121.277 38.1972 121.412 37.8703 121.683 37.611C121.965 37.3404 122.314 37.2052 122.731 37.2052C123.148 37.2052 123.492 37.3404 123.763 37.611C124.045 37.8703 124.186 38.1972 124.186 38.5918C124.186 38.9863 124.045 39.3189 123.763 39.5894C123.492 39.8487 123.148 39.9784 122.731 39.9784ZM123.898 41.0944V50.4624H121.531V41.0944H123.898ZM131.428 40.9591C132.544 40.9591 133.446 41.3142 134.134 42.0244C134.822 42.7234 135.165 43.7041 135.165 44.9667V50.4624H132.798V45.288C132.798 44.544 132.612 43.9747 132.24 43.5801C131.868 43.1743 131.361 42.9714 130.718 42.9714C130.064 42.9714 129.546 43.1743 129.162 43.5801C128.79 43.9747 128.604 44.544 128.604 45.288V50.4624H126.237V41.0944H128.604V42.2612C128.92 41.8553 129.32 41.5397 129.805 41.3142C130.301 41.0775 130.842 40.9591 131.428 40.9591ZM141.086 40.9422C141.785 40.9422 142.399 41.0831 142.929 41.365C143.459 41.6355 143.876 41.9906 144.181 42.4303V41.0944H146.565V50.53C146.565 51.3981 146.39 52.1703 146.041 52.8467C145.691 53.5343 145.167 54.0755 144.468 54.47C143.769 54.8758 142.924 55.0788 141.932 55.0788C140.601 55.0788 139.508 54.7688 138.651 54.1487C137.806 53.5287 137.326 52.6832 137.214 51.6123H139.564C139.688 52.0406 139.953 52.3788 140.359 52.6269C140.776 52.8861 141.278 53.0158 141.864 53.0158C142.552 53.0158 143.11 52.8072 143.538 52.3901C143.966 51.9843 144.181 51.3643 144.181 50.53V49.0758C143.876 49.5155 143.453 49.8818 142.912 50.1749C142.382 50.468 141.774 50.6146 141.086 50.6146C140.297 50.6146 139.575 50.4117 138.922 50.0058C138.268 49.6 137.749 49.0307 137.366 48.298C136.994 47.5539 136.808 46.7028 136.808 45.7446C136.808 44.7976 136.994 43.9578 137.366 43.225C137.749 42.4923 138.262 41.9286 138.905 41.5341C139.559 41.1395 140.286 40.9422 141.086 40.9422ZM144.181 45.7784C144.181 45.2035 144.068 44.7131 143.842 44.3073C143.617 43.8901 143.313 43.5745 142.929 43.3603C142.546 43.1348 142.134 43.0221 141.695 43.0221C141.255 43.0221 140.849 43.1292 140.477 43.3434C140.105 43.5576 139.801 43.8732 139.564 44.2903C139.339 44.6962 139.226 45.1809 139.226 45.7446C139.226 46.3082 139.339 46.8043 139.564 47.2326C139.801 47.6497 140.105 47.971 140.477 48.1965C140.861 48.422 141.266 48.5347 141.695 48.5347C142.134 48.5347 142.546 48.4276 142.929 48.2134C143.313 47.9879 143.617 47.6723 143.842 47.2665C144.068 46.8494 144.181 46.3533 144.181 45.7784ZM156.491 50.6146C155.725 50.6146 155.037 50.4793 154.428 50.2088C153.819 49.9269 153.335 49.5493 152.974 49.0758C152.624 48.6023 152.433 48.0781 152.399 47.5032H154.783C154.828 47.8639 155.003 48.1627 155.307 48.3994C155.623 48.6361 156.012 48.7545 156.474 48.7545C156.925 48.7545 157.275 48.6643 157.523 48.484C157.782 48.3036 157.912 48.0725 157.912 47.7907C157.912 47.4863 157.754 47.2608 157.438 47.1143C157.134 46.9564 156.643 46.7874 155.967 46.607C155.268 46.4379 154.693 46.2631 154.242 46.0828C153.802 45.9024 153.419 45.6262 153.092 45.2542C152.777 44.8822 152.619 44.3805 152.619 43.7492C152.619 43.2307 152.765 42.7572 153.058 42.3288C153.363 41.9004 153.791 41.5622 154.344 41.3142C154.907 41.0662 155.567 40.9422 156.322 40.9422C157.438 40.9422 158.329 41.224 158.994 41.7877C159.659 42.3401 160.025 43.0898 160.093 44.0367H157.827C157.793 43.6647 157.635 43.3716 157.354 43.1574C157.083 42.9319 156.717 42.8192 156.254 42.8192C155.826 42.8192 155.493 42.8981 155.257 43.0559C155.031 43.2138 154.918 43.4336 154.918 43.7154C154.918 44.0311 155.076 44.2734 155.392 44.4425C155.708 44.6004 156.198 44.7638 156.863 44.9329C157.54 45.102 158.098 45.2767 158.537 45.4571C158.977 45.6375 159.354 45.9193 159.67 46.3026C159.997 46.6746 160.166 47.1706 160.177 47.7907C160.177 48.3318 160.025 48.8165 159.721 49.2449C159.428 49.6733 158.999 50.0115 158.436 50.2595C157.883 50.4962 157.235 50.6146 156.491 50.6146ZM164.488 37.9492V50.4624H162.121V37.9492H164.488ZM170.987 50.6146C170.085 50.6146 169.273 50.4173 168.552 50.0227C167.83 49.6169 167.261 49.0476 166.844 48.3149C166.438 47.5821 166.235 46.7366 166.235 45.7784C166.235 44.8202 166.444 43.9747 166.861 43.2419C167.289 42.5092 167.87 41.9455 168.603 41.551C169.335 41.1451 170.153 40.9422 171.054 40.9422C171.956 40.9422 172.774 41.1451 173.506 41.551C174.239 41.9455 174.814 42.5092 175.231 43.2419C175.66 43.9747 175.874 44.8202 175.874 45.7784C175.874 46.7366 175.654 47.5821 175.214 48.3149C174.786 49.0476 174.2 49.6169 173.456 50.0227C172.723 50.4173 171.9 50.6146 170.987 50.6146ZM170.987 48.5516C171.415 48.5516 171.815 48.4501 172.187 48.2472C172.571 48.033 172.875 47.7174 173.101 47.3003C173.326 46.8832 173.439 46.3759 173.439 45.7784C173.439 44.8878 173.202 44.2058 172.729 43.7323C172.266 43.2476 171.697 43.0052 171.021 43.0052C170.344 43.0052 169.775 43.2476 169.313 43.7323C168.862 44.2058 168.636 44.8878 168.636 45.7784C168.636 46.669 168.856 47.3566 169.296 47.8414C169.747 48.3149 170.31 48.5516 170.987 48.5516ZM180.367 43.039V47.5708C180.367 47.8865 180.44 48.1176 180.586 48.2641C180.744 48.3994 181.004 48.4671 181.364 48.4671H182.463V50.4624H180.975C178.98 50.4624 177.982 49.4929 177.982 47.5539V43.039H176.866V41.0944H177.982V38.7778H180.367V41.0944H182.463V43.039H180.367Z" fill="#2D3849"/>
<path d="M39.8968 86.1734L36.8748 86.1734L36.3747 87.6191L34.7768 87.6191L37.5053 80.0206L39.2772 80.0206L42.0057 87.6191L40.3969 87.6191L39.8968 86.1734ZM39.4837 84.9559L38.3858 81.7817L37.2879 84.9559L39.4837 84.9559ZM44.5474 82.4665C44.7431 82.1911 45.0113 81.9628 45.3519 81.7817C45.6997 81.5932 46.0947 81.499 46.5368 81.499C47.0513 81.499 47.5151 81.6258 47.9282 81.8795C48.3485 82.1331 48.6783 82.4955 48.9174 82.9665C49.1638 83.4304 49.287 83.9703 49.287 84.5863C49.287 85.2023 49.1638 85.7494 48.9174 86.2277C48.6783 86.6988 48.3485 87.0647 47.9282 87.3256C47.5151 87.5865 47.0513 87.717 46.5368 87.717C46.0947 87.717 45.7034 87.6264 45.3627 87.4452C45.0294 87.264 44.7576 87.0358 44.5474 86.7604L44.5474 90.489L43.0256 90.489L43.0256 81.5969L44.5474 81.5969L44.5474 82.4665ZM47.7325 84.5863C47.7325 84.2239 47.6564 83.9123 47.5042 83.6514C47.3593 83.3832 47.1636 83.1803 46.9172 83.0426C46.6781 82.9049 46.4172 82.8361 46.1345 82.8361C45.8592 82.8361 45.5983 82.9086 45.3519 83.0535C45.1127 83.1912 44.917 83.3941 44.7649 83.6623C44.6199 83.9304 44.5474 84.2456 44.5474 84.608C44.5474 84.9703 44.6199 85.2856 44.7649 85.5537C44.917 85.8219 45.1127 86.0284 45.3519 86.1734C45.5983 86.3111 45.8592 86.3799 46.1345 86.3799C46.4172 86.3799 46.6781 86.3074 46.9172 86.1625C47.1636 86.0175 47.3593 85.811 47.5042 85.5429C47.6564 85.2747 47.7325 84.9559 47.7325 84.5863ZM51.9148 82.5317C52.1105 82.2129 52.3641 81.9628 52.6757 81.7817C52.9946 81.6005 53.357 81.5099 53.7628 81.5099L53.7628 83.1079L53.3606 83.1079C52.8823 83.1079 52.5199 83.2202 52.2735 83.4448C52.0344 83.6695 51.9148 84.0608 51.9148 84.6189L51.9148 87.6191L50.3929 87.6191L50.3929 81.5969L51.9148 81.5969L51.9148 82.5317ZM55.5597 80.8794C55.2915 80.8794 55.0669 80.7961 54.8857 80.6294C54.7118 80.4554 54.6248 80.2417 54.6248 79.988C54.6248 79.7344 54.7118 79.5242 54.8857 79.3575C55.0669 79.1836 55.2915 79.0966 55.5597 79.0966C55.8278 79.0966 56.0488 79.1836 56.2228 79.3575C56.4039 79.5242 56.4945 79.7344 56.4945 79.988C56.4945 80.2417 56.4039 80.4554 56.2228 80.6294C56.0488 80.7961 55.8278 80.8794 55.5597 80.8794ZM56.3097 81.5969L56.3097 87.6191L54.7878 87.6191L54.7878 81.5969L56.3097 81.5969ZM59.3352 79.5749L59.3352 87.6191L57.8133 87.6191L57.8133 79.5749L59.3352 79.5749ZM63.7335 85.9016C64.4292 85.3218 64.9836 84.8399 65.3967 84.4558C65.8097 84.0645 66.154 83.6586 66.4294 83.2383C66.7048 82.818 66.8424 82.4049 66.8424 81.9991C66.8424 81.6295 66.7555 81.3396 66.5816 81.1294C66.4076 80.9193 66.1395 80.8142 65.7771 80.8142C65.4148 80.8142 65.1358 80.9374 64.9401 81.1838C64.7444 81.4229 64.643 81.7527 64.6357 82.173L63.1573 82.173C63.1863 81.3033 63.4436 80.6439 63.9291 80.1946C64.4219 79.7452 65.0452 79.5206 65.7989 79.5206C66.625 79.5206 67.2591 79.7416 67.7012 80.1837C68.1433 80.6185 68.3643 81.1946 68.3643 81.9121C68.3643 82.4774 68.2121 83.0173 67.9078 83.5318C67.6034 84.0464 67.2555 84.4957 66.8642 84.8798C66.4728 85.2566 65.9619 85.7132 65.3314 86.2495L68.5383 86.2495L68.5383 87.5104L63.1682 87.5104L63.1682 86.3799L63.7335 85.9016ZM69.4972 83.5536C69.4972 82.2998 69.7219 81.3178 70.1712 80.6076C70.6278 79.8974 71.3815 79.5423 72.4323 79.5423C73.4831 79.5423 74.2332 79.8974 74.6825 80.6076C75.1391 81.3178 75.3673 82.2998 75.3673 83.5536C75.3673 84.8145 75.1391 85.8038 74.6825 86.5212C74.2332 87.2387 73.4831 87.5974 72.4323 87.5974C71.3815 87.5974 70.6278 87.2387 70.1712 86.5212C69.7219 85.8038 69.4972 84.8145 69.4972 83.5536ZM73.8672 83.5536C73.8672 83.0173 73.831 82.568 73.7585 82.2056C73.6933 81.836 73.5556 81.5353 73.3454 81.3033C73.1425 81.0714 72.8381 80.9555 72.4323 80.9555C72.0265 80.9555 71.7185 81.0714 71.5083 81.3033C71.3054 81.5353 71.1677 81.836 71.0952 82.2056C71.03 82.568 70.9974 83.0173 70.9974 83.5536C70.9974 84.1043 71.03 84.5681 71.0952 84.945C71.1604 85.3146 71.2981 85.6153 71.5083 85.8472C71.7185 86.0719 72.0265 86.1842 72.4323 86.1842C72.8381 86.1842 73.1461 86.0719 73.3563 85.8472C73.5664 85.6153 73.7041 85.3146 73.7694 84.945C73.8346 84.5681 73.8672 84.1043 73.8672 83.5536ZM77.0032 85.9016C77.6989 85.3218 78.2533 84.8399 78.6664 84.4558C79.0795 84.0645 79.4237 83.6586 79.6991 83.2383C79.9745 82.818 80.1122 82.4049 80.1122 81.9991C80.1122 81.6295 80.0252 81.3396 79.8513 81.1294C79.6773 80.9193 79.4092 80.8142 79.0468 80.8142C78.6845 80.8142 78.4055 80.9374 78.2098 81.1838C78.0141 81.4229 77.9127 81.7527 77.9054 82.173L76.427 82.173C76.456 81.3033 76.7133 80.6439 77.1989 80.1946C77.6917 79.7452 78.3149 79.5206 79.0686 79.5206C79.8947 79.5206 80.5289 79.7416 80.9709 80.1837C81.413 80.6185 81.634 81.1946 81.634 81.9121C81.634 82.4774 81.4818 83.0173 81.1775 83.5318C80.8731 84.0464 80.5252 84.4957 80.1339 84.8798C79.7426 85.2566 79.2316 85.7132 78.6012 86.2495L81.808 86.2495L81.808 87.5104L76.4379 87.5104L76.4379 86.3799L77.0032 85.9016ZM88.0935 81.0098L84.5715 81.0098L84.5715 82.8687C84.7237 82.6803 84.9411 82.5281 85.2237 82.4121C85.5063 82.2889 85.8071 82.2273 86.126 82.2273C86.7057 82.2273 87.1804 82.3542 87.55 82.6078C87.9196 82.8615 88.1877 83.1876 88.3544 83.5862C88.5211 83.9775 88.6044 84.3978 88.6044 84.8471C88.6044 85.6806 88.3653 86.3509 87.887 86.8582C87.4159 87.3655 86.742 87.6191 85.8651 87.6191C85.0389 87.6191 84.3794 87.4126 83.8866 86.9995C83.3938 86.5864 83.1148 86.0465 83.0496 85.3798L84.528 85.3798C84.5932 85.6697 84.7381 85.9016 84.9628 86.0755C85.1947 86.2495 85.4882 86.3364 85.8433 86.3364C86.2709 86.3364 86.5934 86.2023 86.8108 85.9342C87.0282 85.6661 87.1369 85.311 87.1369 84.8689C87.1369 84.4196 87.0246 84.079 86.7999 83.8471C86.5825 83.6079 86.26 83.4883 85.8325 83.4883C85.5281 83.4883 85.2744 83.5644 85.0715 83.7166C84.8686 83.8688 84.7237 84.0717 84.6367 84.3254L83.18 84.3254L83.18 79.6728L88.0935 79.6728L88.0935 81.0098Z" fill="#2D3849"/>
<rect x="34.4941" y="109.944" width="38.6509" height="38.6509" rx="19.3254" fill="#9379EC"/>
<path d="M48.2262 131.979C49.1539 131.206 49.8931 130.564 50.4438 130.052C50.9946 129.53 51.4536 128.989 51.8208 128.428C52.188 127.868 52.3715 127.317 52.3715 126.776C52.3715 126.283 52.2556 125.897 52.0237 125.617C51.7918 125.336 51.4343 125.196 50.9511 125.196C50.468 125.196 50.096 125.361 49.8351 125.689C49.5742 126.008 49.4389 126.448 49.4292 127.008H47.4581C47.4967 125.848 47.8397 124.969 48.4871 124.37C49.1442 123.771 49.9752 123.471 50.9801 123.471C52.0817 123.471 52.9271 123.766 53.5166 124.356C54.106 124.935 54.4007 125.704 54.4007 126.66C54.4007 127.414 54.1978 128.134 53.792 128.82C53.3861 129.506 52.9223 130.105 52.4005 130.617C51.8787 131.119 51.1975 131.728 50.3569 132.443H54.6326V134.125H47.4725V132.617L48.2262 131.979ZM55.6649 125.573V123.703H59.1579V134.27H57.0708V125.573H55.6649Z" fill="white"/>
<path d="M49.4005 164.317C49.006 164.317 48.6509 164.249 48.3352 164.114C48.0196 163.973 47.7716 163.776 47.5912 163.522C47.4108 163.269 47.3206 162.973 47.3206 162.634L48.3521 162.634C48.3747 162.888 48.4733 163.097 48.6481 163.26C48.8284 163.424 49.0793 163.505 49.4005 163.505C49.7331 163.505 49.9924 163.426 50.1784 163.269C50.3644 163.105 50.4574 162.897 50.4574 162.643C50.4574 162.446 50.3982 162.285 50.2798 162.161C50.1671 162.037 50.0234 161.941 49.8486 161.874C49.6796 161.806 49.4428 161.733 49.1384 161.654C48.7552 161.552 48.4423 161.451 48.1999 161.349C47.9632 161.242 47.7603 161.079 47.5912 160.859C47.4221 160.639 47.3376 160.346 47.3376 159.98C47.3376 159.641 47.4221 159.346 47.5912 159.092C47.7603 158.838 47.997 158.644 48.3014 158.508C48.6058 158.373 48.9581 158.306 49.3583 158.306C49.9276 158.306 50.3926 158.449 50.7533 158.737C51.1197 159.019 51.3226 159.408 51.3621 159.904L50.2968 159.904C50.2798 159.689 50.1784 159.506 49.9924 159.354C49.8064 159.202 49.5612 159.126 49.2568 159.126C48.9806 159.126 48.7552 159.196 48.5804 159.337C48.4057 159.478 48.3183 159.681 48.3183 159.946C48.3183 160.126 48.3719 160.276 48.479 160.394C48.5917 160.507 48.7326 160.597 48.9017 160.664C49.0708 160.732 49.3019 160.805 49.595 160.884C49.9839 160.991 50.2996 161.099 50.5419 161.206C50.79 161.313 50.9985 161.479 51.1676 161.704C51.3423 161.924 51.4297 162.22 51.4297 162.592C51.4297 162.891 51.348 163.173 51.1845 163.438C51.0267 163.703 50.7928 163.917 50.4828 164.08C50.1784 164.238 49.8176 164.317 49.4005 164.317ZM52.2457 161.907C52.2457 161.44 52.3416 161.025 52.5332 160.664C52.7305 160.304 52.9954 160.025 53.328 159.827C53.6662 159.625 54.0382 159.523 54.444 159.523C54.8104 159.523 55.1288 159.596 55.3994 159.743C55.6756 159.884 55.8954 160.061 56.0589 160.276L56.0589 159.599L57.0312 159.599L57.0312 164.258L56.0589 164.258L56.0589 163.565C55.8954 163.784 55.6728 163.968 55.391 164.114C55.1091 164.261 54.7878 164.334 54.4271 164.334C54.0269 164.334 53.6605 164.232 53.328 164.03C52.9954 163.821 52.7305 163.534 52.5332 163.167C52.3416 162.795 52.2457 162.375 52.2457 161.907ZM56.0589 161.924C56.0589 161.603 55.9912 161.324 55.856 161.087C55.7263 160.85 55.5544 160.67 55.3402 160.546C55.126 160.422 54.8949 160.36 54.6469 160.36C54.3989 160.36 54.1678 160.422 53.9536 160.546C53.7394 160.664 53.5647 160.842 53.4294 161.079C53.2998 161.31 53.235 161.586 53.235 161.907C53.235 162.229 53.2998 162.51 53.4294 162.753C53.5647 162.995 53.7394 163.181 53.9536 163.311C54.1734 163.435 54.4045 163.497 54.6469 163.497C54.8949 163.497 55.126 163.435 55.3402 163.311C55.5544 163.187 55.7263 163.006 55.856 162.77C55.9912 162.527 56.0589 162.246 56.0589 161.924ZM59.4217 160.385L59.4217 162.964C59.4217 163.139 59.4611 163.266 59.54 163.345C59.6246 163.418 59.7655 163.455 59.9628 163.455L60.5546 163.455L60.5546 164.258L59.7937 164.258C59.3597 164.258 59.0271 164.156 58.796 163.953C58.5649 163.751 58.4494 163.421 58.4494 162.964L58.4494 160.385L57.8998 160.385L57.8998 159.599L58.4494 159.599L58.4494 158.441L59.4217 158.441L59.4217 159.599L60.5546 159.599L60.5546 160.385L59.4217 160.385Z" fill="#2D3849"/>
<g filter="url(#filter1_d_11834_34563)">
<rect x="82.8086" y="109.944" width="38.6509" height="38.6509" rx="19.3254" fill="white"/>
<path d="M96.5407 131.979C97.4683 131.206 98.2075 130.564 98.7583 130.052C99.3091 129.53 99.768 128.989 100.135 128.428C100.502 127.868 100.686 127.317 100.686 126.776C100.686 126.283 100.57 125.897 100.338 125.617C100.106 125.336 99.7487 125.196 99.2656 125.196C98.7824 125.196 98.4104 125.361 98.1495 125.689C97.8886 126.008 97.7534 126.448 97.7437 127.008H95.7725C95.8112 125.848 96.1542 124.969 96.8016 124.37C97.4586 123.771 98.2896 123.471 99.2946 123.471C100.396 123.471 101.242 123.766 101.831 124.356C102.42 124.935 102.715 125.704 102.715 126.66C102.715 127.414 102.512 128.134 102.106 128.82C101.701 129.506 101.237 130.105 100.715 130.617C100.193 131.119 99.512 131.728 98.6713 132.443H102.947V134.125H95.787V132.617L96.5407 131.979ZM103.979 125.573V123.703H107.472V134.27H105.385V125.573H103.979Z" fill="#B0B0B1"/>
<path d="M95.1348 129.457H108.704V130.182H95.1348V129.457Z" fill="#B0B0B1"/>
</g>
<path d="M96.6623 164.317C96.2677 164.317 95.9126 164.249 95.5969 164.114C95.2813 163.973 95.0333 163.776 94.8529 163.522C94.6725 163.269 94.5824 162.973 94.5824 162.634L95.6139 162.634C95.6364 162.888 95.735 163.097 95.9098 163.26C96.0902 163.424 96.341 163.505 96.6623 163.505C96.9948 163.505 97.2541 163.426 97.4401 163.269C97.6261 163.105 97.7191 162.897 97.7191 162.643C97.7191 162.446 97.6599 162.285 97.5416 162.161C97.4288 162.037 97.2851 161.941 97.1104 161.874C96.9413 161.806 96.7045 161.733 96.4002 161.654C96.0169 161.552 95.704 161.451 95.4617 161.349C95.2249 161.242 95.022 161.079 94.8529 160.859C94.6838 160.639 94.5993 160.346 94.5993 159.98C94.5993 159.641 94.6838 159.346 94.8529 159.092C95.022 158.838 95.2588 158.644 95.5631 158.508C95.8675 158.373 96.2198 158.306 96.62 158.306C97.1893 158.306 97.6543 158.449 98.015 158.737C98.3814 159.019 98.5843 159.408 98.6238 159.904L97.5585 159.904C97.5416 159.689 97.4401 159.506 97.2541 159.354C97.0681 159.202 96.8229 159.126 96.5185 159.126C96.2423 159.126 96.0169 159.196 95.8421 159.337C95.6674 159.478 95.58 159.681 95.58 159.946C95.58 160.126 95.6336 160.276 95.7407 160.394C95.8534 160.507 95.9943 160.597 96.1634 160.664C96.3325 160.732 96.5636 160.805 96.8567 160.884C97.2457 160.991 97.5613 161.099 97.8037 161.206C98.0517 161.313 98.2602 161.479 98.4293 161.704C98.6041 161.924 98.6914 162.22 98.6914 162.592C98.6914 162.891 98.6097 163.173 98.4462 163.438C98.2884 163.703 98.0545 163.917 97.7445 164.08C97.4401 164.238 97.0794 164.317 96.6623 164.317ZM104.048 159.599L104.048 164.258L103.084 164.258L103.084 163.708C102.932 163.9 102.732 164.052 102.484 164.165C102.241 164.272 101.982 164.325 101.706 164.325C101.339 164.325 101.01 164.249 100.717 164.097C100.429 163.945 100.201 163.72 100.032 163.421C99.8682 163.122 99.7865 162.761 99.7865 162.339L99.7865 159.599L100.742 159.599L100.742 162.195C100.742 162.612 100.846 162.933 101.055 163.159C101.263 163.379 101.548 163.488 101.909 163.488C102.269 163.488 102.554 163.379 102.763 163.159C102.977 162.933 103.084 162.612 103.084 162.195L103.084 159.599L104.048 159.599ZM107.67 159.523C108.036 159.523 108.363 159.599 108.651 159.751C108.944 159.904 109.172 160.129 109.336 160.428C109.499 160.726 109.581 161.087 109.581 161.51L109.581 164.258L108.625 164.258L108.625 161.654C108.625 161.237 108.521 160.918 108.312 160.698C108.104 160.473 107.819 160.36 107.459 160.36C107.098 160.36 106.81 160.473 106.596 160.698C106.388 160.918 106.283 161.237 106.283 161.654L106.283 164.258L105.319 164.258L105.319 159.599L106.283 159.599L106.283 160.132C106.441 159.94 106.641 159.791 106.884 159.684C107.132 159.577 107.394 159.523 107.67 159.523Z" fill="#B0B0B1"/>
<g filter="url(#filter2_d_11834_34563)">
<rect x="131.121" y="109.944" width="38.6509" height="38.6509" rx="19.3254" fill="white"/>
<path d="M144.853 131.979C145.781 131.206 146.52 130.564 147.071 130.052C147.622 129.53 148.081 128.989 148.448 128.428C148.815 127.868 148.998 127.317 148.998 126.776C148.998 126.283 148.883 125.897 148.651 125.617C148.419 125.336 148.061 125.196 147.578 125.196C147.095 125.196 146.723 125.361 146.462 125.689C146.201 126.008 146.066 126.448 146.056 127.008H144.085C144.124 125.848 144.467 124.969 145.114 124.37C145.771 123.771 146.602 123.471 147.607 123.471C148.709 123.471 149.554 123.766 150.144 124.356C150.733 124.935 151.028 125.704 151.028 126.66C151.028 127.414 150.825 128.134 150.419 128.82C150.013 129.506 149.549 130.105 149.027 130.617C148.506 131.119 147.824 131.728 146.984 132.443H151.26V134.125H144.099V132.617L144.853 131.979ZM152.292 125.573V123.703H155.785V134.27H153.698V125.573H152.292Z" fill="#B0B0B1"/>
<path d="M143.447 129.457H157.017V130.182H143.447V129.457Z" fill="#B0B0B1"/>
</g>
<path d="M148.101 158.382L148.101 164.258L147.137 164.258L147.137 160.233L145.344 164.258L144.676 164.258L142.875 160.233L142.875 164.258L141.912 164.258L141.912 158.382L142.952 158.382L145.014 162.99L147.069 158.382L148.101 158.382ZM151.388 164.334C150.948 164.334 150.551 164.235 150.196 164.038C149.841 163.835 149.562 163.553 149.359 163.192C149.156 162.826 149.055 162.403 149.055 161.924C149.055 161.451 149.159 161.031 149.367 160.664C149.576 160.298 149.861 160.016 150.221 159.819C150.582 159.622 150.985 159.523 151.43 159.523C151.876 159.523 152.279 159.622 152.639 159.819C153 160.016 153.285 160.298 153.493 160.664C153.702 161.031 153.806 161.451 153.806 161.924C153.806 162.398 153.699 162.818 153.485 163.184C153.271 163.55 152.978 163.835 152.606 164.038C152.239 164.235 151.833 164.334 151.388 164.334ZM151.388 163.497C151.636 163.497 151.867 163.438 152.081 163.319C152.301 163.201 152.479 163.023 152.614 162.787C152.749 162.55 152.817 162.262 152.817 161.924C152.817 161.586 152.752 161.301 152.622 161.07C152.493 160.834 152.321 160.656 152.107 160.538C151.893 160.419 151.661 160.36 151.413 160.36C151.165 160.36 150.934 160.419 150.72 160.538C150.512 160.656 150.345 160.834 150.221 161.07C150.097 161.301 150.035 161.586 150.035 161.924C150.035 162.426 150.162 162.815 150.416 163.091C150.675 163.362 150.999 163.497 151.388 163.497ZM157.109 159.523C157.476 159.523 157.803 159.599 158.09 159.751C158.383 159.904 158.612 160.129 158.775 160.428C158.939 160.726 159.02 161.087 159.02 161.51L159.02 164.258L158.065 164.258L158.065 161.654C158.065 161.237 157.961 160.918 157.752 160.698C157.543 160.473 157.259 160.36 156.898 160.36C156.537 160.36 156.25 160.473 156.036 160.698C155.827 160.918 155.723 161.237 155.723 161.654L155.723 164.258L154.759 164.258L154.759 159.599L155.723 159.599L155.723 160.132C155.881 159.94 156.081 159.791 156.323 159.684C156.571 159.577 156.833 159.523 157.109 159.523Z" fill="#B0B0B1"/>
<g filter="url(#filter3_d_11834_34563)">
<rect x="179.436" y="109.944" width="38.6509" height="38.6509" rx="19.3254" fill="white"/>
<path d="M193.168 131.979C194.095 131.206 194.834 130.564 195.385 130.052C195.936 129.53 196.395 128.989 196.762 128.428C197.129 127.868 197.313 127.317 197.313 126.776C197.313 126.283 197.197 125.897 196.965 125.617C196.733 125.336 196.376 125.196 195.893 125.196C195.409 125.196 195.037 125.361 194.776 125.689C194.516 126.008 194.38 126.448 194.371 127.008H192.399C192.438 125.848 192.781 124.969 193.429 124.37C194.086 123.771 194.917 123.471 195.922 123.471C197.023 123.471 197.869 123.766 198.458 124.356C199.047 124.935 199.342 125.704 199.342 126.66C199.342 127.414 199.139 128.134 198.733 128.82C198.328 129.506 197.864 130.105 197.342 130.617C196.82 131.119 196.139 131.728 195.298 132.443H199.574V134.125H192.414V132.617L193.168 131.979ZM200.606 125.573V123.703H204.099V134.27H202.012V125.573H200.606Z" fill="#2D3849"/>
</g>
<path d="M195.451 158.382L195.451 159.168L193.887 159.168L193.887 164.258L192.923 164.258L192.923 159.168L191.35 159.168L191.35 158.382L195.451 158.382ZM200.646 159.599L200.646 164.258L199.682 164.258L199.682 163.708C199.53 163.9 199.33 164.052 199.082 164.165C198.839 164.272 198.58 164.325 198.304 164.325C197.937 164.325 197.608 164.249 197.315 164.097C197.027 163.945 196.799 163.72 196.63 163.421C196.466 163.122 196.385 162.761 196.385 162.339L196.385 159.599L197.34 159.599L197.34 162.195C197.34 162.612 197.444 162.933 197.653 163.159C197.861 163.379 198.146 163.488 198.507 163.488C198.867 163.488 199.152 163.379 199.361 163.159C199.575 162.933 199.682 162.612 199.682 162.195L199.682 159.599L200.646 159.599ZM206.187 161.814C206.187 161.989 206.176 162.147 206.153 162.288L202.594 162.288C202.622 162.66 202.76 162.959 203.008 163.184C203.256 163.41 203.561 163.522 203.921 163.522C204.44 163.522 204.806 163.305 205.02 162.871L206.06 162.871C205.919 163.3 205.663 163.652 205.291 163.928C204.925 164.199 204.468 164.334 203.921 164.334C203.476 164.334 203.076 164.235 202.721 164.038C202.371 163.835 202.095 163.553 201.892 163.192C201.695 162.826 201.596 162.403 201.596 161.924C201.596 161.445 201.692 161.025 201.884 160.664C202.081 160.298 202.354 160.016 202.704 159.819C203.059 159.622 203.465 159.523 203.921 159.523C204.361 159.523 204.753 159.619 205.097 159.811C205.44 160.002 205.708 160.273 205.9 160.622C206.091 160.966 206.187 161.363 206.187 161.814ZM205.181 161.51C205.175 161.155 205.049 160.87 204.801 160.656C204.553 160.442 204.245 160.335 203.879 160.335C203.546 160.335 203.262 160.442 203.025 160.656C202.788 160.865 202.647 161.149 202.602 161.51L205.181 161.51Z" fill="#2D3849"/>
</g>
</g>
</g>
<defs>
<filter id="filter0_dddd_11834_34563" x="0.903082" y="0.814977" width="355.203" height="357.749" filterUnits="userSpaceOnUse" color-interpolation-filters="sRGB">
<feFlood flood-opacity="0" result="BackgroundImageFix"/>
<feColorMatrix in="SourceAlpha" type="matrix" values="0 0 0 0 0 0 0 0 0 0 0 0 0 0 0 0 0 0 127 0" result="hardAlpha"/>
<feOffset dx="2.54626" dy="7.63877"/>
<feGaussianBlur stdDeviation="8.91189"/>
<feColorMatrix type="matrix" values="0 0 0 0 0 0 0 0 0 0 0 0 0 0 0 0 0 0 0.04 0"/>
<feBlend mode="normal" in2="BackgroundImageFix" result="effect1_dropShadow_11834_34563"/>
<feColorMatrix in="SourceAlpha" type="matrix" values="0 0 0 0 0 0 0 0 0 0 0 0 0 0 0 0 0 0 127 0" result="hardAlpha"/>
<feOffset dx="12.7313" dy="29.2819"/>
<feGaussianBlur stdDeviation="15.9141"/>
<feColorMatrix type="matrix" values="0 0 0 0 0 0 0 0 0 0 0 0 0 0 0 0 0 0 0.03 0"/>
<feBlend mode="normal" in2="effect1_dropShadow_11834_34563" result="effect2_dropShadow_11834_34563"/>
<feColorMatrix in="SourceAlpha" type="matrix" values="0 0 0 0 0 0 0 0 0 0 0 0 0 0 0 0 0 0 127 0" result="hardAlpha"/>
<feOffset dx="28.0088" dy="66.2026"/>
<feGaussianBlur stdDeviation="21.6432"/>
<feColorMatrix type="matrix" values="0 0 0 0 0 0 0 0 0 0 0 0 0 0 0 0 0 0 0.02 0"/>
<feBlend mode="normal" in2="effect2_dropShadow_11834_34563" result="effect3_dropShadow_11834_34563"/>
<feColorMatrix in="SourceAlpha" type="matrix" values="0 0 0 0 0 0 0 0 0 0 0 0 0 0 0 0 0 0 127 0" result="hardAlpha"/>
<feOffset dx="49.652" dy="117.128"/>
<feGaussianBlur stdDeviation="25.4626"/>
<feColorMatrix type="matrix" values="0 0 0 0 0 0 0 0 0 0 0 0 0 0 0 0 0 0 0.01 0"/>
<feBlend mode="normal" in2="effect3_dropShadow_11834_34563" result="effect4_dropShadow_11834_34563"/>
<feBlend mode="normal" in="SourceGraphic" in2="effect4_dropShadow_11834_34563" result="shape"/>
</filter>
<filter id="filter1_d_11834_34563" x="75.8086" y="104.944" width="56.6504" height="56.6509" filterUnits="userSpaceOnUse" color-interpolation-filters="sRGB">
<feFlood flood-opacity="0" result="BackgroundImageFix"/>
<feColorMatrix in="SourceAlpha" type="matrix" values="0 0 0 0 0 0 0 0 0 0 0 0 0 0 0 0 0 0 127 0" result="hardAlpha"/>
<feOffset dx="2" dy="4"/>
<feGaussianBlur stdDeviation="4.5"/>
<feColorMatrix type="matrix" values="0 0 0 0 0 0 0 0 0 0 0 0 0 0 0 0 0 0 0.01 0"/>
<feBlend mode="normal" in2="BackgroundImageFix" result="effect1_dropShadow_11834_34563"/>
<feBlend mode="normal" in="SourceGraphic" in2="effect1_dropShadow_11834_34563" result="shape"/>
</filter>
<filter id="filter2_d_11834_34563" x="124.121" y="104.944" width="56.6504" height="56.6509" filterUnits="userSpaceOnUse" color-interpolation-filters="sRGB">
<feFlood flood-opacity="0" result="BackgroundImageFix"/>
<feColorMatrix in="SourceAlpha" type="matrix" values="0 0 0 0 0 0 0 0 0 0 0 0 0 0 0 0 0 0 127 0" result="hardAlpha"/>
<feOffset dx="2" dy="4"/>
<feGaussianBlur stdDeviation="4.5"/>
<feColorMatrix type="matrix" values="0 0 0 0 0 0 0 0 0 0 0 0 0 0 0 0 0 0 0.01 0"/>
<feBlend mode="normal" in2="BackgroundImageFix" result="effect1_dropShadow_11834_34563"/>
<feBlend mode="normal" in="SourceGraphic" in2="effect1_dropShadow_11834_34563" result="shape"/>
</filter>
<filter id="filter3_d_11834_34563" x="172.436" y="104.944" width="56.6504" height="56.6509" filterUnits="userSpaceOnUse" color-interpolation-filters="sRGB">
<feFlood flood-opacity="0" result="BackgroundImageFix"/>
<feColorMatrix in="SourceAlpha" type="matrix" values="0 0 0 0 0 0 0 0 0 0 0 0 0 0 0 0 0 0 127 0" result="hardAlpha"/>
<feOffset dx="2" dy="4"/>
<feGaussianBlur stdDeviation="4.5"/>
<feColorMatrix type="matrix" values="0 0 0 0 0 0 0 0 0 0 0 0 0 0 0 0 0 0 0.01 0"/>
<feBlend mode="normal" in2="BackgroundImageFix" result="effect1_dropShadow_11834_34563"/>
<feBlend mode="normal" in="SourceGraphic" in2="effect1_dropShadow_11834_34563" result="shape"/>
</filter>
<clipPath id="clip0_11834_34563">
<rect x="20" y="11" width="235.529" height="179.511" rx="25.4626" fill="white"/>
</clipPath>
<clipPath id="clip1_11834_34563">
<rect width="221.035" height="340.007" fill="white" transform="translate(34.4941 36.4624)"/>
</clipPath>
</defs>
</svg>
