<svg width="357" height="357" viewBox="0 0 357 357" fill="none" xmlns="http://www.w3.org/2000/svg">
<g filter="url(#filter0_dddd_11834_34608)">
<rect x="20" y="11" width="235.529" height="176.965" rx="25.4626" fill="#FAF9F8"/>
<g clip-path="url(#clip0_11834_34608)">
<g filter="url(#filter1_d_11834_34608)">
<rect x="34.0039" y="36.4624" width="206.541" height="38.6509" rx="12.0784" fill="white"/>
<path d="M44.0465 53.5033V52.624H45.8051V58.7876H44.8328V53.5033H44.0465ZM47.6619 57.4771C48.203 57.0093 48.6285 56.626 48.9386 56.3272C49.2542 56.0229 49.5163 55.7072 49.7249 55.3803C49.9334 55.0534 50.0377 54.7264 50.0377 54.3995C50.0377 54.0613 49.956 53.7964 49.7925 53.6048C49.6347 53.4131 49.3838 53.3173 49.04 53.3173C48.7075 53.3173 48.4482 53.4244 48.2622 53.6386C48.0818 53.8471 47.986 54.129 47.9747 54.4841H47.0447C47.0616 53.8415 47.2532 53.3511 47.6196 53.0129C47.9916 52.6691 48.4623 52.4972 49.0316 52.4972C49.6459 52.4972 50.1251 52.6663 50.4689 53.0045C50.8184 53.3427 50.9931 53.7936 50.9931 54.3572C50.9931 54.7631 50.8888 55.1548 50.6803 55.5325C50.4773 55.9045 50.2322 56.2399 49.9447 56.5386C49.6629 56.8317 49.3021 57.1727 48.8625 57.5616L48.482 57.8998H51.1622V58.703H47.0531V58.0013L47.6619 57.4771ZM52.5247 58.8468C52.3499 58.8468 52.2034 58.7876 52.085 58.6692C51.9667 58.5509 51.9075 58.4043 51.9075 58.2296C51.9075 58.0548 51.9667 57.9083 52.085 57.7899C52.2034 57.6716 52.3499 57.6124 52.5247 57.6124C52.6938 57.6124 52.8375 57.6716 52.9559 57.7899C53.0742 57.9083 53.1334 58.0548 53.1334 58.2296C53.1334 58.4043 53.0742 58.5509 52.9559 58.6692C52.8375 58.7876 52.6938 58.8468 52.5247 58.8468ZM52.5247 55.2957C52.3499 55.2957 52.2034 55.2366 52.085 55.1182C51.9667 54.9998 51.9075 54.8533 51.9075 54.6785C51.9075 54.5038 51.9667 54.3572 52.085 54.2389C52.2034 54.1205 52.3499 54.0613 52.5247 54.0613C52.6938 54.0613 52.8375 54.1205 52.9559 54.2389C53.0742 54.3572 53.1334 54.5038 53.1334 54.6785C53.1334 54.8533 53.0742 54.9998 52.9559 55.1182C52.8375 55.2366 52.6938 55.2957 52.5247 55.2957ZM54.0645 54.1459C54.0983 53.6217 54.2984 53.213 54.6648 52.9199C55.0368 52.6268 55.5102 52.4803 56.0852 52.4803C56.4797 52.4803 56.8207 52.5507 57.1082 52.6916C57.3957 52.8325 57.6127 53.0242 57.7592 53.2666C57.9058 53.5089 57.9791 53.7823 57.9791 54.0867C57.9791 54.4362 57.8861 54.7349 57.7001 54.9829C57.514 55.2309 57.2914 55.3972 57.0321 55.4817V55.5156C57.3647 55.617 57.624 55.803 57.81 56.0736C57.996 56.3385 58.089 56.6795 58.089 57.0966C58.089 57.4292 58.0129 57.7251 57.8607 57.9844C57.7085 58.2437 57.483 58.4494 57.1843 58.6016C56.8856 58.7481 56.5276 58.8214 56.1105 58.8214C55.5018 58.8214 55.0001 58.6664 54.6056 58.3564C54.2166 58.0408 54.0081 57.5898 53.9799 57.0036H54.9099C54.9325 57.3024 55.048 57.5475 55.2566 57.7392C55.4651 57.9252 55.747 58.0182 56.1021 58.0182C56.4459 58.0182 56.7108 57.9252 56.8968 57.7392C57.0828 57.5475 57.1758 57.3024 57.1758 57.0036C57.1758 56.6091 57.049 56.33 56.7954 56.1666C56.5474 55.9975 56.1641 55.9129 55.6455 55.9129H55.4257V55.1182H55.654C56.1105 55.1125 56.4572 55.0365 56.6939 54.8899C56.9363 54.7433 57.0575 54.5122 57.0575 54.1966C57.0575 53.926 56.9701 53.7119 56.7954 53.554C56.6206 53.3906 56.3726 53.3088 56.0514 53.3088C55.7357 53.3088 55.4905 53.3906 55.3158 53.554C55.141 53.7119 55.0368 53.9091 55.0029 54.1459H54.0645ZM59.1014 55.6255C59.1014 54.6503 59.2649 53.8894 59.5918 53.3427C59.9244 52.7903 60.4937 52.5141 61.2997 52.5141C62.1057 52.5141 62.6722 52.7903 62.9991 53.3427C63.3317 53.8894 63.498 54.6503 63.498 55.6255C63.498 56.6119 63.3317 57.3841 62.9991 57.9421C62.6722 58.4945 62.1057 58.7707 61.2997 58.7707C60.4937 58.7707 59.9244 58.4945 59.5918 57.9421C59.2649 57.3841 59.1014 56.6119 59.1014 55.6255ZM62.551 55.6255C62.551 55.1689 62.52 54.7828 62.458 54.4672C62.4017 54.1515 62.2833 53.895 62.1029 53.6978C61.9226 53.4948 61.6548 53.3934 61.2997 53.3934C60.9446 53.3934 60.6769 53.4948 60.4965 53.6978C60.3161 53.895 60.1949 54.1515 60.1329 54.4672C60.0766 54.7828 60.0484 55.1689 60.0484 55.6255C60.0484 56.0989 60.0766 56.4963 60.1329 56.8176C60.1893 57.1389 60.3077 57.3982 60.488 57.5955C60.6741 57.7927 60.9446 57.8914 61.2997 57.8914C61.6548 57.8914 61.9226 57.7927 62.1029 57.5955C62.2889 57.3982 62.4101 57.1389 62.4665 56.8176C62.5229 56.4963 62.551 56.0989 62.551 55.6255ZM70.95 54.6616C70.95 54.9604 70.8796 55.2422 70.7387 55.5071C70.5977 55.772 70.3723 55.989 70.0623 56.1581C69.7523 56.3216 69.3549 56.4033 68.8701 56.4033H67.8048V58.7876H66.841V52.9115H68.8701C69.3211 52.9115 69.7015 52.9904 70.0115 53.1482C70.3272 53.3004 70.5611 53.5089 70.7133 53.7739C70.8711 54.0388 70.95 54.3347 70.95 54.6616ZM68.8701 55.617C69.2365 55.617 69.5099 55.5353 69.6903 55.3718C69.8706 55.2027 69.9608 54.966 69.9608 54.6616C69.9608 54.019 69.5972 53.6978 68.8701 53.6978H67.8048V55.617H68.8701ZM78.0583 52.9115V58.7876H77.0944V54.7631L75.302 58.7876H74.634L72.8332 54.7631V58.7876H71.8693V52.9115H72.9092L74.9722 57.5194L77.0268 52.9115H78.0583Z" fill="#2D3849"/>
</g>
<rect x="34.0039" y="79.9448" width="206.541" height="38.6509" rx="12.0784" fill="#9379EC"/>
<path d="M44.0465 96.9857V96.1064H45.8051V102.27H44.8328V96.9857H44.0465ZM51.103 96.935H48.2706V98.6175C48.389 98.4597 48.5637 98.3272 48.7948 98.2201C49.0316 98.113 49.2824 98.0595 49.5473 98.0595C50.0208 98.0595 50.4041 98.161 50.6972 98.3639C50.9959 98.5668 51.2073 98.8232 51.3313 99.1333C51.4609 99.4433 51.5257 99.7702 51.5257 100.114C51.5257 100.531 51.444 100.903 51.2806 101.23C51.1227 101.551 50.8832 101.805 50.5619 101.991C50.2462 102.177 49.8573 102.27 49.3951 102.27C48.7807 102.27 48.2875 102.118 47.9155 101.813C47.5435 101.509 47.3209 101.106 47.2476 100.604H48.1861C48.2481 100.869 48.3862 101.081 48.6004 101.239C48.8146 101.391 49.0823 101.467 49.4036 101.467C49.8038 101.467 50.1025 101.346 50.2998 101.103C50.5027 100.861 50.6042 100.54 50.6042 100.139C50.6042 99.7336 50.5027 99.4235 50.2998 99.2094C50.0969 98.9895 49.7981 98.8796 49.4036 98.8796C49.1274 98.8796 48.8935 98.9501 48.7018 99.091C48.5158 99.2263 48.3805 99.4123 48.296 99.649H47.3829V96.0895H51.103V96.935ZM53.0449 102.329C52.8701 102.329 52.7236 102.27 52.6052 102.152C52.4868 102.033 52.4276 101.887 52.4276 101.712C52.4276 101.537 52.4868 101.391 52.6052 101.272C52.7236 101.154 52.8701 101.095 53.0449 101.095C53.2139 101.095 53.3577 101.154 53.476 101.272C53.5944 101.391 53.6536 101.537 53.6536 101.712C53.6536 101.887 53.5944 102.033 53.476 102.152C53.3577 102.27 53.2139 102.329 53.0449 102.329ZM53.0449 98.7782C52.8701 98.7782 52.7236 98.719 52.6052 98.6006C52.4868 98.4822 52.4276 98.3357 52.4276 98.161C52.4276 97.9862 52.4868 97.8397 52.6052 97.7213C52.7236 97.6029 52.8701 97.5437 53.0449 97.5437C53.2139 97.5437 53.3577 97.6029 53.476 97.7213C53.5944 97.8397 53.6536 97.9862 53.6536 98.161C53.6536 98.3357 53.5944 98.4822 53.476 98.6006C53.3577 98.719 53.2139 98.7782 53.0449 98.7782ZM54.6015 99.1079C54.6015 98.1328 54.765 97.3718 55.0919 96.8251C55.4245 96.2727 55.9938 95.9965 56.7998 95.9965C57.6058 95.9965 58.1723 96.2727 58.4992 96.8251C58.8318 97.3718 58.9981 98.1328 58.9981 99.1079C58.9981 100.094 58.8318 100.867 58.4992 101.425C58.1723 101.977 57.6058 102.253 56.7998 102.253C55.9938 102.253 55.4245 101.977 55.0919 101.425C54.765 100.867 54.6015 100.094 54.6015 99.1079ZM58.0511 99.1079C58.0511 98.6513 58.0201 98.2652 57.9581 97.9496C57.9018 97.6339 57.7834 97.3775 57.603 97.1802C57.4226 96.9773 57.1549 96.8758 56.7998 96.8758C56.4447 96.8758 56.177 96.9773 55.9966 97.1802C55.8162 97.3775 55.695 97.6339 55.633 97.9496C55.5767 98.2652 55.5485 98.6513 55.5485 99.1079C55.5485 99.5814 55.5767 99.9787 55.633 100.3C55.6894 100.621 55.8078 100.881 55.9881 101.078C56.1741 101.275 56.4447 101.374 56.7998 101.374C57.1549 101.374 57.4226 101.275 57.603 101.078C57.789 100.881 57.9102 100.621 57.9666 100.3C58.0229 99.9787 58.0511 99.5814 58.0511 99.1079ZM60.0179 99.1079C60.0179 98.1328 60.1814 97.3718 60.5083 96.8251C60.8409 96.2727 61.4102 95.9965 62.2162 95.9965C63.0222 95.9965 63.5887 96.2727 63.9156 96.8251C64.2482 97.3718 64.4145 98.1328 64.4145 99.1079C64.4145 100.094 64.2482 100.867 63.9156 101.425C63.5887 101.977 63.0222 102.253 62.2162 102.253C61.4102 102.253 60.8409 101.977 60.5083 101.425C60.1814 100.867 60.0179 100.094 60.0179 99.1079ZM63.4675 99.1079C63.4675 98.6513 63.4365 98.2652 63.3745 97.9496C63.3182 97.6339 63.1998 97.3775 63.0194 97.1802C62.8391 96.9773 62.5713 96.8758 62.2162 96.8758C61.8611 96.8758 61.5934 96.9773 61.413 97.1802C61.2326 97.3775 61.1114 97.6339 61.0494 97.9496C60.9931 98.2652 60.9649 98.6513 60.9649 99.1079C60.9649 99.5814 60.9931 99.9787 61.0494 100.3C61.1058 100.621 61.2242 100.881 61.4045 101.078C61.5905 101.275 61.8611 101.374 62.2162 101.374C62.5713 101.374 62.8391 101.275 63.0194 101.078C63.2054 100.881 63.3266 100.621 63.383 100.3C63.4393 99.9787 63.4675 99.5814 63.4675 99.1079ZM71.8665 98.144C71.8665 98.4428 71.7961 98.7246 71.6552 98.9895C71.5142 99.2544 71.2888 99.4715 70.9788 99.6406C70.6688 99.804 70.2714 99.8857 69.7866 99.8857H68.7213V102.27H67.7575V96.3939H69.7866C70.2376 96.3939 70.618 96.4728 70.928 96.6306C71.2437 96.7828 71.4776 96.9914 71.6298 97.2563C71.7876 97.5212 71.8665 97.8171 71.8665 98.144ZM69.7866 99.0994C70.153 99.0994 70.4264 99.0177 70.6067 98.8542C70.7871 98.6852 70.8773 98.4484 70.8773 98.144C70.8773 97.5015 70.5137 97.1802 69.7866 97.1802H68.7213V99.0994H69.7866ZM78.9748 96.3939V102.27H78.0109V98.2455L76.2185 102.27H75.5505L73.7496 98.2455V102.27H72.7858V96.3939H73.8257L75.8887 101.002L77.9433 96.3939H78.9748Z" fill="white"/>
<g filter="url(#filter2_d_11834_34608)">
<rect x="34.0039" y="123.427" width="206.541" height="38.6509" rx="12.0784" fill="white"/>
<path d="M44.0465 140.468V139.588H45.8051V145.752H44.8328V140.468H44.0465ZM51.103 140.417H48.2706V142.099C48.389 141.942 48.5637 141.809 48.7948 141.702C49.0316 141.595 49.2824 141.541 49.5473 141.541C50.0208 141.541 50.4041 141.643 50.6972 141.846C50.9959 142.049 51.2073 142.305 51.3313 142.615C51.4609 142.925 51.5257 143.252 51.5257 143.596C51.5257 144.013 51.444 144.385 51.2806 144.712C51.1227 145.033 50.8832 145.287 50.5619 145.473C50.2462 145.659 49.8573 145.752 49.3951 145.752C48.7807 145.752 48.2875 145.6 47.9155 145.295C47.5435 144.991 47.3209 144.588 47.2476 144.086H48.1861C48.2481 144.351 48.3862 144.563 48.6004 144.72C48.8146 144.873 49.0823 144.949 49.4036 144.949C49.8038 144.949 50.1025 144.828 50.2998 144.585C50.5027 144.343 50.6042 144.022 50.6042 143.621C50.6042 143.215 50.5027 142.905 50.2998 142.691C50.0969 142.471 49.7981 142.362 49.4036 142.362C49.1274 142.362 48.8935 142.432 48.7018 142.573C48.5158 142.708 48.3805 142.894 48.296 143.131H47.3829V139.571H51.103V140.417ZM53.0449 145.811C52.8701 145.811 52.7236 145.752 52.6052 145.634C52.4868 145.515 52.4276 145.369 52.4276 145.194C52.4276 145.019 52.4868 144.873 52.6052 144.754C52.7236 144.636 52.8701 144.577 53.0449 144.577C53.2139 144.577 53.3577 144.636 53.476 144.754C53.5944 144.873 53.6536 145.019 53.6536 145.194C53.6536 145.369 53.5944 145.515 53.476 145.634C53.3577 145.752 53.2139 145.811 53.0449 145.811ZM53.0449 142.26C52.8701 142.26 52.7236 142.201 52.6052 142.083C52.4868 141.964 52.4276 141.818 52.4276 141.643C52.4276 141.468 52.4868 141.322 52.6052 141.203C52.7236 141.085 52.8701 141.026 53.0449 141.026C53.2139 141.026 53.3577 141.085 53.476 141.203C53.5944 141.322 53.6536 141.468 53.6536 141.643C53.6536 141.818 53.5944 141.964 53.476 142.083C53.3577 142.201 53.2139 142.26 53.0449 142.26ZM54.6015 142.59C54.6015 141.615 54.765 140.854 55.0919 140.307C55.4245 139.755 55.9938 139.478 56.7998 139.478C57.6058 139.478 58.1723 139.755 58.4992 140.307C58.8318 140.854 58.9981 141.615 58.9981 142.59C58.9981 143.576 58.8318 144.348 58.4992 144.906C58.1723 145.459 57.6058 145.735 56.7998 145.735C55.9938 145.735 55.4245 145.459 55.0919 144.906C54.765 144.348 54.6015 143.576 54.6015 142.59ZM58.0511 142.59C58.0511 142.133 58.0201 141.747 57.9581 141.432C57.9018 141.116 57.7834 140.859 57.603 140.662C57.4226 140.459 57.1549 140.358 56.7998 140.358C56.4447 140.358 56.177 140.459 55.9966 140.662C55.8162 140.859 55.695 141.116 55.633 141.432C55.5767 141.747 55.5485 142.133 55.5485 142.59C55.5485 143.063 55.5767 143.461 55.633 143.782C55.6894 144.103 55.8078 144.363 55.9881 144.56C56.1741 144.757 56.4447 144.856 56.7998 144.856C57.1549 144.856 57.4226 144.757 57.603 144.56C57.789 144.363 57.9102 144.103 57.9666 143.782C58.0229 143.461 58.0511 143.063 58.0511 142.59ZM60.0179 142.59C60.0179 141.615 60.1814 140.854 60.5083 140.307C60.8409 139.755 61.4102 139.478 62.2162 139.478C63.0222 139.478 63.5887 139.755 63.9156 140.307C64.2482 140.854 64.4145 141.615 64.4145 142.59C64.4145 143.576 64.2482 144.348 63.9156 144.906C63.5887 145.459 63.0222 145.735 62.2162 145.735C61.4102 145.735 60.8409 145.459 60.5083 144.906C60.1814 144.348 60.0179 143.576 60.0179 142.59ZM63.4675 142.59C63.4675 142.133 63.4365 141.747 63.3745 141.432C63.3182 141.116 63.1998 140.859 63.0194 140.662C62.8391 140.459 62.5713 140.358 62.2162 140.358C61.8611 140.358 61.5934 140.459 61.413 140.662C61.2326 140.859 61.1114 141.116 61.0494 141.432C60.9931 141.747 60.9649 142.133 60.9649 142.59C60.9649 143.063 60.9931 143.461 61.0494 143.782C61.1058 144.103 61.2242 144.363 61.4045 144.56C61.5905 144.757 61.8611 144.856 62.2162 144.856C62.5713 144.856 62.8391 144.757 63.0194 144.56C63.2054 144.363 63.3266 144.103 63.383 143.782C63.4393 143.461 63.4675 143.063 63.4675 142.59ZM71.8665 141.626C71.8665 141.925 71.7961 142.207 71.6552 142.471C71.5142 142.736 71.2888 142.953 70.9788 143.122C70.6688 143.286 70.2714 143.368 69.7866 143.368H68.7213V145.752H67.7575V139.876H69.7866C70.2376 139.876 70.618 139.955 70.928 140.113C71.2437 140.265 71.4776 140.473 71.6298 140.738C71.7876 141.003 71.8665 141.299 71.8665 141.626ZM69.7866 142.581C70.153 142.581 70.4264 142.5 70.6067 142.336C70.7871 142.167 70.8773 141.93 70.8773 141.626C70.8773 140.983 70.5137 140.662 69.7866 140.662H68.7213V142.581H69.7866ZM78.9748 139.876V145.752H78.0109V141.727L76.2185 145.752H75.5505L73.7496 141.727V145.752H72.7858V139.876H73.8257L75.8887 144.484L77.9433 139.876H78.9748Z" fill="#2D3849"/>
</g>
</g>
</g>
<defs>
<filter id="filter0_dddd_11834_34608" x="0.903082" y="0.814977" width="355.203" height="355.203" filterUnits="userSpaceOnUse" color-interpolation-filters="sRGB">
<feFlood flood-opacity="0" result="BackgroundImageFix"/>
<feColorMatrix in="SourceAlpha" type="matrix" values="0 0 0 0 0 0 0 0 0 0 0 0 0 0 0 0 0 0 127 0" result="hardAlpha"/>
<feOffset dx="2.54626" dy="7.63877"/>
<feGaussianBlur stdDeviation="8.91189"/>
<feColorMatrix type="matrix" values="0 0 0 0 0 0 0 0 0 0 0 0 0 0 0 0 0 0 0.04 0"/>
<feBlend mode="normal" in2="BackgroundImageFix" result="effect1_dropShadow_11834_34608"/>
<feColorMatrix in="SourceAlpha" type="matrix" values="0 0 0 0 0 0 0 0 0 0 0 0 0 0 0 0 0 0 127 0" result="hardAlpha"/>
<feOffset dx="12.7313" dy="29.2819"/>
<feGaussianBlur stdDeviation="15.9141"/>
<feColorMatrix type="matrix" values="0 0 0 0 0 0 0 0 0 0 0 0 0 0 0 0 0 0 0.03 0"/>
<feBlend mode="normal" in2="effect1_dropShadow_11834_34608" result="effect2_dropShadow_11834_34608"/>
<feColorMatrix in="SourceAlpha" type="matrix" values="0 0 0 0 0 0 0 0 0 0 0 0 0 0 0 0 0 0 127 0" result="hardAlpha"/>
<feOffset dx="28.0088" dy="66.2026"/>
<feGaussianBlur stdDeviation="21.6432"/>
<feColorMatrix type="matrix" values="0 0 0 0 0 0 0 0 0 0 0 0 0 0 0 0 0 0 0.02 0"/>
<feBlend mode="normal" in2="effect2_dropShadow_11834_34608" result="effect3_dropShadow_11834_34608"/>
<feColorMatrix in="SourceAlpha" type="matrix" values="0 0 0 0 0 0 0 0 0 0 0 0 0 0 0 0 0 0 127 0" result="hardAlpha"/>
<feOffset dx="49.652" dy="117.128"/>
<feGaussianBlur stdDeviation="25.4626"/>
<feColorMatrix type="matrix" values="0 0 0 0 0 0 0 0 0 0 0 0 0 0 0 0 0 0 0.01 0"/>
<feBlend mode="normal" in2="effect3_dropShadow_11834_34608" result="effect4_dropShadow_11834_34608"/>
<feBlend mode="normal" in="SourceGraphic" in2="effect4_dropShadow_11834_34608" result="shape"/>
</filter>
<filter id="filter1_d_11834_34608" x="27.0039" y="31.4624" width="224.541" height="56.6509" filterUnits="userSpaceOnUse" color-interpolation-filters="sRGB">
<feFlood flood-opacity="0" result="BackgroundImageFix"/>
<feColorMatrix in="SourceAlpha" type="matrix" values="0 0 0 0 0 0 0 0 0 0 0 0 0 0 0 0 0 0 127 0" result="hardAlpha"/>
<feOffset dx="2" dy="4"/>
<feGaussianBlur stdDeviation="4.5"/>
<feColorMatrix type="matrix" values="0 0 0 0 0 0 0 0 0 0 0 0 0 0 0 0 0 0 0.01 0"/>
<feBlend mode="normal" in2="BackgroundImageFix" result="effect1_dropShadow_11834_34608"/>
<feBlend mode="normal" in="SourceGraphic" in2="effect1_dropShadow_11834_34608" result="shape"/>
</filter>
<filter id="filter2_d_11834_34608" x="27.0039" y="118.427" width="224.541" height="56.6509" filterUnits="userSpaceOnUse" color-interpolation-filters="sRGB">
<feFlood flood-opacity="0" result="BackgroundImageFix"/>
<feColorMatrix in="SourceAlpha" type="matrix" values="0 0 0 0 0 0 0 0 0 0 0 0 0 0 0 0 0 0 127 0" result="hardAlpha"/>
<feOffset dx="2" dy="4"/>
<feGaussianBlur stdDeviation="4.5"/>
<feColorMatrix type="matrix" values="0 0 0 0 0 0 0 0 0 0 0 0 0 0 0 0 0 0 0.01 0"/>
<feBlend mode="normal" in2="BackgroundImageFix" result="effect1_dropShadow_11834_34608"/>
<feBlend mode="normal" in="SourceGraphic" in2="effect1_dropShadow_11834_34608" result="shape"/>
</filter>
<clipPath id="clip0_11834_34608">
<rect width="207.52" height="126.04" fill="white" transform="translate(34.0039 36.4624)"/>
</clipPath>
</defs>
</svg>
