<svg width="73" height="148" viewBox="0 0 73 148" fill="none" xmlns="http://www.w3.org/2000/svg">
<path d="M1.87891 2C20.7706 9.06744 39.1817 15.1233 46.3525 35.4784C48.9576 42.8731 49.2881 51.8571 47.7759 59.5216C44.9851 73.6669 14.1736 73.8449 15.7287 55.4068C16.1565 50.3344 14.9867 43.6296 19.8584 40.8522C28.118 36.1434 35.4388 35.3848 44.9507 35.3601C60.0076 35.321 70.456 54.011 71.5245 67.172C73.5495 92.1159 55.5557 107.157 44.2288 127.619C40.8842 133.661 37.4091 140.006 33.8253 145.88C31.5262 149.649 33.0349 134.792 33.2023 132.807C33.2981 131.671 33.8339 117.801 35.1644 117.913C36.5716 118.031 34.7365 131.356 34.637 132.536C34.4326 134.96 32.3134 144.152 35.4374 143.506C42.5385 142.038 50.6663 140.241 57.937 140.854" stroke="#2D3849" stroke-width="2.16841" stroke-linecap="round" stroke-dasharray="4.34 4.34"/>
</svg>
