<svg width="97" height="140" viewBox="0 0 97 140" fill="none" xmlns="http://www.w3.org/2000/svg">
<path d="M11.9277 138.002C4.1343 119.398 -4.06675 101.837 5.84916 82.6688C9.45148 75.7052 15.7698 69.3098 22.3892 65.1608C34.6058 57.5036 55.8431 79.8274 41.3459 91.3257C37.3576 94.489 33.2747 99.9344 27.914 98.2881C18.8254 95.4969 13.2576 90.6834 6.7234 83.7711C-3.61996 72.8291 2.83757 52.4139 11.6932 42.6194C28.4773 24.056 51.761 26.8606 74.4273 21.094C81.1202 19.3913 88.1227 17.5765 94.8573 16.1629C99.1776 15.256 87.3211 24.3348 85.7606 25.5725C84.8673 26.2811 74.3958 35.3928 73.5661 34.3467C72.6885 33.2402 83.6524 25.449 84.5801 24.7131C86.486 23.2015 94.6342 18.4481 92.0235 16.6148C86.089 12.4477 79.2123 7.75738 74.6781 2.04073" stroke="#2D3849" stroke-width="2.16841" stroke-linecap="round" stroke-dasharray="4.34 4.34"/>
</svg>
