<svg width="751" height="388" viewBox="0 0 751 388" fill="none" xmlns="http://www.w3.org/2000/svg">
<path d="M51.2374 34.9727C127.456 -26.967 673.696 -9.41966 739.321 110.024C763.935 154.824 751.692 253.928 682.91 311.798C614.128 369.667 206.966 430.798 64.0643 311.798C-12.4011 248.121 -24.9806 96.9125 51.2374 34.9727Z" fill="#F8FF9A"/>
<path d="M63.7139 45.6729C72.4454 38.4716 88.3941 32.1146 110.336 26.9209C132.142 21.7597 159.395 17.8505 190.308 15.2596C252.124 10.0788 328.276 10.1937 404.138 15.9694C480.014 21.7462 555.448 33.1745 615.867 50.56C646.08 59.2537 672.427 69.4057 693.164 81.0187C713.95 92.6598 728.782 105.592 736.414 119.69C748 141.091 751.141 176.122 742.795 213.242C734.476 250.246 714.851 288.774 681.635 317.136C673.605 323.992 660.352 331.107 642.741 338.036C625.196 344.94 603.575 351.566 579.01 357.545C529.884 369.502 469.187 378.821 406.193 382.63C343.191 386.44 278.006 384.731 219.873 374.69C161.674 364.638 110.904 346.297 76.3851 317.124C39.6272 286.059 17.9718 233.344 14.8828 180.53C11.7925 127.691 27.3211 75.6876 63.7139 45.6729Z" fill="#F8FF9A" stroke="#2D3849" stroke-width="7"/>
</svg>
