<svg width="98" height="105" viewBox="0 0 98 105" fill="none" xmlns="http://www.w3.org/2000/svg">
<path d="M30.1288 92.6064C46.7684 92.6064 60.2575 75.9935 60.2575 55.5005C60.2575 35.0074 46.7684 18.3945 30.1288 18.3945C13.4891 18.3945 0 35.0074 0 55.5005C0 75.9935 13.4891 92.6064 30.1288 92.6064Z" fill="#F9BFD3"/>
<g clip-path="url(#clip0_12_1636)">
<path d="M18.9951 58.687C20.0403 58.6383 21.0826 58.6344 22.1263 58.6766C22.6181 58.6988 23.1077 58.7295 23.5993 58.7698C23.8268 58.7897 24.0544 58.8096 24.284 58.8391C24.3769 58.8503 24.5827 58.8324 24.661 58.8808L24.3738 58.8449C24.4752 58.8584 24.5724 58.8707 24.6738 58.8842C26.526 59.1476 28.356 59.5786 30.1273 60.1948C30.554 60.341 30.9729 60.499 31.3896 60.6654C31.4725 60.6968 31.5679 60.7497 31.6531 60.7726C31.1694 60.6521 31.3419 60.6389 31.4969 60.7079C31.754 60.8224 32.0121 60.9327 32.268 61.0515C33.0717 61.4267 33.8609 61.8391 34.6282 62.2822C35.3955 62.7253 36.1471 63.2098 36.8725 63.7239C37.065 63.8577 37.2564 63.9957 37.4423 64.1369C37.5988 64.2519 37.8266 64.5093 38.0045 64.5615C37.9661 64.5513 37.5863 64.2303 37.8872 64.4707C37.9622 64.5319 38.034 64.5877 38.1089 64.6489C38.3306 64.827 38.547 65.0083 38.7664 65.195C40.1653 66.3828 41.4649 67.6855 42.6798 69.066C43.3203 69.7948 43.9303 70.5519 44.5296 71.3154C44.7307 71.5702 44.203 70.8808 44.5097 71.2872C44.5704 71.3674 44.6311 71.4476 44.6907 71.5321C44.8413 71.7369 44.992 71.9416 45.1426 72.1464C45.4416 72.5645 45.7364 72.9814 46.0246 73.4057C48.3699 76.8566 50.3279 80.5598 52.0414 84.3574C52.2993 84.9289 52.5518 85.5035 52.8 86.077C52.9123 86.3399 53.0245 86.6029 53.1355 86.8702C52.9482 86.4272 53.1047 86.798 53.152 86.9111C53.2302 87.0965 53.3072 87.2861 53.38 87.4746C53.8424 88.6124 54.2886 89.7595 54.7155 90.9106C55.64 93.3916 56.485 95.8969 57.2847 98.4175C57.619 99.4707 58.6048 100.155 59.7095 100.003C60.8143 99.8519 61.6045 98.9311 61.6146 97.8194C61.6487 94.9651 61.7695 92.1111 62.0164 89.2635C62.0758 88.5989 62.1394 87.9355 62.2072 87.2732C62.2411 86.9763 62.2738 86.6836 62.3077 86.3867C62.3278 86.2094 62.3511 86.0375 62.3712 85.8602C62.3838 85.7449 62.4018 85.6264 62.4145 85.5111C62.3789 85.7801 62.3738 85.8335 62.3958 85.6659C62.5664 84.4328 62.7497 83.2032 62.9725 81.9796C63.383 79.7147 63.8938 77.4676 64.5367 75.2559C64.84 74.2091 65.1731 73.1703 65.5404 72.1407C65.6955 71.6982 65.8591 71.2579 66.0301 70.8242C66.1151 70.6095 66.1957 70.3936 66.2849 70.18C66.3374 70.0525 66.3898 69.925 66.4423 69.7974C66.5984 69.4191 66.224 70.3053 66.4779 69.7156C67.2307 67.9627 68.0898 66.2565 69.0633 64.6175C69.5269 63.842 70.0137 63.0819 70.5269 62.3425C70.7572 62.0115 70.9906 61.6858 71.2314 61.3667C71.3025 61.2716 71.3737 61.1765 71.4448 61.0814C71.4875 61.0243 71.7368 60.7075 71.4875 61.0243C71.2382 61.3411 71.4875 61.0243 71.5291 60.9715C71.6264 60.8469 71.7226 60.7265 71.8242 60.603C72.8928 59.2909 74.05 58.0573 75.2923 56.915C75.8988 56.356 76.5263 55.8208 77.1759 55.3052C77.3213 55.1889 77.4697 55.078 77.6151 54.9616C77.0326 55.4312 77.5565 55.0099 77.7007 54.8978C78.0593 54.6331 78.4211 54.3738 78.7902 54.1211C80.2938 53.0945 81.8757 52.1848 83.5103 51.3851C83.93 51.1825 84.3539 50.9809 84.7787 50.7933C85.0019 50.6933 85.2239 50.5975 85.446 50.5017C85.5128 50.4739 85.585 50.4431 85.6518 50.4153C84.9791 50.71 85.5031 50.4759 85.6518 50.4153C86.5277 50.0609 87.4193 49.7334 88.3124 49.4339C89.3617 49.0802 90.0539 48.1331 89.8984 47.009C89.7429 45.885 88.8257 45.1323 87.7144 45.1039C87.0159 45.0858 86.3147 45.044 85.6191 44.9809C85.2804 44.9496 84.9397 44.9085 84.5979 44.8717C84.3491 44.8461 84.867 44.9073 84.85 44.9027C84.7647 44.8799 84.6695 44.8772 84.5809 44.8672C84.4047 44.8428 84.2255 44.813 84.0493 44.7887C82.7399 44.5794 81.4405 44.2814 80.167 43.9037C79.5623 43.7234 78.9589 43.5206 78.3644 43.3019C78.0688 43.1953 77.7796 43.0813 77.4916 42.963C77.4343 42.9385 77.3769 42.914 77.3184 42.8938C77.0494 42.7897 77.7805 43.0952 77.5192 42.9795C77.3684 42.9117 77.2164 42.8482 77.0656 42.7804C75.9313 42.2755 74.8249 41.7004 73.758 41.0629C72.6912 40.4254 71.7284 39.7747 70.771 39.0523C70.6453 38.9592 70.5218 38.8576 70.3917 38.7634C70.3653 38.7427 70.7952 39.0816 70.6072 38.9308C70.547 38.8827 70.4826 38.8334 70.4224 38.7853C70.1891 38.5995 69.9611 38.4106 69.7331 38.2216C69.2784 37.8394 68.8344 37.451 68.4035 37.0478C66.6712 35.451 65.086 33.6973 63.6384 31.8388C63.5567 31.7347 63.4761 31.6264 63.3901 31.5211C63.8282 32.0678 63.4886 31.648 63.3839 31.5103C63.2029 31.2654 63.0176 31.0194 62.842 30.7714C62.5084 30.3121 62.1825 29.8411 61.8651 29.3725C61.2407 28.4471 60.6457 27.4975 60.0765 26.5367C58.985 24.696 57.9918 22.7949 57.086 20.8578C56.6707 19.9701 56.2771 19.07 55.8943 18.1636C55.8439 18.0451 56.1153 18.7024 55.9467 18.2919C55.8994 18.1787 55.8532 18.0613 55.8059 17.9481C55.7113 17.7218 55.622 17.4924 55.5316 17.2672C55.3685 16.8536 55.2053 16.4399 55.0518 16.0243C54.5048 14.5716 54.0019 13.1078 53.541 11.6234C53.0578 10.069 52.6852 8.49403 52.275 6.92269C52.2668 6.90222 52.264 6.87863 52.2612 6.85504C52.0417 5.78235 50.8552 5.13105 49.8363 5.26907C48.8174 5.40709 47.8524 6.34964 47.9313 7.45314C48.0209 8.73766 47.9969 10.0374 47.9528 11.3271C47.9053 12.7485 47.8044 14.1646 47.6587 15.5779C47.6118 16.0083 47.5662 16.4345 47.5108 16.8627C47.4962 16.9684 47.4457 17.3613 47.5048 16.9022C47.5639 16.443 47.5122 16.8402 47.4976 16.9459C47.4647 17.1883 47.4317 17.4306 47.3945 17.6718C47.2589 18.6037 47.1021 19.5299 46.9228 20.4546C46.5277 22.5089 46.0268 24.5486 45.4174 26.5501C45.0902 27.6179 44.7332 28.6776 44.3378 29.7271C44.134 30.2662 43.9185 30.7976 43.7062 31.3345C43.6013 31.5895 43.9145 30.8468 43.8053 31.1007C43.7774 31.1709 43.7452 31.2399 43.7173 31.31C43.666 31.4333 43.6116 31.5512 43.5603 31.6744C43.44 31.9528 43.3155 32.23 43.1867 32.506C42.1636 34.7391 40.9696 36.8945 39.602 38.9303C39.2519 39.453 38.8847 39.9712 38.5112 40.4785C38.4116 40.6117 38.3132 40.7406 38.2135 40.8737C38.1512 40.953 37.8558 41.3396 38.0866 41.0407C38.3371 40.7196 37.9631 41.1948 37.915 41.255C37.8111 41.387 37.7084 41.5148 37.6014 41.6414C36.7536 42.6747 35.8585 43.6634 34.9117 44.6062C33.9648 45.5491 32.9336 46.483 31.8727 47.3405C31.6101 47.5533 31.3445 47.7607 31.0788 47.9681C30.8533 48.1452 31.4363 47.7077 31.2003 47.8728C31.144 47.9125 31.0919 47.9534 31.0345 47.9973C30.8687 48.1219 30.704 48.2422 30.535 48.3613C29.9523 48.7806 29.3548 49.1868 28.7479 49.5768C27.4639 50.3974 26.1394 51.1477 24.7743 51.8277C24.074 52.1744 23.3601 52.5038 22.6422 52.8138C22.5538 52.854 22.4398 52.8874 22.3588 52.9342C22.4074 52.9061 22.8156 52.7461 22.4515 52.8951C22.2823 52.964 22.1131 53.0328 21.944 53.1017C21.5508 53.2566 21.1588 53.4073 20.7636 53.5526C19.9744 53.839 19.1813 54.106 18.3788 54.3568C17.2784 54.6968 16.4608 55.9072 16.8351 57.067C17.2094 58.2268 18.3642 58.9792 19.5453 58.6107C25.752 56.6841 31.5384 53.5991 36.403 49.2669C40.3998 45.7023 43.6806 41.3156 46.1127 36.5509C48.2572 32.3484 49.8235 27.8494 50.8426 23.245C51.6303 19.6745 52.1209 16.02 52.3097 12.3667C52.3923 10.763 52.4963 9.09651 52.3414 7.49308C52.3386 7.4695 52.34 7.44705 52.3372 7.42346L48.003 8.02041C48.2759 9.35403 48.6529 10.6744 49.0417 11.9843C50.0453 15.3633 51.2931 18.6662 52.7274 21.8866C54.5298 25.9319 56.7007 29.8292 59.3286 33.4014C62.3625 37.5208 65.9249 41.2019 70.2024 44.0378C74.8249 47.1032 80.1409 48.893 85.6507 49.3966C86.3463 49.4596 87.0476 49.5014 87.746 49.5196L87.1491 45.1854C80.4273 47.4489 74.1972 51.1503 69.5032 56.533C63.9342 62.9143 60.7164 70.9349 59.0286 79.16C57.7707 85.3035 57.2679 91.5945 57.1936 97.8542L61.5278 97.2573C58.7772 88.5691 55.459 79.8522 50.4775 72.1784C46.0351 65.3387 40.1852 59.4737 32.5174 56.4052C28.236 54.6917 23.5435 54.0692 18.9484 54.2765C17.7972 54.3288 16.694 55.2755 16.7591 56.4986C16.8188 57.6563 17.7464 58.7452 18.9812 58.6879L18.9951 58.687Z" fill="#2D3849"/>
</g>
<defs>
<clipPath id="clip0_12_1636">
<rect width="69.5498" height="89.6701" fill="white" transform="translate(30.8203) rotate(15)"/>
</clipPath>
</defs>
</svg>
    