<svg width="135" height="45" viewBox="0 0 135 45" fill="none" xmlns="http://www.w3.org/2000/svg">
<rect x="0.685547" y="0.0458984" width="134.269" height="44" rx="22" fill="#151B22"/>
<path d="M31.4538 21.3556C31.465 20.4874 31.6956 19.636 32.1243 18.8808C32.5529 18.1257 33.1656 17.4911 33.9053 17.0364C33.4354 16.3652 32.8154 15.8129 32.0947 15.4233C31.3739 15.0336 30.5723 14.8174 29.7534 14.7918C28.0065 14.6084 26.313 15.8371 25.4228 15.8371C24.5154 15.8371 23.1449 14.81 21.669 14.8404C20.7144 14.8712 19.784 15.1488 18.9685 15.6461C18.1531 16.1434 17.4804 16.8435 17.0159 17.6781C15.004 21.1614 16.5047 26.2806 18.4319 29.0962C19.3962 30.475 20.5231 32.015 21.9976 31.9604C23.4405 31.9006 23.9795 31.0403 25.7212 31.0403C27.4467 31.0403 27.9524 31.9604 29.4568 31.9257C31.0051 31.9006 31.9806 30.5408 32.9111 29.1491C33.6038 28.1667 34.137 27.0809 34.4906 25.932C33.5911 25.5515 32.8235 24.9147 32.2834 24.1009C31.7434 23.2871 31.4549 22.3323 31.4538 21.3556Z" fill="white"/>
<path d="M28.6117 12.94C29.4559 11.9266 29.8718 10.624 29.7711 9.30884C28.4813 9.4443 27.2899 10.0607 26.4343 11.0353C26.016 11.5114 25.6956 12.0653 25.4914 12.6653C25.2873 13.2653 25.2034 13.8996 25.2446 14.5321C25.8897 14.5387 26.5279 14.3989 27.1111 14.1231C27.6944 13.8473 28.2074 13.4428 28.6117 12.94Z" fill="white"/>
<path d="M49.6902 28.4701H44.7662L43.5837 31.9618H41.498L46.162 19.0436H48.3289L52.9929 31.9618H50.8717L49.6902 28.4701ZM45.2761 26.8589H49.1793L47.2552 21.1923H47.2013L45.2761 26.8589Z" fill="white"/>
<path d="M63.0652 27.2531C63.0652 30.1799 61.4987 32.0603 59.1347 32.0603C58.5359 32.0917 57.9403 31.9537 57.4162 31.6623C56.8921 31.3709 56.4607 30.9378 56.1713 30.4126H56.1266V35.0775H54.1934V22.5435H56.0647V24.11H56.1002C56.4029 23.5873 56.8416 23.1564 57.3697 22.8632C57.8978 22.57 58.4954 22.4254 59.0991 22.4449C61.4895 22.4449 63.0652 24.3345 63.0652 27.2531ZM61.0781 27.2531C61.0781 25.3463 60.0927 24.0927 58.5892 24.0927C57.112 24.0927 56.1185 25.3727 56.1185 27.2531C56.1185 29.1508 57.112 30.4217 58.5892 30.4217C60.0927 30.4217 61.0781 29.1772 61.0781 27.2531Z" fill="white"/>
<path d="M73.4304 27.2531C73.4304 30.1799 71.8639 32.0603 69.4999 32.0603C68.9011 32.0917 68.3055 31.9537 67.7815 31.6623C67.2574 31.3709 66.8259 30.9378 66.5366 30.4125H66.4918V35.0775H64.5586V22.5434H66.4299V24.11H66.4654C66.7681 23.5873 67.2068 23.1564 67.7349 22.8632C68.263 22.57 68.8606 22.4254 69.4643 22.4449C71.8548 22.4449 73.4304 24.3345 73.4304 27.2531ZM71.4433 27.2531C71.4433 25.3463 70.4579 24.0927 68.9544 24.0927C67.4773 24.0927 66.4837 25.3727 66.4837 27.2531C66.4837 29.1508 67.4773 30.4217 68.9544 30.4217C70.4579 30.4217 71.4433 29.1772 71.4433 27.2531H71.4433Z" fill="white"/>
<path d="M80.2817 28.3625C80.425 29.6435 81.6695 30.4846 83.37 30.4846C84.9995 30.4846 86.1719 29.6435 86.1719 28.4884C86.1719 27.4857 85.4648 26.8853 83.7906 26.4739L82.1164 26.0706C79.7443 25.4976 78.6431 24.3882 78.6431 22.5881C78.6431 20.3592 80.5855 18.8282 83.3436 18.8282C86.0733 18.8282 87.9446 20.3592 88.0076 22.5881H86.056C85.9392 21.2989 84.8735 20.5207 83.3162 20.5207C81.7588 20.5207 80.6931 21.3081 80.6931 22.454C80.6931 23.3673 81.3738 23.9047 83.0388 24.3161L84.4621 24.6655C87.1126 25.2923 88.2138 26.357 88.2138 28.2466C88.2138 30.6634 86.2887 32.177 83.2268 32.177C80.3619 32.177 78.4277 30.6989 78.3027 28.3624L80.2817 28.3625Z" fill="white"/>
<path d="M92.388 20.3146V22.5434H94.179V24.0744H92.388V29.2666C92.388 30.0732 92.7466 30.4491 93.5339 30.4491C93.7465 30.4454 93.9588 30.4305 94.1699 30.4044V31.9262C93.8159 31.9923 93.4561 32.0223 93.0961 32.0156C91.1892 32.0156 90.4456 31.2994 90.4456 29.4728V24.0744H89.0762V22.5434H90.4456V20.3146H92.388Z" fill="white"/>
<path d="M95.2168 27.2532C95.2168 24.2898 96.9621 22.4277 99.6837 22.4277C102.414 22.4277 104.152 24.2898 104.152 27.2532C104.152 30.2247 102.424 32.0787 99.6837 32.0787C96.9448 32.0787 95.2168 30.2246 95.2168 27.2532ZM102.182 27.2532C102.182 25.2204 101.25 24.0206 99.6837 24.0206C98.1172 24.0206 97.1866 25.2295 97.1866 27.2532C97.1866 29.2941 98.1172 30.4847 99.6837 30.4847C101.25 30.4847 102.182 29.2941 102.182 27.2532H102.182Z" fill="white"/>
<path d="M105.744 22.5434H107.588V24.1465H107.633C107.757 23.6458 108.051 23.2034 108.463 22.8935C108.876 22.5836 109.383 22.4252 109.898 22.4449C110.121 22.4441 110.343 22.4683 110.561 22.517V24.3253C110.279 24.2394 109.986 24.1999 109.692 24.2085C109.411 24.1971 109.131 24.2466 108.871 24.3536C108.611 24.4607 108.378 24.6227 108.186 24.8285C107.995 25.0344 107.85 25.2792 107.762 25.5462C107.675 25.8132 107.646 26.0961 107.677 26.3754V31.9618H105.744L105.744 22.5434Z" fill="white"/>
<path d="M119.472 29.1956C119.212 30.9053 117.547 32.0787 115.417 32.0787C112.677 32.0787 110.977 30.2429 110.977 27.2979C110.977 24.3436 112.686 22.4277 115.336 22.4277C117.942 22.4277 119.58 24.2177 119.58 27.0733V27.7357H112.928V27.8525C112.897 28.1992 112.941 28.5483 113.055 28.8769C113.17 29.2055 113.353 29.5059 113.593 29.7582C113.833 30.0105 114.123 30.209 114.445 30.3403C114.768 30.4717 115.114 30.5331 115.462 30.5203C115.919 30.5631 116.377 30.4573 116.769 30.2186C117.161 29.9799 117.465 29.6211 117.637 29.1955L119.472 29.1956ZM112.937 26.3846H117.646C117.663 26.0729 117.616 25.761 117.507 25.4685C117.398 25.176 117.23 24.9091 117.013 24.6846C116.796 24.4602 116.535 24.283 116.247 24.1642C115.958 24.0453 115.648 23.9875 115.336 23.9942C115.021 23.9923 114.709 24.0528 114.418 24.1722C114.126 24.2915 113.861 24.4674 113.638 24.6896C113.415 24.9119 113.239 25.1761 113.118 25.467C112.998 25.7579 112.936 26.0698 112.937 26.3846V26.3846Z" fill="white"/>
<path d="M45.035 9.32015C45.4403 9.29107 45.8471 9.3523 46.2258 9.49943C46.6046 9.64656 46.946 9.87592 47.2254 10.171C47.5048 10.466 47.7152 10.8194 47.8415 11.2056C47.9678 11.5918 48.0068 12.0013 47.9557 12.4044C47.9557 14.3874 46.884 15.5273 45.035 15.5273H42.793V9.32015H45.035ZM43.757 14.6495H44.9274C45.217 14.6668 45.5068 14.6193 45.7758 14.5105C46.0447 14.4016 46.286 14.2342 46.4821 14.0204C46.6782 13.8065 46.8241 13.5517 46.9093 13.2743C46.9944 12.9969 47.0167 12.7041 46.9744 12.4171C47.0136 12.1311 46.9891 11.8401 46.9026 11.5648C46.8162 11.2895 46.6699 11.0367 46.4742 10.8245C46.2786 10.6124 46.0385 10.4461 45.771 10.3377C45.5036 10.2293 45.2155 10.1813 44.9274 10.1973H43.757V14.6495Z" fill="white"/>
<path d="M49.0456 13.1831C49.0162 12.8753 49.0514 12.5647 49.149 12.2712C49.2466 11.9778 49.4045 11.708 49.6125 11.4792C49.8205 11.2503 50.074 11.0675 50.3568 10.9424C50.6396 10.8173 50.9454 10.7526 51.2547 10.7526C51.5639 10.7526 51.8697 10.8173 52.1525 10.9424C52.4353 11.0675 52.6889 11.2503 52.8969 11.4792C53.1049 11.708 53.2627 11.9778 53.3603 12.2712C53.458 12.5647 53.4932 12.8753 53.4637 13.1831C53.4937 13.4913 53.4589 13.8023 53.3616 14.0962C53.2642 14.3901 53.1064 14.6604 52.8984 14.8897C52.6903 15.1189 52.4366 15.3022 52.1535 15.4276C51.8705 15.553 51.5643 15.6177 51.2547 15.6177C50.9451 15.6177 50.6389 15.553 50.3558 15.4276C50.0727 15.3022 49.819 15.1189 49.6109 14.8897C49.4029 14.6604 49.2451 14.3901 49.1478 14.0962C49.0504 13.8023 49.0156 13.4913 49.0456 13.1831ZM52.5128 13.1831C52.5128 12.1677 52.0567 11.5739 51.2562 11.5739C50.4526 11.5739 50.0006 12.1677 50.0006 13.1831C50.0006 14.2066 50.4526 14.7958 51.2562 14.7958C52.0567 14.7958 52.5129 14.2025 52.5129 13.1831H52.5128Z" fill="white"/>
<path d="M59.3363 15.5272H58.3773L57.4091 12.0773H57.336L56.3719 15.5272H55.4221L54.1309 10.843H55.0685L55.9077 14.4173H55.9767L56.9398 10.843H57.8267L58.7897 14.4173H58.8629L59.698 10.843H60.6224L59.3363 15.5272Z" fill="white"/>
<path d="M61.707 10.843H62.597V11.5871H62.666C62.7832 11.3198 62.9809 11.0958 63.2315 10.9462C63.482 10.7966 63.773 10.7289 64.0639 10.7525C64.2918 10.7354 64.5207 10.7698 64.7335 10.8531C64.9464 10.9364 65.1377 11.0666 65.2934 11.2339C65.4492 11.4012 65.5652 11.6014 65.633 11.8197C65.7009 12.0379 65.7187 12.2687 65.6853 12.4948V15.5272H64.7608V12.7269C64.7608 11.9742 64.4337 11.5998 63.75 11.5998C63.5952 11.5926 63.4408 11.6189 63.2971 11.677C63.1535 11.7351 63.0242 11.8235 62.9179 11.9363C62.8117 12.049 62.7311 12.1834 62.6817 12.3302C62.6322 12.477 62.6151 12.6328 62.6315 12.7869V15.5272H61.707L61.707 10.843Z" fill="white"/>
<path d="M67.1582 9.01428H68.0827V15.5272H67.1582V9.01428Z" fill="white"/>
<path d="M69.3698 13.183C69.3404 12.8751 69.3756 12.5645 69.4733 12.2711C69.5709 11.9777 69.7288 11.7079 69.9368 11.479C70.1448 11.2502 70.3984 11.0673 70.6812 10.9422C70.964 10.8171 71.2699 10.7524 71.5791 10.7524C71.8884 10.7524 72.1942 10.8171 72.477 10.9422C72.7599 11.0673 73.0134 11.2502 73.2214 11.479C73.4294 11.7079 73.5873 11.9777 73.685 12.2711C73.7826 12.5645 73.8179 12.8751 73.7884 13.183C73.8184 13.4912 73.7836 13.8022 73.6862 14.0961C73.5888 14.39 73.431 14.6603 73.2229 14.8896C73.0148 15.1188 72.7611 15.3021 72.478 15.4274C72.1949 15.5528 71.8887 15.6176 71.5791 15.6176C71.2695 15.6176 70.9633 15.5528 70.6802 15.4274C70.3971 15.3021 70.1434 15.1188 69.9353 14.8896C69.7272 14.6603 69.5694 14.39 69.4721 14.0961C69.3747 13.8022 69.3398 13.4912 69.3698 13.183ZM72.837 13.183C72.837 12.1676 72.3809 11.5738 71.5804 11.5738C70.7768 11.5738 70.3248 12.1676 70.3248 13.183C70.3248 14.2065 70.7768 14.7957 71.5804 14.7957C72.3809 14.7957 72.837 14.2025 72.837 13.183H72.837Z" fill="white"/>
<path d="M74.7617 14.2025C74.7617 13.3593 75.3895 12.8732 76.504 12.8042L77.7728 12.731V12.3267C77.7728 11.8319 77.4457 11.5526 76.8138 11.5526C76.2978 11.5526 75.9402 11.742 75.8375 12.0732H74.9425C75.037 11.2686 75.7939 10.7526 76.8565 10.7526C78.0309 10.7526 78.6932 11.3372 78.6932 12.3267V15.5273H77.8033V14.869H77.7302C77.5817 15.1051 77.3732 15.2976 77.126 15.4268C76.8788 15.556 76.6018 15.6173 76.3231 15.6044C76.1265 15.6249 75.9277 15.6039 75.7397 15.5428C75.5517 15.4818 75.3785 15.382 75.2314 15.2499C75.0843 15.1178 74.9665 14.9564 74.8856 14.776C74.8047 14.5956 74.7625 14.4002 74.7617 14.2025ZM77.7728 13.8023V13.4106L76.6289 13.4838C75.9838 13.527 75.6913 13.7464 75.6913 14.1593C75.6913 14.5809 76.057 14.8263 76.5599 14.8263C76.7072 14.8412 76.8561 14.8263 76.9976 14.7825C77.139 14.7387 77.2703 14.6669 77.3834 14.5714C77.4966 14.4759 77.5894 14.3585 77.6563 14.2264C77.7232 14.0943 77.7628 13.95 77.7728 13.8023Z" fill="white"/>
<path d="M79.9082 13.183C79.9082 11.7029 80.6691 10.7652 81.8526 10.7652C82.1454 10.7517 82.4359 10.8218 82.6903 10.9673C82.9447 11.1129 83.1524 11.3278 83.2891 11.587H83.3582V9.01428H84.2826V15.5272H83.3968V14.7871H83.3236C83.1763 15.0445 82.9614 15.2568 82.7021 15.4009C82.4428 15.5449 82.1491 15.6153 81.8526 15.6044C80.661 15.6044 79.9082 14.6667 79.9082 13.183ZM80.8632 13.183C80.8632 14.1766 81.3315 14.7744 82.1148 14.7744C82.8939 14.7744 83.3755 14.1679 83.3755 13.1871C83.3755 12.2108 82.8889 11.5957 82.1148 11.5957C81.3366 11.5957 80.8631 12.1976 80.8631 13.183H80.8632Z" fill="white"/>
<path d="M88.1062 13.1831C88.0767 12.8753 88.1119 12.5647 88.2095 12.2712C88.3072 11.9778 88.465 11.708 88.673 11.4792C88.881 11.2503 89.1345 11.0675 89.4173 10.9424C89.7001 10.8173 90.006 10.7526 90.3152 10.7526C90.6245 10.7526 90.9303 10.8173 91.2131 10.9424C91.4959 11.0675 91.7494 11.2503 91.9574 11.4792C92.1654 11.708 92.3233 11.9778 92.4209 12.2712C92.5185 12.5647 92.5537 12.8753 92.5243 13.1831C92.5543 13.4913 92.5195 13.8023 92.4221 14.0962C92.3248 14.3901 92.167 14.6604 91.9589 14.8897C91.7509 15.1189 91.4972 15.3022 91.2141 15.4276C90.931 15.553 90.6248 15.6177 90.3152 15.6177C90.0056 15.6177 89.6994 15.553 89.4163 15.4276C89.1332 15.3022 88.8795 15.1189 88.6715 14.8897C88.4634 14.6604 88.3057 14.3901 88.2083 14.0962C88.1109 13.8023 88.0761 13.4913 88.1062 13.1831ZM91.5734 13.1831C91.5734 12.1677 91.1172 11.5739 90.3167 11.5739C89.5132 11.5739 89.0611 12.1677 89.0611 13.1831C89.0611 14.2066 89.5132 14.7958 90.3167 14.7958C91.1173 14.7958 91.5734 14.2025 91.5734 13.1831Z" fill="white"/>
<path d="M93.7656 10.843H94.6555V11.5871H94.7246C94.8418 11.3198 95.0395 11.0958 95.2901 10.9462C95.5406 10.7966 95.8316 10.7289 96.1225 10.7525C96.3504 10.7354 96.5793 10.7698 96.7921 10.8531C97.005 10.9364 97.1963 11.0666 97.352 11.2339C97.5077 11.4012 97.6238 11.6014 97.6916 11.8197C97.7595 12.0379 97.7773 12.2687 97.7439 12.4948V15.5272H96.8194V12.7269C96.8194 11.9742 96.4923 11.5998 95.8086 11.5998C95.6538 11.5926 95.4994 11.6189 95.3557 11.677C95.2121 11.7351 95.0828 11.8235 94.9765 11.9363C94.8703 12.049 94.7897 12.1834 94.7402 12.3302C94.6908 12.477 94.6737 12.6328 94.6901 12.7869V15.5272H93.7656V10.843Z" fill="white"/>
<path d="M102.966 9.6767V10.8643H103.981V11.643H102.966V14.0516C102.966 14.5423 103.168 14.7572 103.628 14.7572C103.746 14.7568 103.864 14.7497 103.981 14.7358V15.5059C103.815 15.5356 103.647 15.5514 103.478 15.5531C102.45 15.5531 102.041 15.1915 102.041 14.2883V11.6429H101.297V10.8642H102.041V9.6767H102.966Z" fill="white"/>
<path d="M105.244 9.01428H106.16V11.5957H106.234C106.357 11.3259 106.56 11.1006 106.815 10.9504C107.071 10.8003 107.366 10.7326 107.662 10.7565C107.889 10.7442 108.115 10.7821 108.326 10.8674C108.536 10.9528 108.725 11.0835 108.879 11.2503C109.033 11.4171 109.149 11.6158 109.217 11.8323C109.286 12.0489 109.305 12.2778 109.275 12.5029V15.5272H108.35V12.7309C108.35 11.9827 108.001 11.6038 107.348 11.6038C107.189 11.5908 107.029 11.6126 106.88 11.6678C106.73 11.723 106.595 11.8102 106.482 11.9233C106.37 12.0364 106.284 12.1727 106.229 12.3227C106.175 12.4726 106.155 12.6326 106.169 12.7914V15.5272H105.244L105.244 9.01428Z" fill="white"/>
<path d="M114.665 14.2624C114.539 14.6905 114.267 15.0608 113.896 15.3085C113.525 15.5563 113.079 15.6657 112.635 15.6176C112.326 15.6257 112.02 15.5666 111.736 15.4443C111.453 15.3221 111.199 15.1396 110.993 14.9095C110.788 14.6795 110.634 14.4074 110.544 14.1122C110.454 13.8169 110.429 13.5056 110.471 13.1997C110.43 12.893 110.455 12.581 110.545 12.2848C110.635 11.9887 110.788 11.7153 110.993 11.4833C111.197 11.2512 111.45 11.0659 111.732 10.9398C112.015 10.8137 112.321 10.7498 112.631 10.7525C113.934 10.7525 114.721 11.6429 114.721 13.1139V13.4365H111.413V13.4883C111.398 13.6602 111.42 13.8332 111.476 13.9963C111.533 14.1593 111.622 14.3088 111.74 14.4352C111.857 14.5615 112 14.6619 112.158 14.73C112.317 14.798 112.488 14.8321 112.66 14.8302C112.882 14.8568 113.106 14.8169 113.304 14.7158C113.502 14.6147 113.666 14.4568 113.775 14.2623L114.665 14.2624ZM111.413 12.7528H113.779C113.791 12.5955 113.769 12.4376 113.716 12.2892C113.663 12.1407 113.58 12.005 113.471 11.8907C113.362 11.7764 113.231 11.6861 113.086 11.6256C112.94 11.5651 112.783 11.5357 112.626 11.5393C112.466 11.5373 112.307 11.5673 112.159 11.6276C112.011 11.6878 111.877 11.7772 111.763 11.8902C111.65 12.0033 111.561 12.1379 111.501 12.286C111.441 12.4342 111.411 12.5929 111.413 12.7528H111.413Z" fill="white"/>
</svg>
