<svg width="119" height="124" viewBox="0 0 119 124" fill="none" xmlns="http://www.w3.org/2000/svg">
<path d="M83.0757 104.503C102.799 104.503 118.787 84.8117 118.787 60.5215C118.787 36.2312 102.799 16.54 83.0757 16.54C63.3529 16.54 47.3643 36.2312 47.3643 60.5215C47.3643 84.8117 63.3529 104.503 83.0757 104.503Z" fill="#D4C9F8"/>
<g clip-path="url(#clip0_12_1632)">
<path d="M13.4928 69.5614C14.7317 69.5036 15.9671 69.4991 17.2042 69.549C17.7872 69.5753 18.3674 69.6117 18.9501 69.6596C19.2198 69.6831 19.4896 69.7067 19.7617 69.7417C19.8718 69.755 20.1157 69.7337 20.2086 69.7911L19.8681 69.7486C19.9884 69.7646 20.1035 69.7792 20.2238 69.7952C22.4191 70.1073 24.5882 70.6182 26.6877 71.3485C27.1934 71.5219 27.69 71.7091 28.1839 71.9064C28.2822 71.9436 28.3953 72.0064 28.4963 72.0334C27.9229 71.8906 28.1273 71.875 28.3111 71.9568C28.6158 72.0925 28.9218 72.2232 29.2251 72.364C30.1778 72.8088 31.1132 73.2976 32.0226 73.8228C32.9321 74.3479 33.8229 74.9223 34.6828 75.5316C34.9109 75.6902 35.1378 75.8538 35.3582 76.0211C35.5436 76.1574 35.8137 76.4625 36.0245 76.5244C35.979 76.5123 35.5288 76.1318 35.8855 76.4168C35.9743 76.4894 36.0595 76.5555 36.1483 76.628C36.4111 76.8392 36.6675 77.054 36.9276 77.2753C38.5857 78.6831 40.1261 80.2273 41.5661 81.8635C42.3253 82.7274 43.0483 83.6248 43.7586 84.5297C43.997 84.8318 43.3715 84.0146 43.7351 84.4963C43.807 84.5914 43.879 84.6865 43.9496 84.7866C44.1282 85.0293 44.3067 85.272 44.4853 85.5147C44.8397 86.0103 45.1891 86.5045 45.5307 87.0074C48.3105 91.0977 50.6313 95.4871 52.6623 99.9884C52.968 100.666 53.2673 101.347 53.5615 102.027C53.6946 102.338 53.8276 102.65 53.9592 102.967C53.7372 102.442 53.9226 102.881 53.9787 103.015C54.0714 103.235 54.1627 103.46 54.249 103.683C54.7971 105.032 55.326 106.391 55.8319 107.756C56.9278 110.696 57.9293 113.666 58.8772 116.654C59.2735 117.902 60.4419 118.713 61.7513 118.534C63.0607 118.354 63.9974 117.262 64.0094 115.945C64.0498 112.562 64.193 109.179 64.4857 105.804C64.556 105.016 64.6314 104.229 64.7118 103.444C64.752 103.092 64.7908 102.746 64.831 102.394C64.8548 102.184 64.8823 101.98 64.9061 101.77C64.9211 101.633 64.9425 101.492 64.9575 101.356C64.9153 101.675 64.9092 101.738 64.9354 101.539C65.1375 100.078 65.3548 98.6203 65.619 97.1699C66.1055 94.4854 66.7109 91.8219 67.4729 89.2004C67.8324 87.9597 68.2273 86.7284 68.6626 85.508C68.8464 84.9834 69.0404 84.4616 69.2431 83.9475C69.3438 83.693 69.4394 83.4372 69.5451 83.184C69.6073 83.0328 69.6694 82.8817 69.7316 82.7305C69.9167 82.2821 69.4729 83.3324 69.7738 82.6336C70.6661 80.5558 71.6844 78.5335 72.8383 76.5907C73.3877 75.6716 73.9648 74.7706 74.5731 73.8942C74.846 73.5019 75.1227 73.1159 75.4081 72.7376C75.4924 72.6249 75.5768 72.5122 75.6611 72.3994C75.7117 72.3318 76.0072 71.9562 75.7117 72.3318C75.4162 72.7073 75.7117 72.3318 75.761 72.2692C75.8763 72.1215 75.9903 71.9788 76.1108 71.8324C77.3774 70.2772 78.749 68.815 80.2214 67.4611C80.9403 66.7984 81.6841 66.1641 82.4541 65.553C82.6264 65.4151 82.8024 65.2837 82.9747 65.1458C82.2842 65.7024 82.9052 65.2029 83.0761 65.0701C83.5012 64.7564 83.93 64.449 84.3676 64.1494C86.1498 62.9326 88.0248 61.8544 89.9622 60.9065C90.4597 60.6663 90.9621 60.4274 91.4656 60.2051C91.7302 60.0865 91.9934 59.973 92.2565 59.8594C92.3357 59.8265 92.4213 59.7899 92.5005 59.757C91.7032 60.1063 92.3243 59.8289 92.5005 59.757C93.5387 59.3369 94.5955 58.9488 95.6542 58.5937C96.8978 58.1745 97.7183 57.0519 97.534 55.7196C97.3497 54.3872 96.2625 53.4951 94.9452 53.4615C94.1174 53.4399 93.2862 53.3905 92.4617 53.3157C92.0603 53.2785 91.6565 53.2299 91.2514 53.1863C90.9564 53.1559 91.5703 53.2284 91.5501 53.223C91.4491 53.1959 91.3363 53.1928 91.2312 53.1808C91.0224 53.152 90.8099 53.1167 90.6011 53.0878C89.049 52.8397 87.5089 52.4866 85.9994 52.0388C85.2826 51.8251 84.5675 51.5848 83.8629 51.3256C83.5124 51.1992 83.1697 51.0641 82.8283 50.9239C82.7603 50.8948 82.6923 50.8658 82.623 50.8418C82.3041 50.7185 83.1707 51.0806 82.861 50.9435C82.6822 50.8631 82.5021 50.7878 82.3234 50.7074C80.9788 50.1089 79.6674 49.4273 78.4029 48.6717C77.1384 47.9161 75.9972 47.1447 74.8625 46.2885C74.7134 46.1782 74.567 46.0578 74.4129 45.9461C74.3816 45.9215 74.891 46.3233 74.6683 46.1445C74.5969 46.0875 74.5206 46.0291 74.4492 45.9721C74.1726 45.7518 73.9024 45.5279 73.6322 45.3039C73.0932 44.8509 72.567 44.3905 72.0563 43.9127C70.0029 42.02 68.124 39.9413 66.4082 37.7385C66.3113 37.6151 66.2158 37.4866 66.1139 37.3619C66.6332 38.0099 66.2306 37.5123 66.1065 37.3491C65.892 37.0588 65.6724 36.7672 65.4643 36.4733C65.0688 35.9288 64.6825 35.3706 64.3063 34.8151C63.5662 33.7182 62.8609 32.5927 62.1863 31.4538C60.8925 29.2721 59.7154 27.0187 58.6416 24.7227C58.1495 23.6706 57.6829 22.6037 57.2292 21.5294C57.1694 21.3888 57.4911 22.1679 57.2913 21.6813C57.2352 21.5472 57.1805 21.408 57.1244 21.2739C57.0122 21.0057 56.9064 20.7337 56.7993 20.4669C56.6059 19.9766 56.4125 19.4863 56.2305 18.9936C55.5822 17.2717 54.9861 15.5367 54.4398 13.7772C53.8671 11.9349 53.4254 10.068 52.9393 8.20553C52.9295 8.18127 52.9262 8.15331 52.9229 8.12535C52.6627 6.8539 51.2564 6.08192 50.0487 6.24551C48.841 6.40911 47.6972 7.5263 47.7906 8.83427C47.8969 10.3568 47.8685 11.8974 47.8161 13.4261C47.7599 15.1108 47.6403 16.7893 47.4675 18.4644C47.412 18.9746 47.3579 19.4798 47.2923 19.9873C47.2749 20.1126 47.2151 20.5783 47.2851 20.0341C47.3552 19.4899 47.294 19.9607 47.2766 20.086C47.2376 20.3732 47.1985 20.6605 47.1544 20.9464C46.9937 22.051 46.8078 23.1488 46.5953 24.2448C46.1269 26.6798 45.5333 29.0974 44.811 31.4697C44.4232 32.7354 44 33.9915 43.5313 35.2355C43.2897 35.8745 43.0343 36.5044 42.7827 37.1406C42.6583 37.4429 43.0296 36.5626 42.9002 36.8636C42.8671 36.9467 42.8289 37.0285 42.7958 37.1117C42.735 37.2578 42.6705 37.3975 42.6097 37.5436C42.4672 37.8735 42.3196 38.2021 42.167 38.5293C40.9543 41.1762 39.539 43.7309 37.918 46.1439C37.503 46.7635 37.0678 47.3777 36.6252 47.9791C36.5071 48.1369 36.3904 48.2897 36.2723 48.4475C36.1984 48.5414 35.8483 48.9997 36.1218 48.6453C36.4187 48.2648 35.9754 48.8281 35.9184 48.8994C35.7953 49.0559 35.6735 49.2073 35.5467 49.3574C34.5419 50.5822 33.4808 51.754 32.3586 52.8716C31.2363 53.9891 30.014 55.0961 28.7565 56.1125C28.4453 56.3647 28.1304 56.6106 27.8156 56.8564C27.5482 57.0662 28.2393 56.5477 27.9595 56.7434C27.8928 56.7905 27.8311 56.8389 27.763 56.891C27.5664 57.0386 27.3713 57.1812 27.171 57.3224C26.4803 57.8194 25.7721 58.3009 25.0527 58.7632C23.5309 59.7357 21.9609 60.6251 20.3429 61.4312C19.5128 61.8421 18.6666 62.2325 17.8157 62.5999C17.7109 62.6476 17.5758 62.6872 17.4797 62.7427C17.5374 62.7094 18.0213 62.5197 17.5896 62.6963C17.3891 62.7779 17.1886 62.8595 16.9881 62.9411C16.5221 63.1248 16.0574 63.3034 15.589 63.4757C14.6536 63.8151 13.7135 64.1316 12.7623 64.4288C11.458 64.8318 10.489 66.2665 10.9326 67.6412C11.3762 69.016 12.745 69.9078 14.145 69.4709C21.5017 67.1874 28.3603 63.5307 34.1263 58.3958C38.8636 54.1707 42.7523 48.9712 45.6352 43.3236C48.177 38.3424 50.0335 33.0099 51.2415 27.5522C52.1751 23.3202 52.7566 18.9885 52.9804 14.6583C53.0783 12.7574 53.2016 10.7821 53.0179 8.88162C53.0146 8.85366 53.0163 8.82705 53.013 8.79909L47.8757 9.50665C48.1992 11.0874 48.6459 12.6524 49.1069 14.205C50.2964 18.2102 51.7754 22.1251 53.4755 25.9422C55.6119 30.737 58.185 35.3564 61.2998 39.5906C64.8959 44.4733 69.1184 48.8364 74.1885 52.1978C79.6675 55.8312 85.9685 57.9526 92.4993 58.5495C93.3237 58.6243 94.1549 58.6738 94.9828 58.6953L94.2752 53.558C86.308 56.241 78.9235 60.6283 73.3597 67.0083C66.7588 74.572 62.9448 84.0788 60.9443 93.8278C59.4532 101.11 58.8572 108.566 58.7692 115.986L63.9065 115.278C60.6463 104.98 56.7132 94.6483 50.8086 85.5526C45.5431 77.4456 38.6093 70.4938 29.5207 66.8568C24.446 64.8258 18.884 64.0879 13.4374 64.3337C12.0729 64.3957 10.7654 65.5177 10.8425 66.9675C10.9132 68.3398 12.0127 69.6304 13.4763 69.5624L13.4928 69.5614Z" fill="#2D3849"/>
</g>
<defs>
<clipPath id="clip0_12_1632">
<rect width="82.4369" height="106.285" fill="white" transform="translate(27.5087) rotate(15)"/>
</clipPath>
</defs>
</svg>
