<svg width="1277" height="624" viewBox="0 0 1277 624" fill="none" xmlns="http://www.w3.org/2000/svg">
<g clip-path="url(#clip0_11955_34629)">
<path d="M679.546 486.396C658.784 476.134 643.528 462.841 633.705 446.515V484.05C633.705 490.768 628.264 496.17 621.585 496.17H568.89C562.171 496.17 556.77 490.728 556.77 484.05V13.0033C556.77 6.28476 562.211 0.882812 568.89 0.882812H621.585C628.303 0.882812 633.705 6.32465 633.705 13.0033V192.568C643.488 176.243 658.776 163.093 679.546 153.031C700.276 143.009 722.802 137.982 747.05 137.982C781.561 137.982 812.001 145.459 838.349 160.364C864.696 175.309 885.115 196.526 899.582 224.038C914.048 251.551 921.277 283.515 921.277 319.877C921.277 356.238 914.048 388.203 899.582 415.715C885.115 443.228 864.832 464.445 838.724 479.39C812.584 494.335 782.039 501.772 747.082 501.772C722.802 501.772 700.316 496.641 679.586 486.38H679.554L679.546 486.396ZM792.197 421.341C807.796 411.526 820.156 397.89 829.284 380.431C838.381 362.933 842.921 342.753 842.921 319.925C842.921 297.096 838.373 277.363 829.284 259.418C820.188 241.473 807.828 227.701 792.197 218.126C776.566 208.55 758.724 203.803 738.68 203.803C718.636 203.803 699.973 208.59 684.094 218.126C668.247 227.701 655.888 241.337 647.007 259.075C638.158 276.813 633.713 297.096 633.713 319.933C633.713 342.769 638.126 362.255 647.007 379.753C655.856 397.244 668.216 411.024 684.094 421.046C699.941 431.068 718.15 436.094 738.68 436.094C759.211 436.094 776.566 431.203 792.197 421.389V421.349V421.341Z" fill="#2D3849"/>
<path d="M12.6966 0.850586H64.6973C71.4159 0.850586 76.8178 6.29243 76.8178 12.9711V484.057C76.8178 490.776 71.376 496.178 64.6973 496.178H12.6966C5.97812 496.178 0.576172 490.736 0.576172 484.057V13.003C0.576172 6.29243 6.01801 0.882503 12.6966 0.882503V0.850586Z" fill="#2D3849"/>
<path d="M947.529 143.599H1004.56C1009.59 143.599 1014.11 146.695 1015.9 151.419L1116.46 416.457L1080.06 523.491L936.215 160.164C933.047 152.209 938.935 143.567 947.481 143.567L947.553 143.599H947.529ZM1094.79 426.232L1198.86 151.411C1200.65 146.695 1205.16 143.591 1210.19 143.591H1264.43C1273.01 143.591 1278.87 152.201 1275.73 160.188L1095.72 615.875C1093.89 620.487 1089.42 623.551 1084.42 623.551H1031.08C1022.44 623.551 1016.54 614.765 1019.89 606.778L1094.79 426.256V426.224L1094.79 426.232Z" fill="#2D3849"/>
<path d="M223.381 478.377C195.621 462.737 173.925 441.082 158.326 413.29C142.687 385.538 134.875 354.156 134.875 319.175C134.875 284.194 142.655 252.947 158.326 225.435C173.965 197.922 195.517 176.466 223.038 161.066C250.55 145.674 281.829 137.99 316.778 137.99C351.727 137.99 383.005 145.666 410.518 161.066C438.03 176.458 459.59 197.914 475.229 225.435C490.869 252.947 498.68 284.186 498.68 319.175C498.68 354.164 490.861 385.538 475.229 413.29C459.59 441.05 437.895 462.745 410.175 478.377C382.415 494.016 351.288 501.796 316.778 501.796C282.268 501.796 251.101 494.016 223.381 478.377ZM370.677 421.341C386.516 411.526 398.884 397.786 407.765 380.048C416.614 362.311 421.058 342.267 421.058 319.885C421.058 297.503 416.614 276.869 407.765 259.378C398.916 241.888 386.556 228.243 370.677 218.429C354.831 208.646 336.861 203.723 316.818 203.723C296.774 203.723 278.797 208.614 262.958 218.429C247.079 228.243 234.719 241.88 225.87 259.378C217.021 276.877 212.577 297.056 212.577 319.885C212.577 342.714 217.021 362.35 225.87 380.048C234.719 397.786 247.079 411.526 262.958 421.341C278.805 431.155 296.774 436.047 316.818 436.047C336.861 436.047 354.839 431.155 370.677 421.341Z" fill="#2D3849"/>
<path d="M851.969 290.186C841.763 285.199 830.01 284.576 818.943 287.8C819.198 284.089 819.621 280.1 820.283 275.871C821.105 270.589 822.174 265.745 823.339 261.405C826.978 264.492 830.616 267.58 834.255 270.668C834.63 264.556 835.005 258.452 835.38 252.34C839.529 253.936 843.678 255.532 847.819 257.128C846.295 255.779 843.989 253.393 842.481 250.066C841.715 248.382 841.3 246.771 841.189 246.292C840.726 244.409 840.614 242.933 840.566 242.159C840.311 238.329 840.989 234.826 841.5 232.775C842.721 232.751 850.469 232.448 855.671 226.072C858.879 222.139 859.493 217.886 859.645 216.074C865.278 215.356 870.911 214.63 876.545 213.912C871.286 206.635 866.028 199.358 860.77 192.081C866.515 189.974 872.252 187.876 877.997 185.769C874.59 183.878 870.456 181.189 866.204 177.439C862.006 173.745 858.863 170.05 856.565 166.946C861.807 162.318 867.049 157.698 872.292 153.07C869.116 154.387 861.791 156.908 852.735 155.225C847.46 154.243 843.447 152.193 840.901 150.589C845.362 145.299 849.822 140 854.283 134.71C847.157 138.796 840.032 142.889 832.906 146.974C832.723 141.58 832.531 136.186 832.348 130.792C830.321 135.843 828.286 140.894 826.26 145.953C822.789 145.107 816.285 143.025 810.094 137.543C801.564 129.994 799.01 120.747 798.236 117.307C797.319 120.124 796.417 123.643 795.914 127.752C795.388 132.021 795.428 135.779 795.659 138.811C786.858 139.466 779.988 138.492 775.472 137.527C771.793 136.737 769.383 135.883 768.641 135.612C762.673 133.449 758.252 130.489 755.412 128.255C755.46 130.042 755.843 135.38 759.8 140.399C763.343 144.892 767.764 146.607 769.519 147.182C766.112 149.863 760.255 153.757 752.084 155.967C740.523 159.095 730.78 157.1 726.256 155.863C731.171 160.499 740.323 167.561 752.906 168.853C754.845 169.053 756.704 169.101 758.468 169.037C757.095 187.238 752.627 200.02 748.693 208.438C746.691 212.723 743.922 217.83 741.009 226.424C736.844 238.696 734.762 244.824 736.78 251.646C740.203 263.224 752.396 268.977 755.779 270.573C760.12 272.623 764.077 273.533 766.91 273.98C766.958 275.831 767.006 277.682 767.054 279.525C750.935 276.405 739.677 270.828 732.192 266.08C718.3 257.271 702.956 250.728 689.727 240.962C689.376 240.706 688.929 240.635 688.522 240.778C688.115 240.922 687.812 241.257 687.7 241.68L686.248 247.465C667.305 236.565 648.522 224.836 630.425 212.596C603.703 194.523 577.626 174.774 552.923 153.892C549.196 139.849 548.143 126.492 549.803 114.188C549.899 113.493 550.002 112.759 550.114 111.993C551.103 105.235 552.46 95.971 547.369 92.3005C544.114 89.9466 539.518 90.8643 539.007 90.976C533.453 92.1888 530.948 97.0721 530.501 98.0376C530.477 98.0855 530.469 98.1333 530.453 98.1732C529.44 98.3887 528.418 98.7717 527.405 99.3382C525.857 100.208 523.775 101.931 521.445 107.589C519.793 111.602 518.708 115.919 518.229 120.419C516.25 122.725 514.367 126.739 515.5 141.173C516.075 148.546 517.016 153.262 517.766 157.052C518.612 161.313 519.17 164.13 518.556 167.928L518.532 168.071C518.013 170.09 517.607 173.011 518.62 176.067C519.873 179.841 522.689 182.011 523.471 182.641C528.817 186.926 588.327 238.648 670.513 310.102L668.398 318.536C668.263 319.07 668.486 319.629 668.941 319.924L700.06 340.407L696.517 353.15C685.984 344.157 674.071 343.279 669.26 343.335C669.1 343.335 668.949 343.375 668.805 343.423L660.594 324.313C659.693 322.214 657.475 320.946 655.209 321.241L619.023 325.869C617.499 326.06 616.158 326.922 615.344 328.223C614.53 329.523 614.347 331.103 614.842 332.555L626.26 366.18C626.196 366.236 626.132 366.308 626.076 366.379C623.116 370.393 621.329 374.933 620.906 379.505C620.714 381.596 620.451 384.468 621.911 387.684C623.06 390.221 624.76 391.801 626.316 393.03C626.212 395.831 626.675 399.741 629.332 403.1C629.763 403.65 631.087 405.318 635.316 407.536C635.484 407.624 635.659 407.704 635.827 407.792C636.745 412.069 638.652 415.348 641.5 417.518C644.421 419.737 647.652 420.175 656.525 420.447C659.565 420.542 661.887 420.303 663.946 420.096C666.938 419.792 669.3 419.553 672.579 420.495C674.175 420.949 675.723 421.588 677.191 422.378C716.345 443.579 738.256 455.595 746.148 460.175C746.18 460.199 749.938 462.378 755.228 464.851C762.96 468.466 767.221 470.461 772.376 470.668C772.663 470.676 772.958 470.684 773.269 470.684C776.262 470.684 780.546 470.022 787.385 466.327C796.792 461.245 805.697 453.305 812.463 443.985C821.368 431.705 832.954 415.587 845.864 396.669C848.362 397.834 850.987 398.703 853.684 399.238C855.854 399.669 858.081 399.884 860.299 399.884C860.45 399.884 860.602 399.884 860.754 399.884C860.865 399.884 860.977 399.86 861.081 399.836C861.097 399.836 861.105 399.836 861.121 399.836C861.137 399.836 861.153 399.82 861.169 399.812C861.248 399.78 861.328 399.749 861.4 399.701C861.416 399.693 861.44 399.685 861.456 399.669C861.544 399.613 861.623 399.541 861.687 399.469C861.703 399.453 861.719 399.429 861.735 399.413C861.791 399.35 861.831 399.286 861.871 399.206C861.887 399.182 861.895 399.158 861.911 399.134C861.959 399.038 861.99 398.935 862.014 398.831C865.773 378.484 870.249 359.797 875.332 343.303L875.42 343.016C876.481 339.585 877.797 335.308 877.662 329.507C877.295 313.581 866.738 297.415 851.977 290.202L851.969 290.186Z" fill="white"/>
<path d="M694.099 252.644C686.535 276.789 678.971 300.934 671.406 325.079C680.096 330.617 688.785 336.162 697.474 341.7C696.325 345.53 695.176 349.368 694.027 353.198C697.139 355.592 702.956 360.762 706.451 369.356C708.326 373.976 708.965 378.173 709.164 381.277C727.851 389.36 746.539 397.443 765.234 405.534C776.158 390.916 787.073 376.29 797.997 361.672C805.098 363.308 813.9 366.005 823.419 370.625C835.555 376.513 844.683 383.495 851.003 389.161C849.303 392.153 847.596 395.145 845.896 398.137C848.346 399.334 851.865 400.738 856.269 401.504C860.977 402.326 864.991 402.127 867.791 401.768C868.509 395.121 869.762 384.836 871.956 372.332C876.624 345.722 880.71 339.873 878.475 327.337C877.797 323.547 874.526 305.219 858.48 295.732C844.923 287.712 830.64 290.976 826.914 291.83C810.389 295.612 801.3 307.174 798.899 310.445C792.38 325.67 785.86 340.894 779.341 356.118C777.586 355.911 775.831 355.696 774.075 355.488C780.634 340.415 787.193 325.343 793.76 310.27C791.326 311.004 782.326 313.382 773.014 308.849C763.535 304.237 757.399 294.255 756.92 282.981C747.185 280.068 735.902 275.967 723.806 270.078C712.124 264.397 702.222 258.301 694.107 252.636L694.099 252.644Z" fill="#D4C9F8"/>
<path d="M758.659 168.942C757.422 179.507 754.933 192.545 749.762 206.844C741.631 229.329 732.998 237.995 736.612 250.546C740.179 262.938 752.73 268.922 755.563 270.271C770.58 277.428 789.443 274.34 804.683 262.922" stroke="#2D3849" stroke-width="2.39377" stroke-linecap="round" stroke-linejoin="round"/>
<path d="M767.037 273.692C766.694 277.937 766.351 282.174 766.008 286.419C766.183 288.199 767.125 295.452 773.261 300.63C779.373 305.793 788.254 306.878 796.177 303.535" stroke="#2D3849" stroke-width="2.39377" stroke-linecap="round" stroke-linejoin="round"/>
<path d="M818.512 288.99C818.903 280.994 820.187 270.573 823.738 258.86C827.01 248.088 831.255 239.327 835.053 232.752C835.659 232.808 849.359 233.925 855.942 224.046C859.605 218.549 861.799 208.527 856.525 204.609C852.623 201.713 845.442 202.766 839.697 207.801" stroke="#2D3849" stroke-width="2.39377" stroke-linecap="round" stroke-linejoin="round"/>
<path d="M849.693 209.986C849.023 212.165 848.392 214.694 847.954 217.527C847.634 219.553 847.459 221.453 847.371 223.184" stroke="#2D3849" stroke-width="2.39377" stroke-linecap="round" stroke-linejoin="round"/>
<path d="M838.82 219.554C839.826 218.971 841.342 218.237 843.313 217.814C845.204 217.407 846.823 217.423 847.957 217.527" stroke="#2D3849" stroke-width="2.39377" stroke-linecap="round" stroke-linejoin="round"/>
<path d="M774.322 238.361C775.982 245.574 782.118 250.378 788.055 250.154C795.483 249.875 802.417 241.72 800.622 232.169C791.853 234.236 783.091 236.294 774.322 238.361Z" stroke="#2D3849" stroke-width="2.39377" stroke-linecap="round" stroke-linejoin="round"/>
<path d="M776.389 243.364C784.448 241.752 792.507 240.132 800.566 238.521" stroke="#2D3849" stroke-width="2.39377" stroke-linecap="round" stroke-linejoin="round"/>
<path d="M776.454 201.721C775.352 205.527 773.461 210.689 770.07 216.227C766.934 221.35 764.277 223.903 765.139 225.507C765.865 226.855 769.049 227.502 779.645 224.637" stroke="#2D3849" stroke-width="2.39377" stroke-linecap="round" stroke-linejoin="round"/>
<path d="M789.793 211.869C790.934 211.135 792.913 210.058 795.594 209.547C798.195 209.053 800.365 209.3 801.682 209.547" stroke="#2D3849" stroke-width="2.39377" stroke-linecap="round" stroke-linejoin="round"/>
<path d="M767.174 208.678C766.727 207.729 765.386 205.263 762.378 203.691C760.711 202.821 759.139 202.542 758.109 202.446" stroke="#2D3849" stroke-width="2.39377" stroke-linecap="round" stroke-linejoin="round"/>
<path d="M877.981 185.762C875.012 184.134 871.613 181.964 868.118 179.091C862.86 174.766 859.102 170.266 856.517 166.619C861.831 162.071 867.153 157.531 872.467 152.983C869.658 154.228 863.259 156.59 855.064 155.592C848.274 154.77 843.367 152.025 840.853 150.374C845.298 145.251 849.75 140.12 854.195 134.998C847.133 139.059 840.079 143.121 833.018 147.182C832.731 141.764 832.435 136.354 832.148 130.936C830.409 135.963 828.669 140.99 826.93 146.017C823.155 144.82 816.652 142.203 810.397 136.442C802.641 129.309 799.465 121.218 798.212 117.3C797.071 120.484 795.906 124.824 795.603 130.067C795.42 133.25 795.587 136.091 795.89 138.477C790.847 138.716 784.009 138.517 776.166 136.737C767.221 134.703 760.263 131.351 755.571 128.614C755.771 130.673 756.457 134.83 759.345 139.059C762.872 144.222 767.596 146.416 769.495 147.182C765.936 149.799 760.494 153.143 753.249 155.305C741.48 158.816 731.37 157.316 726.271 156.175C732.99 162.071 742.294 168.056 753.832 168.941C770.173 170.194 785.789 161.106 784.584 161.976C778.009 166.715 771.434 171.455 764.859 176.187C768.793 176.873 775.615 177.551 783.714 175.604C792.619 173.466 798.795 169.189 801.986 166.612C796.96 172.317 791.933 178.022 786.906 183.727C790.113 184.613 797.965 186.312 807.213 183.44C814.769 181.086 819.676 176.793 822.006 174.447C820.554 192.241 819.102 210.027 817.658 227.82C820.267 229.847 822.876 231.882 825.493 233.908C827.775 225.77 830.919 219.721 833.377 215.716C837.215 209.452 839.752 207.569 841.013 206.739C841.955 206.117 851.178 200.196 856.525 204.609C860.841 208.167 859.293 215.7 859.206 216.107C864.983 215.365 870.76 214.631 876.537 213.888C871.262 206.532 865.988 199.183 860.714 191.826C866.475 189.799 872.228 187.772 877.989 185.746L877.981 185.762Z" stroke="#2D3849" stroke-width="2.39377" stroke-linecap="round" stroke-linejoin="round"/>
<path d="M841.589 232.44C840.935 234.499 839.658 239.462 841.142 245.518C842.674 251.75 846.265 255.62 847.813 257.12C843.56 255.477 839.307 253.833 835.046 252.189C834.759 258.277 834.463 264.373 834.176 270.462C830.49 267.27 826.803 264.07 823.125 260.878" stroke="#2D3849" stroke-width="2.39377" stroke-linecap="round" stroke-linejoin="round"/>
<path d="M796.177 303.536C811.473 286.899 834.772 282 852.646 290.769C867.735 298.182 877.445 314.603 877.772 329.42C877.9 335.245 876.552 339.458 875.466 342.985C871.628 355.465 866.649 373.881 861.926 399.454C854.473 391.946 844.148 383.065 830.599 375.086C808.88 362.303 788.365 357.412 774.816 355.361C780.681 359.646 786.546 363.931 792.411 368.223" stroke="#2D3849" stroke-width="2.39377" stroke-linecap="round" stroke-linejoin="round"/>
<path d="M847.229 396.214C849.183 397.147 851.825 398.185 855.064 398.823C857.697 399.342 860.035 399.477 861.926 399.453" stroke="#2D3849" stroke-width="2.39377" stroke-linecap="round" stroke-linejoin="round"/>
<path d="M798.581 360.858C787.793 375.524 776.997 390.198 766.209 404.864" stroke="#2D3849" stroke-width="2.39377" stroke-linecap="round" stroke-linejoin="round"/>
<path d="M850.987 389.152C836.529 410.664 823.371 429.144 812.048 444.8C809.862 447.824 801.3 459.418 787.097 467.133C780.131 470.916 775.926 471.522 772.591 471.386C767.644 471.187 763.606 469.28 755.763 465.585C750.473 463.096 746.77 460.926 746.722 460.894C738.145 455.875 713.162 442.111 676.729 422.226" stroke="#2D3849" stroke-width="2.39377" stroke-linecap="round" stroke-linejoin="round"/>
<path d="M636.059 408.446C636.561 410.928 637.814 414.965 641.277 417.63C643.854 419.609 646.663 420.064 655.688 420.335C663.204 420.567 666.34 418.732 672.221 420.431C674.399 421.061 676.09 421.883 677.152 422.466" stroke="#2D3849" stroke-width="2.39377" stroke-linecap="round" stroke-linejoin="round"/>
<path d="M626.579 393.558C626.467 395.425 626.499 399.654 629.284 403.228C629.794 403.883 631.055 405.359 634.893 407.386C637.582 408.806 641.851 410.665 647.66 411.639" stroke="#2D3849" stroke-width="2.39377" stroke-linecap="round" stroke-linejoin="round"/>
<path d="M626.195 367.545C624.32 370.09 621.719 374.463 621.169 380.208C620.961 382.338 620.746 384.956 622.038 387.844C623.283 390.629 625.262 392.169 627.065 393.549C630.807 396.406 634.781 397.643 637.797 398.193" stroke="#2D3849" stroke-width="2.39377" stroke-linecap="round" stroke-linejoin="round"/>
<path d="M628.805 372.284C645.481 371.023 662.166 369.77 678.842 368.51" stroke="#2D3849" stroke-width="2.39377" stroke-linecap="round" stroke-linejoin="round"/>
<path d="M781.096 412.317C757.118 401.968 733.133 391.627 709.155 381.278C708.892 378.174 707.471 365.774 696.971 355.752C685.521 344.821 671.637 344.693 668.836 344.733" stroke="#2D3849" stroke-width="2.39377" stroke-linecap="round" stroke-linejoin="round"/>
<path d="M628.366 371.559C623.977 358.401 619.589 345.235 615.208 332.078C614.434 329.764 615.966 327.322 618.384 327.019C630.552 325.455 642.728 323.899 654.897 322.335C656.62 322.111 658.272 323.069 658.95 324.665C664.998 338.948 671.047 353.223 677.095 367.505" stroke="#2D3849" stroke-width="2.39377" stroke-linecap="round" stroke-linejoin="round"/>
<path d="M642.901 358.815C645.892 357.824 647.299 353.951 646.044 350.165C644.789 346.38 641.348 344.115 638.357 345.106C635.366 346.098 633.959 349.97 635.214 353.756C636.468 357.541 639.91 359.806 642.901 358.815Z" fill="#D4C9F8"/>
<path d="M645.563 356.896C648.148 356.039 649.364 352.692 648.28 349.421C647.195 346.15 644.221 344.193 641.636 345.05C639.051 345.907 637.834 349.253 638.918 352.524C640.003 355.795 642.977 357.753 645.563 356.896Z" stroke="#2D3849" stroke-width="2.39377" stroke-linecap="round" stroke-linejoin="round"/>
<path d="M655.393 326.476C661.321 340.631 667.25 354.786 673.178 368.941" stroke="#2D3849" stroke-width="2.39377" stroke-linecap="round" stroke-linejoin="round"/>
<path d="M766.009 279.166C755.764 276.174 744.233 272.081 731.969 266.4C714.487 258.309 700.196 249.164 689.041 240.874C682.466 266.791 675.891 292.699 669.316 318.616C680.017 325.709 690.717 332.795 701.417 339.888C699.933 345.171 698.449 350.461 696.972 355.743" stroke="#2D3849" stroke-width="2.39377" stroke-linecap="round" stroke-linejoin="round"/>
<path d="M686.168 247.84C667.959 237.324 648.969 225.514 629.475 212.261C600.168 192.329 574.179 172.141 551.351 152.696C546.635 134.735 547.002 121.106 548.303 111.794C549.228 105.18 551.486 94.615 546.515 91.0084C543.699 88.9577 539.486 89.8275 539.166 89.8993C534.028 91.0243 531.762 95.6683 531.482 96.2827" stroke="#2D3849" stroke-width="2.39377" stroke-linecap="round" stroke-linejoin="round"/>
<path d="M519.074 118.816C519.681 113.071 521.157 108.683 522.346 105.842C524.652 100.329 526.575 98.8763 527.819 98.1742C528.57 97.7513 530.891 96.4985 533.756 97.1369C534.123 97.2167 537.299 97.9747 538.591 100.616C539.629 102.738 538.951 105.036 538.783 105.643C537.873 109.018 537.578 117.388 539.605 137.935" stroke="#2D3849" stroke-width="2.39377" stroke-linecap="round" stroke-linejoin="round"/>
<path d="M671.734 309.336C621.839 266.551 571.945 223.766 522.051 180.974C521.086 179.49 519.793 177.144 519.163 174.056C518.404 170.345 518.979 167.385 519.155 166.324C520.407 158.831 517.407 155.089 516.25 139.059C515.197 124.385 517.224 120.818 519.067 118.816C520.934 116.781 524.413 114.411 526.982 115.416C530.15 116.661 530.046 122.302 531.331 132.093C531.961 136.881 533.086 143.934 535.249 152.544" stroke="#2D3849" stroke-width="2.39377" stroke-linecap="round" stroke-linejoin="round"/>
<path d="M531.043 129.731C530.34 129.667 528.218 129.38 526.502 127.648C523.654 124.784 524.603 120.65 524.667 120.395C526.119 119.653 527.572 118.911 529.016 118.169" stroke="#2D3849" stroke-width="2.39377" stroke-linecap="round" stroke-linejoin="round"/>
<path d="M536.948 113.533C536.158 113.19 534.307 112.241 533.086 110.15C530.9 106.424 532.703 102.426 532.887 102.027C534.594 102.187 536.302 102.347 538.009 102.514" stroke="#2D3849" stroke-width="2.39377" stroke-linecap="round" stroke-linejoin="round"/>
<path d="M547.003 107.78C546.213 107.437 544.362 106.488 543.141 104.397C540.954 100.671 542.758 96.6734 542.941 96.2744C544.649 96.434 546.356 96.5936 548.064 96.7611" stroke="#2D3849" stroke-width="2.39377" stroke-linecap="round" stroke-linejoin="round"/>
<path d="M766.008 286.42C771.817 285.111 780.059 282.558 788.884 277.284C796.425 272.775 801.946 267.741 805.689 263.751C801.691 266.544 794.869 270.549 785.549 272.64C777.977 274.339 771.466 274.164 767.037 273.693C766.694 277.938 766.351 282.175 766.008 286.42Z" fill="#2D3849"/>
<path d="M793.767 311.172C787.448 325.902 781.136 340.631 774.816 355.361" stroke="#2D3849" stroke-width="2.39377" stroke-linecap="round" stroke-linejoin="round"/>
<path d="M519.332 137.583C519.077 137.448 518.805 137.352 518.526 137.272C518.438 136.985 518.263 136.721 517.992 136.554L516.396 135.58C517.656 128.87 518.191 122.167 517.96 115.656C517.752 109.552 516.978 105.259 513.747 102.714C513.675 102.658 513.148 102.243 512.39 101.828C512.494 99.3148 512.151 97.312 512.039 96.7056C511.935 96.1789 511.512 95.772 510.986 95.7002C510.18 95.4848 509.374 95.2693 508.568 95.0459C507.403 100.488 506.246 105.922 505.081 111.363C502.951 117.922 500.373 124.944 497.254 132.301C493.687 140.703 489.929 148.299 486.218 155.074C485.588 156.087 484.918 157.324 484.319 158.8C483.601 160.571 483.194 162.191 482.947 163.524C480.497 162 476.284 159.766 470.762 158.944C456.009 156.749 443.33 166.34 438.303 170.162C372.339 220.224 344.323 237.675 317.37 247.066C306.653 250.801 297.717 252.66 292.953 253.53C292.786 252.037 292.666 250.41 292.634 248.662C292.594 246.643 292.674 244.768 292.817 243.077C295.706 242.71 302.416 241.441 307.771 235.999C307.771 235.999 311.257 232.456 313.252 226.999C316.931 216.961 312.869 198.752 301.818 179.059C302.305 175.181 302.704 167.825 299.616 159.566C293.192 142.371 277.274 136.203 275.502 135.549C263.478 131.12 252.905 133.769 249.195 134.894C250.591 131 254.796 117.819 248.277 107.693C238.822 92.9952 213.472 95.1736 198.646 101.701C173.081 112.951 167.615 142.036 166.714 147.645C164.136 163.643 166.323 189.36 181.499 197.459C187.659 200.747 195.183 200.715 198.16 200.707C208.74 200.667 216.719 196.805 220.645 194.555C221.81 196.869 223.949 200.26 227.699 203.061C228.912 203.963 230.093 204.665 231.194 205.215C230.539 210.984 228.273 231.012 228.321 232.193C228.321 232.329 228.345 232.72 228.593 232.871C228.848 233.031 229.239 232.863 229.51 232.704C232.239 231.818 234.96 230.94 237.689 230.055C237.761 229.815 237.825 229.552 237.872 229.281C237.984 228.746 238.032 228.251 238.056 227.804C236.636 220.511 235.215 213.226 233.795 205.933C234.713 206.117 235.67 206.348 236.668 206.62C237.33 206.803 237.96 206.995 238.567 207.186C241.814 217.862 244.519 230.134 245.804 243.811C246.115 247.154 246.33 250.418 246.466 253.585C239.708 252.716 232.957 253.035 226.398 254.559C225.816 254.694 212.083 257.966 201.288 267.613C172.467 293.362 194.928 362.861 196.628 367.92C202.349 384.987 209.985 406.747 230.843 417.91C240.561 423.112 249.402 424.006 257.054 424.708C287.487 427.493 313.212 416.29 328.708 407.401C328.684 408.654 328.804 411.774 330.958 414.535C331.668 415.444 332.434 416.115 333.113 416.593C365.014 421.421 378.267 423.487 379.057 423.703C379.121 423.719 379.528 423.846 380.094 423.87C380.701 423.902 381.227 423.806 381.634 423.687C415.163 414.136 448.684 404.584 482.213 395.041C482.404 395.041 483.298 395.057 484.056 394.371C484.766 393.733 484.886 392.919 484.91 392.711C486.426 390.11 486.833 386.91 486.154 383.208C486.912 382.33 487.407 381.229 487.519 380L495.171 295.843C495.338 294.032 494.652 292.301 493.304 291.096C491.955 289.891 490.168 289.412 488.389 289.787L408.285 306.743C408.317 306.703 408.349 306.639 408.349 306.56C408.333 306.089 407.04 305.778 406.673 305.682C405.604 305.411 403.745 304.756 400.274 303.272C433.954 291.367 458.45 276.637 474.377 265.522C488.644 255.556 502.831 243.747 507.595 227.669C509.023 222.849 513.116 209.053 506.382 197.667C505.847 196.765 505.352 196.055 505.009 195.584C506.23 195.313 513.228 193.661 517.25 186.863C522.372 178.198 517.936 169.125 517.625 168.519C519.188 162.957 520.369 157.3 521.127 151.706C522.332 142.762 521.846 138.924 519.348 137.551L519.332 137.583ZM380.677 393.98C376.974 394.97 373.272 395.967 369.57 396.956C368.381 395.528 366.418 392.799 365.349 388.841C364.303 384.964 364.583 381.684 364.878 379.857C366.53 377.264 368.229 374.231 369.809 370.753C372.346 365.151 373.855 359.957 374.772 355.632C378.929 355.608 383.087 355.584 387.244 355.56C385.057 368.367 382.863 381.165 380.677 393.972V393.98Z" fill="white"/>
<path d="M512.078 227.11C510.275 237.531 504.155 248.71 477.321 268.155C462.16 279.15 438.973 293.808 407.279 306.28C402.659 304.987 393.068 302.897 381.737 305.035C372.657 306.743 365.891 310.509 363.513 311.937C362.994 312.248 362.228 312.719 361.287 313.333C358.957 311.793 356.403 310.23 353.627 308.721C352.111 307.9 350.626 307.142 349.182 306.439C342.512 302.059 334.804 296.25 326.968 288.638C320.593 282.454 315.446 276.366 311.345 270.884C311.44 271.339 311.592 272.017 311.807 272.815C313.802 280.012 317.959 284.512 323.984 290.88C327.231 294.319 331.005 297.83 335.522 301.261C336.998 302.386 338.514 303.463 340.054 304.492C339.958 304.477 339.854 304.469 339.759 304.461C327.375 303.312 317.624 308.889 309.031 313.804C307.171 314.865 305.839 315.616 305.807 315.631C297.708 320.427 282.26 327.098 250.83 336.106C257.285 335.292 266.222 333.736 276.499 330.529C305.655 321.424 317.377 307.796 336.479 310.78C340.972 311.482 346.932 313.27 353.635 317.961C352.446 318.855 336.998 330.824 338.841 347.181C339.096 349.455 340.03 357.443 346.469 362.821C348.025 364.121 352.9 367.688 359.332 367.688C360.018 367.688 360.72 367.648 361.438 367.56C361.438 367.56 362.667 367.409 363.832 367.09C365.452 366.651 369.824 363.475 374.269 357.85C373.383 370.664 369.234 379.641 366.234 384.796C355.55 403.156 337.676 410.521 326.441 415.157C323.633 416.314 313.068 420.535 297.716 422.601C282.109 424.708 256.384 428.179 234.943 415.244C217.11 404.48 210.702 387.317 202.763 367.034C188.624 330.928 186.087 286.308 202.364 271.083C206.17 267.525 217.389 259.585 227.363 257.271C230.842 256.465 234.457 256.122 234.457 256.122C238.654 255.723 242.899 255.811 247.16 256.386C247.239 260.072 247.192 263.758 247.016 267.429C246.992 267.828 247.176 268.211 247.503 268.45C254.205 273.381 266.852 280.826 282.077 280.826C284.638 280.826 287.279 280.619 289.968 280.148C293.527 279.525 297.046 278.472 300.429 277.012C301.012 276.757 301.299 276.086 301.075 275.496C299.057 270.086 297.469 264.477 296.352 258.819C296.144 257.766 295.953 256.697 295.777 255.636C300.333 254.806 308.879 253.074 319.188 249.691C366.736 234.092 420.205 193.812 443.337 176.394C447.526 173.234 458.474 164.904 471.4 166.683C476.507 167.385 480.465 169.468 482.97 171.072C482.986 174.551 483.465 177.359 483.904 179.29C487.119 193.453 497.037 198.815 497.867 198.999C498.171 199.063 498.466 199.119 498.769 199.151C498.769 199.151 499.375 199.222 500.006 199.23C500.788 199.23 503.477 198.608 506.908 197.132C510.139 203.651 514.257 214.614 512.094 227.102L512.078 227.11Z" fill="#FFACD0"/>
<path d="M293.311 163.994C309.756 191.858 316.937 216.035 313.243 226.216C311.16 231.953 307.45 235.648 307.45 235.648C302.215 240.858 295.8 242.199 292.856 242.614C292.856 242.614 289.281 243.076 285.826 242.909C271.87 242.239 257.747 228.091 256.016 226.32" stroke="#2D3849" stroke-width="2.39377" stroke-linecap="round" stroke-linejoin="round"/>
<path d="M292.082 243.276C292.338 247.696 292.896 252.723 293.974 258.197C295.258 264.676 296.99 270.325 298.745 275.057C295.745 276.358 292.346 277.459 288.556 278.113C268.815 281.552 252.426 270.621 247 266.623C247.335 259.665 247.263 251.75 246.401 243.108C244.933 228.371 241.606 215.867 238.183 206.093C236.866 206.22 231.432 206.611 227.538 202.925C222.527 198.177 222.328 189.073 226.453 185.426C226.581 185.315 229.485 182.825 232.964 183.799C235.733 184.573 237.848 187.238 238.326 190.613" stroke="#2D3849" stroke-width="2.39377" stroke-linecap="round" stroke-linejoin="round"/>
<path d="M242.173 201.704C242.173 201.975 242.173 203.795 240.721 205.063C239.716 205.941 238.575 206.069 238.184 206.093" stroke="#2D3849" stroke-width="2.39377" stroke-linecap="round" stroke-linejoin="round"/>
<path d="M230.547 190.805C230.092 191.315 229.182 192.48 228.807 194.236C228.384 196.239 228.903 197.85 229.142 198.489" stroke="#2D3849" stroke-width="2.39377" stroke-linecap="round" stroke-linejoin="round"/>
<path d="M234.751 195.497C234.073 195.577 233.115 195.609 231.998 195.401C230.714 195.162 229.732 194.699 229.094 194.34" stroke="#2D3849" stroke-width="2.39377" stroke-linecap="round" stroke-linejoin="round"/>
<path d="M281.008 175.779C281.806 177.838 283.258 180.742 286.035 183.232C289.546 186.384 293.104 187.014 293.16 189.16C293.192 190.692 291.421 191.977 290.12 192.448C287.726 193.318 284.734 192.217 282.947 189.567" stroke="#2D3849" stroke-width="2.39377" stroke-linecap="round" stroke-linejoin="round"/>
<path d="M267.203 187.837C267.738 187.406 268.767 186.688 270.251 186.329C271.927 185.922 273.323 186.185 274.001 186.36" stroke="#2D3849" stroke-width="2.39377" stroke-linecap="round" stroke-linejoin="round"/>
<path d="M290.765 178.285C290.087 178.325 288.882 178.477 287.582 179.163C286.433 179.769 285.675 180.535 285.26 181.038" stroke="#2D3849" stroke-width="2.39377" stroke-linecap="round" stroke-linejoin="round"/>
<path d="M269.51 199.311C270.036 200.148 272.662 204.154 277.92 205.399C284.215 206.899 289.043 203.204 289.649 202.726" stroke="#2D3849" stroke-width="2.39377" stroke-linecap="round" stroke-linejoin="round"/>
<path d="M269.781 155.042C269.334 158.489 267.259 171.296 256.08 180.847C249.218 186.704 241.965 188.73 238.119 189.512" stroke="#2D3849" stroke-width="2.39377" stroke-linecap="round" stroke-linejoin="round"/>
<path d="M269.781 155.042C272.351 157.3 276.979 160.739 283.617 162.638C287.375 163.707 290.735 163.995 293.312 163.995" stroke="#2D3849" stroke-width="2.39377" stroke-linecap="round" stroke-linejoin="round"/>
<path d="M301.546 179.163C302.057 175.213 302.536 167.258 298.889 158.473C292.186 142.347 277.098 136.745 274.616 135.867C260.924 131.024 249.13 135.077 244.471 136.761C239.667 138.493 227.738 143.009 220.493 155.712C218.881 158.544 212.45 170.234 216.24 184.525C218.371 192.552 222.799 197.922 225.328 200.571" stroke="#2D3849" stroke-width="2.39377" stroke-linecap="round" stroke-linejoin="round"/>
<path d="M248.715 135.373C249.936 131.91 254.54 117.659 247.335 107.071C237.416 92.4927 212.346 95.437 198.167 101.884C172.888 113.374 167.542 142.036 166.736 147.015C165.747 153.087 160.656 184.294 180.796 196.47C197.68 206.676 218.976 195.465 220.628 194.563C210.566 181.637 209.609 164.178 217.963 151.427C228.24 135.748 247.223 135.381 248.715 135.381V135.373Z" stroke="#2D3849" stroke-width="2.39377" stroke-linecap="round" stroke-linejoin="round"/>
<path d="M232.094 200.476C230.834 211.304 229.581 222.131 228.32 232.959C231.624 231.762 234.919 230.565 238.223 229.361C236.18 219.73 234.137 210.099 232.094 200.468V200.476Z" stroke="#2D3849" stroke-width="2.39377" stroke-linecap="round" stroke-linejoin="round"/>
<path d="M247.128 254.488C242.396 253.762 234.8 253.187 225.895 255.254C225.895 255.254 211.924 258.485 201.168 268.06C178.419 288.296 185.728 337.432 196.819 367.266C204.327 387.462 211.477 406.692 230.85 417.927C259.272 434.412 292.833 421.405 324.024 409.317C346.126 400.755 356.005 391.954 362.436 382.922C369.202 373.41 371.995 363.835 373.272 357.484" stroke="#2D3849" stroke-width="2.39377" stroke-linecap="round" stroke-linejoin="round"/>
<path d="M293.199 253.801C298.162 252.971 307.019 251.247 317.608 247.697C344.506 238.68 372.417 221.261 439.746 170.386C444.725 166.628 457.061 157.276 471.487 159.382C476.833 160.164 480.943 162.287 483.376 163.787" stroke="#2D3849" stroke-width="2.39377" stroke-linecap="round" stroke-linejoin="round"/>
<path d="M506.333 197.403C508.495 203.691 510.817 213.593 508.368 224.692C505.24 238.879 495.569 249.364 474.584 263.99C458.011 275.544 432.709 290.848 398.055 303.743" stroke="#2D3849" stroke-width="2.39377" stroke-linecap="round" stroke-linejoin="round"/>
<path d="M310.777 271.771C313.65 276.805 317.791 282.957 323.664 289.205C331.085 297.097 338.641 302.339 344.418 305.714" stroke="#2D3849" stroke-width="2.39377" stroke-linecap="round" stroke-linejoin="round"/>
<path d="M250.807 335.022C275.933 330.194 293.575 322.279 305.185 315.816C314.72 310.509 324.918 303.544 338.443 304.796C347.93 305.674 355.303 310.254 359.971 313.885" stroke="#2D3849" stroke-width="2.39377" stroke-linecap="round" stroke-linejoin="round"/>
<path d="M385.12 356.462C381.099 356.526 377.077 356.59 373.055 356.646C372.369 357.843 369.074 363.269 362.323 365.072C353.889 367.33 347.195 362.008 346.03 361.042C339.591 355.68 338.952 347.757 338.825 346.225C337.34 327.761 360.368 313.63 362.93 312.106C381.553 300.999 401.262 304.509 407.566 305.906" stroke="#2D3849" stroke-width="2.39377" stroke-linecap="round" stroke-linejoin="round"/>
<path d="M369.793 334.176C372.594 334.024 375.785 334.016 379.28 334.295C382.951 334.583 386.246 335.117 389.087 335.74" stroke="#2D3849" stroke-width="2.39377" stroke-linecap="round" stroke-linejoin="round"/>
<path d="M383.316 320.643L391.822 321.361" stroke="#2D3849" stroke-width="2.39377" stroke-linecap="round" stroke-linejoin="round"/>
<path d="M487.271 379.713C489.84 351.587 492.409 323.452 494.979 295.325C495.25 292.365 492.577 289.987 489.672 290.601C458.737 297.12 427.801 303.647 396.874 310.166C395.095 310.541 393.73 311.97 393.427 313.765C388.24 344.964 383.046 376.155 377.859 407.354C377.325 410.553 380.309 413.21 383.429 412.325C416.982 402.734 450.542 393.15 484.095 383.559C485.85 383.057 487.111 381.533 487.279 379.713H487.271Z" stroke="#2D3849" stroke-width="2.39377" stroke-linecap="round" stroke-linejoin="round"/>
<path d="M397.041 314.268L382.264 410.05" stroke="#2D3849" stroke-width="2.39377" stroke-linecap="round" stroke-linejoin="round"/>
<path d="M379.495 394.156C362.898 398.848 346.301 403.531 329.704 408.223C329.537 409.747 329.537 412.101 330.909 414.128C331.699 415.301 332.585 416.115 333.056 416.194C348.727 418.764 364.406 421.333 380.077 423.902C380.46 423.966 380.859 423.942 381.234 423.831C415.106 413.992 448.978 404.154 482.85 394.315C484.318 393.892 484.725 392.089 484.725 392.089C486.696 388.858 486.329 385.099 485.794 382.634" stroke="#2D3849" stroke-width="2.39377" stroke-linecap="round" stroke-linejoin="round"/>
<path d="M333.23 409.212C348.415 411.039 363.607 412.866 378.8 414.694" stroke="#2D3849" stroke-width="2.39377" stroke-linecap="round" stroke-linejoin="round"/>
<path d="M512.285 101.613C513.275 102.036 514.041 102.627 514.176 102.73C516.937 104.901 517.735 108.611 517.942 114.763C518.118 119.718 517.926 126.772 516.227 135.326" stroke="#2D3849" stroke-width="2.39377" stroke-linecap="round" stroke-linejoin="round"/>
<path d="M518.254 137.535C518.724 137.48 519.371 137.496 519.977 137.823C521.725 138.78 522.299 141.964 521.118 150.733C520.536 155.002 519.498 160.883 517.504 167.841C518.118 169.293 521.653 177.958 517.368 185.539C515.182 189.385 511.846 191.435 509.373 192.959C505.71 195.209 501.409 197.946 496.917 196.981C488.132 195.098 484.845 182.076 483.855 178.142C482.004 170.777 483.089 165.136 483.376 163.787C484.414 158.872 486.448 155.616 487.693 153.494C495.329 140.464 502.933 119.199 505.599 109.528" stroke="#2D3849" stroke-width="2.39377" stroke-linecap="round" stroke-linejoin="round"/>
<path d="M508.082 148.986C508.552 149.536 511.576 147.725 512.382 147.198C513.859 146.233 516.97 143.648 518.566 136.754C517.242 135.948 515.925 135.142 514.601 134.336C511.162 141.613 508.696 146.975 508.122 148.355C508.066 148.491 507.93 148.818 508.074 148.986H508.082Z" stroke="#2D3849" stroke-width="2.39377" stroke-linecap="round" stroke-linejoin="round"/>
<path d="M511.153 141.709C507.466 149.888 503.788 158.066 500.102 166.245" stroke="#2D3849" stroke-width="2.39377" stroke-linecap="round" stroke-linejoin="round"/>
<path d="M512.286 101.612C512.063 104.565 511.121 108.076 508.384 110.717C507.602 111.467 506.517 112.297 505.033 112.983C505.225 111.834 505.416 110.677 505.6 109.528C505.608 109.52 505.608 109.512 505.608 109.504C506.382 104.796 507.156 100.096 507.93 95.3887C509.286 95.5802 510.635 95.7717 511.991 95.9632C512.103 96.5377 512.502 98.8277 512.278 101.62L512.286 101.612Z" stroke="#2D3849" stroke-width="2.39377" stroke-linecap="round" stroke-linejoin="round"/>
<path d="M505.727 153.765C507.41 153.574 510.347 153.454 513.738 154.547C516.467 155.425 518.453 156.75 519.674 157.715" stroke="#2D3849" stroke-width="2.39377" stroke-linecap="round" stroke-linejoin="round"/>
<path d="M504.178 158.321C505.861 158.13 508.798 158.01 512.189 159.103C514.918 159.981 516.905 161.305 518.125 162.271" stroke="#2D3849" stroke-width="2.39377" stroke-linecap="round" stroke-linejoin="round"/>
<path d="M434.368 345.538C434.831 339.011 438.877 331.423 442.747 331.655C446.465 331.878 449.497 339.283 449.409 345.315C449.306 352.688 444.518 360.739 440.592 360.388C436.842 360.053 433.914 352.058 434.376 345.538H434.368Z" fill="#FFACD0"/>
<path d="M440.545 345.594C440.952 339.865 444.495 333.21 447.894 333.41C451.157 333.601 453.814 340.104 453.735 345.394C453.639 351.858 449.442 358.919 445.995 358.616C442.707 358.321 440.138 351.307 440.537 345.586L440.545 345.594Z" stroke="#2D3849" stroke-width="2.39377" stroke-linecap="round" stroke-linejoin="round"/>
<path d="M364.557 379.713C364.31 382.051 364.198 386.312 366.097 391.043C367.127 393.605 368.451 395.568 369.568 396.964" stroke="#2D3849" stroke-width="2.39377" stroke-linecap="round" stroke-linejoin="round"/>
<path d="M291.914 243.037C287.964 243.077 282.618 242.662 276.634 240.763C265.463 237.22 258.314 230.494 254.898 226.775C255.704 229.744 259.542 242.574 272.461 250.298C281.214 255.533 289.744 255.796 293.502 255.676C292.975 251.463 292.441 247.242 291.914 243.029V243.037Z" fill="#2D3849"/>
</g>
<defs>
<clipPath id="clip0_11955_34629">
<rect width="1276" height="622.708" fill="white" transform="translate(0.574219 0.851562)"/>
</clipPath>
</defs>
</svg>
