<svg width="150" height="48" viewBox="0 0 150 48" fill="none" xmlns="http://www.w3.org/2000/svg">
<path d="M54.0004 0.922852H57.9318C58.4395 0.922852 58.8482 1.33421 58.8482 1.8393V37.4531C58.8482 37.9608 58.4369 38.3695 57.9318 38.3695H54.0004C53.4927 38.3695 53.084 37.9582 53.084 37.4531V1.8419C53.084 1.33421 53.4953 0.925455 54.0004 0.925455V0.922852Z" fill="#2D3849"/>
<path d="M69.9284 37.0234C67.8299 35.8414 66.1897 34.2038 65.0103 32.1027C63.8283 30.0043 63.2373 27.6324 63.2373 24.9873C63.2373 22.3421 63.8257 19.9806 65.0103 17.9004C66.1923 15.8202 67.8221 14.1982 69.9024 13.0344C71.9826 11.8706 74.3466 11.29 76.9892 11.29C79.6318 11.29 81.9958 11.8706 84.076 13.0344C86.1562 14.1982 87.7861 15.8202 88.9681 17.9004C90.1501 19.9806 90.7411 22.3421 90.7411 24.9873C90.7411 27.6324 90.1501 30.0043 88.9681 32.1027C87.7861 34.2012 86.1458 35.8414 84.05 37.0234C81.9515 38.2054 79.5979 38.7938 76.9892 38.7938C74.3804 38.7938 72.0242 38.2054 69.9284 37.0234ZM81.0637 32.712C82.2614 31.9699 83.196 30.9311 83.8677 29.5903C84.5368 28.2495 84.8727 26.7342 84.8727 25.0419C84.8727 23.3496 84.5368 21.7901 83.8677 20.4675C83.1986 19.1449 82.264 18.1139 81.0637 17.3719C79.8661 16.6325 78.5071 16.2602 76.9918 16.2602C75.4765 16.2602 74.1175 16.6299 72.9199 17.3719C71.7196 18.1139 70.785 19.1449 70.1159 20.4675C69.4467 21.7901 69.1109 23.3158 69.1109 25.0419C69.1109 26.7681 69.4467 28.2521 70.1159 29.5903C70.785 30.9311 71.7196 31.9699 72.9199 32.712C74.1175 33.454 75.4765 33.8237 76.9918 33.8237C78.5071 33.8237 79.8661 33.454 81.0637 32.712Z" fill="#2D3849"/>
<path d="M104.414 37.63C102.844 36.8541 101.691 35.8492 100.949 34.6151V37.4529C100.949 37.9606 100.538 38.3694 100.033 38.3694H96.0493C95.5416 38.3694 95.1328 37.958 95.1328 37.4529V1.84174C95.1328 1.33405 95.5442 0.925293 96.0493 0.925293H100.033C100.54 0.925293 100.949 1.33665 100.949 1.84174V15.4166C101.689 14.1825 102.844 13.188 104.414 12.4277C105.982 11.6701 107.684 11.29 109.517 11.29C112.126 11.29 114.428 11.8549 116.419 12.9823C118.411 14.1122 119.955 15.716 121.048 17.7962C122.142 19.8764 122.689 22.2925 122.689 25.0419C122.689 27.7912 122.142 30.2073 121.048 32.2875C119.955 34.3677 118.421 35.9715 116.448 37.1015C114.472 38.2314 112.163 38.7938 109.52 38.7938C107.684 38.7938 105.984 38.4058 104.417 37.63H104.414ZM112.931 32.7119C114.11 31.9699 115.045 30.9389 115.735 29.6189C116.422 28.2963 116.766 26.7706 116.766 25.0445C116.766 23.3183 116.422 21.8265 115.735 20.4701C115.047 19.1136 114.113 18.0722 112.931 17.3484C111.749 16.6246 110.4 16.2653 108.885 16.2653C107.369 16.2653 105.958 16.6272 104.758 17.3484C103.56 18.0722 102.626 19.1032 101.954 20.444C101.285 21.7848 100.949 23.3183 100.949 25.0445C100.949 26.7706 101.282 28.2442 101.954 29.5668C102.623 30.8894 103.558 31.9308 104.758 32.6885C105.956 33.4461 107.333 33.8262 108.885 33.8262C110.436 33.8262 111.749 33.4565 112.931 32.7145V32.7119Z" fill="#2D3849"/>
<path d="M124.673 11.714H128.985C129.365 11.714 129.706 11.9483 129.841 12.305L137.444 32.3419L134.692 40.4337L123.817 12.9663C123.577 12.3649 124.022 11.7114 124.668 11.7114L124.673 11.714ZM135.806 33.0813L143.674 12.305C143.809 11.9483 144.15 11.714 144.53 11.714H148.631C149.279 11.714 149.722 12.3649 149.485 12.9689L135.876 47.419C135.738 47.7678 135.4 47.9995 135.022 47.9995H130.989C130.336 47.9995 129.891 47.3356 130.143 46.7316L135.806 33.0839V33.0813Z" fill="#2D3849"/>
<path d="M30.3963 38.5232H6.31879C2.83525 38.5232 0 35.6879 0 32.2044V15.2372C0 13.2819 0.926859 11.4047 2.48117 10.2175L14.1346 1.30822C16.3632 -0.397095 19.3938 -0.438752 21.6719 1.20408L34.0959 10.1785C35.7362 11.3631 36.7151 13.2767 36.7151 15.2996V32.2044C36.7151 35.6879 33.8798 38.5232 30.3963 38.5232ZM5.61062 32.6132C5.75122 32.8579 6.01678 33.0219 6.31618 33.0219H30.3963C30.6645 33.0219 30.9014 32.8917 31.0524 32.6913C29.7923 30.8063 25.8219 26.0366 17.9123 26.0366C10.0028 26.0366 6.57914 30.874 5.61323 32.6132H5.61062ZM17.9123 20.5354C23.9161 20.5354 28.2536 22.626 31.2138 24.9353V15.2996C31.2138 15.0393 31.0889 14.7919 30.8754 14.6383L18.4513 5.66394C18.1571 5.45045 17.7665 5.45566 17.4776 5.67696L5.82151 14.5889C5.62104 14.7425 5.50128 14.9846 5.50128 15.2372V24.5136C8.26363 22.3682 12.2731 20.5327 17.9097 20.5327L17.9123 20.5354Z" fill="#9379EC"/>
</svg>
