<svg width="1423" height="882" viewBox="0 0 1423 882" fill="none" xmlns="http://www.w3.org/2000/svg">
<path d="M95.2801 135.619C234 -180.312 1301 134.209 1388.25 295.199C1475.5 456.189 1379.5 630.886 1282.25 724.23C1184.99 817.574 387.908 977.26 119.383 724.23C-24.3024 588.836 -43.4403 451.55 95.2801 135.619Z" fill="#F8FF9A"/>
<path d="M116.84 153.592C150.129 76.1982 239.508 36.5976 358.433 24.1204C477.091 11.6711 623.687 26.4179 768.953 56.2083C914.176 85.9902 1057.8 130.75 1170.43 178.148C1226.75 201.849 1275.23 226.174 1312.26 249.565C1349.46 273.065 1374.52 295.271 1384.75 314.54C1427.15 394.405 1425.09 477.723 1400.44 552.914C1375.78 628.17 1328.53 695.099 1280.94 741.722C1269.54 752.896 1247.38 765.448 1216.26 778.311C1185.28 791.117 1145.85 804.058 1100.3 816.18C1009.22 840.424 893.924 861.329 773.348 871.357C652.757 881.387 527.031 880.525 415.032 861.317C302.964 842.097 205.088 804.587 139.708 741.697C69.3466 674.015 29.8586 606.275 24.6035 516.219C19.3295 425.84 48.4928 312.49 116.84 153.592Z" stroke="#2D3849" stroke-width="8"/>
</svg>
