<svg width="327" height="369" viewBox="0 0 327 369" fill="none" xmlns="http://www.w3.org/2000/svg">
<path d="M2.14844 62.0557C11.536 62.0557 20.8021 58.3635 30.0098 56.7386C41.7247 54.6713 53.8525 52.7978 65.315 49.6138C83.9024 44.4506 104.966 49.4397 123.802 45.2538C133.193 43.1671 143.34 45.1258 152.94 43.3397C162.947 41.4779 175.053 42.2205 185.055 43.0206C204.966 44.6135 223.291 49.7045 241.841 55.8879C271.831 65.8846 288.073 98.8917 294.586 128.2C297.306 140.442 297.847 163.378 289.269 173.182C275.717 188.669 255.712 194.131 235.567 194.131C209.539 194.131 189.179 190.511 165.275 180.732C146.374 173 128.276 154.719 107.532 152.126C90.1208 149.95 75.7447 153.687 59.9979 160.102C50.2011 164.093 43.723 179.152 40.0058 187.963C34.1143 201.928 32.7746 214.716 32.7746 229.543C32.7746 278.006 90.8739 276.439 125.717 276.439C149.799 276.439 175.438 274.119 198.879 280.267C215.881 284.727 231.534 288.437 246.307 298.664C260.766 308.674 275.87 328.697 275.87 347.262" stroke="#2D3849" stroke-width="3" stroke-linecap="round"/>
<path d="M96.0229 90.8925C118.832 90.8925 137.323 72.4018 137.323 49.5923C137.323 26.7828 118.832 8.29199 96.0229 8.29199C73.2134 8.29199 54.7227 26.7828 54.7227 49.5923C54.7227 72.4018 73.2134 90.8925 96.0229 90.8925Z" fill="white"/>
<path d="M100.183 17.4567C91.7951 16.6848 83.3813 16.1959 74.9504 16.0415C70.0959 15.9558 61.948 14.1975 59.0319 19.4551C57.7625 21.7451 58.0712 24.9099 57.9426 27.4058C57.711 31.8743 57.4966 36.3513 57.3165 40.8284C56.982 48.9421 56.7333 57.0471 56.5703 65.1693C56.4846 69.2433 56.1586 73.4288 56.4159 77.5027C56.5532 79.7413 57.2221 81.7997 59.0147 83.2492C63.569 86.9286 71.7255 85.5392 77.0602 85.5649C85.3283 85.6078 93.5877 85.5906 101.856 85.5049C106.127 85.462 110.407 85.4019 114.678 85.3248C117.14 85.2819 120.159 85.7279 122.226 84.0554C124.721 82.0313 125.167 77.9058 125.596 74.9726C126.179 70.9672 126.248 66.9104 126.402 62.8707C126.763 53.6679 127.123 44.465 127.483 35.2621C127.569 33.0579 124.138 33.0579 124.052 35.2621C123.735 43.3843 123.418 51.5065 123.1 59.6287C122.955 63.3167 122.895 67.0305 122.62 70.7099C122.449 72.9656 122.423 75.6416 121.591 77.7858C120.476 80.6418 118.34 81.4824 115.544 81.8769C111.153 82.503 106.307 82.0313 101.864 82.0742C97.8761 82.117 93.8879 82.1428 89.8997 82.1513C81.9747 82.1685 73.8268 82.6402 65.9362 81.9884C62.7971 81.7225 60.7215 81.2508 59.8638 77.5027C59.4264 75.5815 59.8895 73.0171 59.9153 71.0444C59.9753 67.1248 60.0525 63.2052 60.1554 59.2942C60.3612 51.1806 60.6529 43.067 61.0217 34.9619C61.116 33.0064 61.2103 31.0509 61.3047 29.0954C61.399 27.1399 61.0045 23.6406 61.785 21.7708C63.3631 18.0228 71.897 19.4294 74.9675 19.4808C83.3899 19.6352 91.8037 20.1326 100.2 20.896C102.396 21.0932 102.387 17.6625 100.2 17.4653L100.183 17.4567Z" fill="#2D3849"/>
<path d="M86.4522 53.7187C94.36 42.809 102.508 32.0709 110.536 21.2555C114.198 16.3325 117.637 9.83128 122.277 5.80019C126.917 1.76911 130.674 6.24618 128.804 11.032C127.621 14.0596 124.902 17.1644 123.101 19.8404C116.231 30.0811 109.507 40.5276 102.311 50.5367C95.5607 59.9197 87.2069 68.7881 75.9542 72.4761L78.0641 74.586C79.4535 67.047 82.2153 60.1427 86.435 53.7358C87.6529 51.8832 84.6854 50.1679 83.4761 52.0033C79.119 58.6246 76.1944 65.8805 74.762 73.6768C74.539 74.8776 75.534 76.2241 76.8719 75.7867C98.1938 68.8052 109.146 46.1883 121.025 28.9575C124.799 23.4855 129.096 17.9878 132.184 12.087C133.676 9.23949 133.213 4.56514 130.631 2.37806C122.432 -4.56056 114.678 9.89132 110.939 14.9688C101.822 27.3451 92.4902 39.5498 83.4761 51.9947C82.181 53.7873 85.1571 55.5026 86.435 53.7272L86.4522 53.7187Z" fill="#2D3849"/>
<path d="M80.7315 63.9949C82.9615 63.8148 84.9341 66.2077 84.4967 68.4034C84.0593 70.599 80.1226 71.9628 77.9526 71.4139C78.1242 69.3897 79.9939 65.8818 80.7315 63.9949Z" fill="#2D3849"/>
<path d="M80.7311 65.7098C82.112 65.6926 83.5529 67.4251 82.4379 68.6087C81.5459 69.5608 79.659 70.0239 78.4068 69.758L79.6676 71.4133C79.9592 69.0033 81.4944 66.6704 82.3864 64.449C83.2012 62.3991 79.8906 61.5072 79.0758 63.5398C78.038 66.1386 76.5799 68.6002 76.2369 71.4133C76.1511 72.1081 76.8287 72.9314 77.4977 73.0687C80.4309 73.6862 84.5135 72.5283 85.8772 69.6208C87.481 66.1815 84.2905 62.2276 80.7311 62.2791C78.5269 62.3134 78.5183 65.7441 80.7311 65.7098Z" fill="#2D3849"/>
<path d="M111.805 18.1766C113.486 18.5196 115.107 20.0377 116.368 21.1184C117.723 22.2763 119.275 23.5628 120.21 25.1066C121.351 26.9935 124.327 25.2696 123.169 23.3741C122.011 21.4786 120.15 19.8319 118.435 18.3996C116.805 17.0359 114.858 15.3119 112.706 14.8659C110.553 14.4199 109.627 17.7306 111.796 18.1766H111.805Z" fill="#2D3849"/>
<path d="M86.3324 55.7602C89.2056 56.9524 91.4785 58.5819 92.602 61.5752C93.3654 63.6251 96.6846 62.7331 95.9127 60.6661C94.3174 56.412 91.3412 54.1477 87.2501 52.4495C85.2174 51.6004 84.3254 54.9197 86.341 55.7602H86.3324Z" fill="#2D3849"/>
<path d="M264.294 232.885C264.294 234.992 262.608 236.889 259.562 236.889C256.783 236.889 254.638 235.433 254.599 232.904H257.473C257.55 233.977 258.259 234.686 259.504 234.686C260.769 234.686 261.516 234.015 261.516 233.057C261.516 230.164 254.618 231.908 254.638 227.06C254.638 224.646 256.592 223.19 259.351 223.19C262.091 223.19 263.969 224.588 264.141 227.003H261.19C261.133 226.121 260.424 225.431 259.274 225.412C258.22 225.374 257.435 225.891 257.435 226.983C257.435 229.666 264.294 228.171 264.294 232.885ZM276.257 226.14V236.755H273.556V235.414C272.885 236.314 271.716 236.889 270.394 236.889C267.923 236.889 266.141 235.28 266.141 232.367V226.14H268.823V231.984C268.823 233.69 269.762 234.609 271.18 234.609C272.636 234.609 273.556 233.69 273.556 231.984V226.14H276.257ZM281.203 227.692C281.855 226.715 283.1 225.968 284.71 225.968C287.43 225.968 289.557 228.095 289.557 231.409C289.557 234.724 287.43 236.928 284.71 236.928C283.043 236.928 281.855 236.161 281.203 235.241V236.755H278.521V222.577H281.203V227.692ZM286.817 231.409C286.817 229.398 285.457 228.325 284.001 228.325C282.564 228.325 281.203 229.436 281.203 231.448C281.203 233.46 282.564 234.571 284.001 234.571C285.457 234.571 286.817 233.421 286.817 231.409ZM291.123 236.755V222.577H293.805V236.755H291.123ZM300.633 228.171C299.349 228.171 298.333 228.995 298.123 230.451H303.162C303.123 229.053 302.012 228.171 300.633 228.171ZM305.672 233.421C305.097 235.376 303.334 236.928 300.709 236.928C297.624 236.928 295.383 234.782 295.383 231.448C295.383 228.095 297.567 225.968 300.709 225.968C303.775 225.968 305.94 228.056 305.94 231.218C305.94 231.563 305.921 231.908 305.863 232.252H298.103C298.238 233.824 299.311 234.705 300.652 234.705C301.801 234.705 302.434 234.13 302.779 233.421H305.672ZM307.936 233.46V228.344H306.672V226.14H307.936V223.515H310.638V226.14H313.014V228.344H310.638V233.479C310.638 234.188 310.925 234.494 311.768 234.494H313.014V236.755H311.328C309.297 236.755 307.936 235.893 307.936 233.46Z" fill="#2D3849"/>
<path d="M274.841 181.724C298.171 181.724 317.085 162.811 317.085 139.48C317.085 116.149 298.171 97.2362 274.841 97.2362C251.51 97.2362 232.597 116.149 232.597 139.48C232.597 162.811 251.51 181.724 274.841 181.724Z" fill="white"/>
<path d="M238.716 128.422C245.838 115.508 255.28 99.9172 271.327 97.6147C280.849 96.2492 286.347 101.247 291.532 108.556C296.065 114.946 299.823 121.818 302.919 129.011L303.99 126.387C281.67 129.966 259.109 124.879 236.717 127.253C234.459 127.494 234.432 131.064 236.717 130.823C259.448 128.413 282.277 133.465 304.945 129.832C306.204 129.627 306.418 128.146 306.016 127.208C302.268 118.498 297.52 110.296 291.692 102.809C286.623 96.3295 280.055 93.0364 271.737 93.9645C254.058 95.9547 243.446 112.447 235.637 126.619C234.531 128.636 237.61 130.439 238.716 128.422Z" fill="#2D3849"/>
<path d="M247.231 100.899V108.476C247.231 110.77 250.801 110.779 250.801 108.476V100.899C250.801 98.6057 247.231 98.5968 247.231 100.899Z" fill="#2D3849"/>
<path d="M241.653 130.381C241.921 145.24 241.733 157.918 242.456 172.76C242.635 176.446 243.67 179.623 247.757 180.239C250.97 180.729 254.549 180.185 257.779 180.087C261.519 179.971 265.267 179.864 269.007 179.748C276.494 179.525 283.982 179.346 291.47 179.069C295.923 178.909 298.547 177.963 299.1 173.126C299.921 165.995 299.332 158.391 299.368 151.216C299.404 144.041 299.377 138.467 299.323 130.943C299.305 128.65 295.736 128.641 295.753 130.943C295.852 142.51 295.834 151.787 295.709 163.353C295.682 166.093 296.137 169.342 295.584 172.028C295.031 174.714 294.156 175.098 291.47 175.491C290.363 175.651 289.14 175.562 288.016 175.598C281.965 175.776 275.923 175.964 269.872 176.142C263.821 176.321 258.351 176.49 252.594 176.66C251.657 176.687 249.73 177.097 248.882 176.749C246.954 175.955 246.062 173.733 246.017 171.885C245.946 169.02 245.91 166.156 245.865 163.3C245.651 151.564 245.446 142.108 245.232 130.363C245.187 128.07 241.617 128.061 241.662 130.363L241.653 130.381Z" fill="#2D3849"/>
<path d="M262.018 148.515C264.749 148.684 267.453 148.666 270.175 148.443C272.183 148.274 276.306 147.006 278.046 147.926C280.777 149.371 279.26 171.532 279.001 174.656C278.858 176.405 279.207 176.101 277.877 176.744C276.833 177.253 274.789 176.887 273.566 176.949C271.407 177.047 265.766 178.279 264.32 176.119C263.035 174.209 263.624 168.382 263.562 166.097C263.473 162.938 263.749 150.514 263.892 147.355C263.999 145.061 260.429 145.061 260.322 147.355C260.09 152.522 259.894 166.954 260.322 172.112C260.519 174.54 260.145 176.438 262.234 178.161C264.777 180.258 269.605 179.053 272.488 178.91C274.978 178.794 279.405 179.606 281.323 177.554C283.349 175.385 282.634 172.38 282.669 169.712C282.723 165.553 283.482 151.424 282.384 147.355C281.741 144.972 280.572 143.678 278.064 143.82C272.629 144.133 267.533 145.293 262.027 144.954C259.733 144.811 259.742 148.381 262.027 148.524L262.018 148.515Z" fill="#2D3849"/>
<path d="M107.028 349.1V351.285H101.951V354.638H106.453V356.764H101.951V360.309H107.028V362.493H99.2681V349.1H107.028ZM108.393 357.148C108.393 353.833 110.539 351.706 113.24 351.706C114.945 351.706 116.114 352.511 116.746 353.392V351.879H119.448V362.493H116.746V360.941C116.114 361.861 114.907 362.666 113.221 362.666C110.539 362.666 108.393 360.462 108.393 357.148ZM116.746 357.186C116.746 355.174 115.405 354.063 113.93 354.063C112.493 354.063 111.133 355.136 111.133 357.148C111.133 359.159 112.493 360.309 113.93 360.309C115.405 360.309 116.746 359.198 116.746 357.186ZM124.367 357.205V362.493H121.685V351.879H124.367V353.526C125.038 352.434 126.149 351.725 127.624 351.725V354.542H126.915C125.325 354.542 124.367 355.155 124.367 357.205ZM136.482 362.493V356.63C136.482 354.925 135.543 354.005 134.125 354.005C132.669 354.005 131.73 354.925 131.73 356.63V362.493H129.048V351.879H131.73V353.201C132.42 352.3 133.57 351.725 134.93 351.725C137.402 351.725 139.164 353.335 139.164 356.266V362.493H136.482Z" fill="#2D3849"/>
<path d="M130.31 302.925C153.64 302.925 172.553 284.012 172.553 260.681C172.553 237.351 153.64 218.438 130.31 218.438C106.979 218.438 88.0659 237.351 88.0659 260.681C88.0659 284.012 106.979 302.925 130.31 302.925Z" fill="white"/>
<path d="M93.7551 230.606C99.3984 230.685 104.648 231.157 106.513 237.32C108.528 243.963 105.97 248.897 103.074 254.698C98.997 262.884 96.1478 272.769 97.0923 281.994C97.8243 289.069 102.13 296.57 109.772 297.664C111.732 297.947 113.605 297.601 115.533 297.278C118.729 296.743 121.295 296.971 124.498 297.475C129.283 298.215 134.029 298.553 138.846 297.821C146.992 296.586 154.792 292.155 158.806 284.764C162.875 277.279 161.435 268.771 157.366 261.609C155.225 257.838 152.549 254.564 148.944 252.117C144.796 249.299 140.578 246.835 137.201 243.042C133.628 239.028 131.188 233.888 131.29 228.434C131.345 225.742 132.054 223.381 133.25 220.996C134.132 219.233 135.399 217.596 134.864 215.486C134.045 212.165 130.063 211.173 127.135 211.756C121.924 212.795 119.138 217.667 114.526 219.768C111.008 221.366 107.985 220.744 104.436 219.752C102.68 219.264 100.988 218.863 99.178 219.351C95.3844 220.374 93.3537 224.286 91.8977 227.584C91.087 229.418 93.8024 231.023 94.613 229.174C96.5728 224.719 98.7215 221.279 104.16 222.979C107.789 224.113 111.346 224.404 114.967 223.027C118.587 221.649 120.799 218.831 123.845 216.699C125.986 215.195 132.668 212.708 130.842 218.887C130.283 220.791 129.063 222.334 128.622 224.341C127.135 231.047 129.307 237.997 133.415 243.349C135.517 246.088 138.043 248.441 140.806 250.511C144.891 253.565 149.409 255.627 152.51 259.853C158.176 267.59 160.585 277.775 154.296 285.874C148.322 293.571 138.319 295.775 129.016 294.925C125.065 294.563 121.232 293.28 117.241 293.792C111.936 294.469 107.781 295.287 103.822 290.832C97.5488 283.772 100.123 271.707 102.759 263.663C104.333 258.862 106.978 254.761 108.938 250.165C110.646 246.166 110.646 241.963 109.811 237.745C108.158 229.355 101.429 227.568 93.7473 227.458C91.7245 227.426 91.7166 230.575 93.7473 230.606H93.7551Z" fill="#2D3849"/>
<path d="M109.002 238.297C113.551 239.564 118.305 237.643 122.634 235.762C129.568 232.748 137.084 229.174 140.185 222.28C142.247 224.625 143.444 227.718 143.491 230.843C139.422 231.811 135.187 232.858 132.008 235.573C130.756 236.644 129.709 237.927 128.537 239.084C124.436 243.106 118.667 245.38 112.929 245.223C112.166 245.199 111.371 245.128 110.702 244.758C108.773 243.672 108.923 240.886 109.332 238.714" fill="#2D3849"/>
<path d="M108.584 239.815C115.463 241.255 122.09 237.942 128.134 234.967C133.652 232.251 138.76 228.717 141.546 223.074L139.075 223.389C140.846 225.593 141.751 228.033 141.916 230.842L143.073 229.323C136.997 230.787 132.668 232.645 128.284 237.084C125.828 239.571 123.105 241.507 119.768 242.617C118.076 243.176 115.943 243.845 114.156 243.64C111.008 243.286 110.37 242.066 110.85 239.122C111.173 237.139 108.135 236.289 107.812 238.288C107.387 240.933 107.136 244.112 109.583 245.868C112.283 247.796 117.1 246.702 120.02 245.836C123.853 244.687 127.261 242.586 130.078 239.76C134.203 235.612 138.248 233.731 143.907 232.369C144.545 232.22 145.104 231.519 145.064 230.85C144.844 227.128 143.632 224.074 141.302 221.169C140.688 220.406 139.248 220.642 138.831 221.484C136.446 226.309 132.274 229.316 127.591 231.724C122.208 234.494 115.62 238.076 109.426 236.777C107.45 236.36 106.6 239.398 108.592 239.815H108.584Z" fill="#2D3849"/>
<path d="M133.84 235.163C137.626 238.335 143.104 239.351 147.779 237.745C147.984 238.138 147.937 238.619 147.882 239.059C147.708 240.46 147.464 241.979 146.426 242.94C145.985 243.341 145.434 243.609 144.859 243.79C142.608 244.498 140.09 243.884 138.138 242.562C136.186 241.239 134.738 239.288 133.604 237.225" fill="#2D3849"/>
<path d="M132.722 236.274C137.185 239.768 142.734 240.941 148.188 239.264L146.252 238.163C147.236 242.381 142.451 243.16 139.68 241.657C137.547 240.5 136.13 238.485 134.958 236.423C133.95 234.668 131.227 236.25 132.242 238.013C134.541 242.027 138.145 245.774 143.135 245.648C147.519 245.537 150.282 241.547 149.29 237.32C149.101 236.51 148.141 235.975 147.354 236.219C143.057 237.541 138.523 236.84 134.95 234.038C133.376 232.803 131.133 235.014 132.722 236.266V236.274Z" fill="#2D3849"/>
<path d="M131.377 255.965C126.836 254.966 121.602 254.666 117.95 258.106C115.573 260.341 114.007 264.45 116.627 267.086C120.327 270.801 126.922 269.101 131.338 271.423C136.414 274.099 135.147 280.057 129.811 281.427C126.497 282.277 121.846 282.245 119.587 279.302C118.367 277.72 115.636 279.286 116.871 280.891C121.987 287.558 137.988 286.369 137.847 276.098C137.776 271.226 133.612 268.456 129.323 267.401C127.017 266.827 118.918 267 118.391 263.718C117.997 261.286 121.279 259.287 123.129 258.743C125.569 258.027 128.119 258.468 130.535 259.003C132.51 259.436 133.353 256.406 131.369 255.965H131.377Z" fill="#2D3849"/>
<path d="M120.21 250.597C122.484 262.828 125.145 275.075 125.656 287.542C125.743 289.557 128.891 289.573 128.804 287.542C128.277 274.8 125.57 262.27 123.24 249.763C122.87 247.772 119.832 248.614 120.202 250.597H120.21Z" fill="#2D3849"/>
<path d="M117.658 237.627C117.233 235.589 116.635 233.613 115.856 231.685C115.533 230.89 114.809 230.355 113.919 230.583C113.172 230.78 112.503 231.732 112.818 232.519C113.597 234.447 114.195 236.423 114.62 238.461C115.045 240.5 118.067 239.603 117.658 237.627Z" fill="#2D3849"/>
<path d="M123.467 235.872L122.814 230.929C122.704 230.087 122.169 229.355 121.24 229.355C120.476 229.355 119.556 230.079 119.666 230.929L120.319 235.872C120.429 236.714 120.964 237.446 121.893 237.446C122.657 237.446 123.577 236.722 123.467 235.872Z" fill="#2D3849"/>
<path d="M66.9353 106.026H69.6177V117.273H74.0246V119.399H66.9353V106.026ZM75.3463 119.399V108.785H78.0287V119.399H75.3463ZM76.7067 107.52C75.7487 107.52 75.0589 106.83 75.0589 105.949C75.0589 105.068 75.7487 104.378 76.7067 104.378C77.6455 104.378 78.3545 105.068 78.3545 105.949C78.3545 106.83 77.6455 107.52 76.7067 107.52ZM88.5346 116.372C88.5346 118.192 86.9443 119.572 84.3577 119.572C81.6945 119.572 79.8359 118.02 79.721 116.046H82.4225C82.5183 116.851 83.2656 117.464 84.3386 117.464C85.3924 117.464 85.9672 116.985 85.9672 116.372C85.9672 114.475 79.97 115.682 79.97 111.793C79.97 110.03 81.5412 108.612 84.1661 108.612C86.7336 108.612 88.2855 110.011 88.4388 112.119H85.8714C85.7947 111.295 85.1433 110.739 84.0895 110.739C83.0931 110.739 82.5758 111.141 82.5758 111.755C82.5758 113.69 88.458 112.483 88.5346 116.372ZM90.7749 116.104V110.988H89.5103V108.785H90.7749V106.16H93.4764V108.785H95.8523V110.988H93.4764V116.123C93.4764 116.832 93.7638 117.139 94.6069 117.139H95.8523V119.399H94.1662C92.1352 119.399 90.7749 118.537 90.7749 116.104Z" fill="#2D3849"/>
</svg>
