<svg width="205" height="102" viewBox="0 0 205 102" fill="none" xmlns="http://www.w3.org/2000/svg">
<rect x="0.3125" y="38.7891" width="195.3" height="64.0008" rx="32.0004" transform="rotate(-11.2838 0.3125 38.7891)" fill="#F28FBD"/>
<path d="M50.2644 60.4301C50.0333 59.1883 50.12 57.9083 50.5164 56.7091C50.9129 55.5099 51.6062 54.4304 52.532 53.5712C51.6706 52.7476 50.6291 52.1362 49.4902 51.7855C48.3512 51.4349 47.1462 51.3546 45.9708 51.5511C43.4268 51.7868 41.3608 54.0213 40.091 54.2747C38.7967 54.533 36.5494 53.4579 34.4528 53.9213C33.0998 54.237 31.8517 54.8978 30.8301 55.8392C29.8085 56.7807 29.0481 57.9707 28.6232 59.2934C26.7447 64.8347 30.3423 71.7098 33.8927 75.1776C35.6605 76.8698 37.7063 78.7459 39.7941 78.2483C41.8353 77.7523 42.3591 76.3718 44.8436 75.8761C47.305 75.385 48.2881 76.5535 50.4242 76.0758C52.6256 75.5993 53.6301 73.3821 54.5612 71.132C55.2698 69.5336 55.7212 67.8331 55.8987 66.0936C54.5073 65.8069 53.2311 65.117 52.2291 64.1098C51.2272 63.1027 50.5439 61.8229 50.2644 60.4301Z" fill="white"/>
<path d="M43.8139 49.2346C44.7296 47.5487 44.9522 45.5722 44.4342 43.7249C42.633 44.2852 41.109 45.5036 40.1659 47.1373C39.7047 47.9354 39.4053 48.8167 39.2848 49.7307C39.1644 50.6446 39.2253 51.5733 39.464 52.4638C40.3861 52.2896 41.2567 51.9085 42.0101 51.3492C42.7636 50.7898 43.3803 50.0668 43.8139 49.2346Z" fill="white"/>
<path d="M78.302 65.3881L71.2782 66.7895L70.5852 72.1066L67.6102 72.7002L70.5864 52.946L73.6773 52.3293L84.0068 69.4287L80.981 70.0324L78.302 65.3881ZM71.5471 64.3461L77.1146 63.2353L72.7572 55.6998L72.6804 55.7151L71.5471 64.3461Z" fill="white"/>
<path d="M97.0338 59.8456C97.8667 64.0205 96.1674 67.1486 92.7954 67.8214C91.9501 68.0365 91.0613 68.0092 90.2308 67.7427C89.4003 67.4762 88.6616 66.9811 88.0994 66.3143L88.0356 66.327L89.3633 72.9813L86.6056 73.5315L83.0383 55.6526L85.7076 55.12L86.1534 57.3545L86.2042 57.3444C86.4871 56.5126 86.9903 55.7732 87.6601 55.2046C88.3299 54.6361 89.1413 54.2598 90.008 54.1158C93.4177 53.4355 96.2031 55.6823 97.0338 59.8456ZM94.1993 60.4111C93.6566 57.6912 91.8942 56.1834 89.7495 56.6114C87.6425 57.0318 86.5896 59.1404 87.1248 61.8227C87.6649 64.5296 89.4438 66.0597 91.5508 65.6393C93.6955 65.2113 94.7469 63.1557 94.1993 60.4111Z" fill="white"/>
<path d="M111.817 56.8954C112.65 61.0702 110.951 64.1984 107.579 64.8712C106.733 65.0863 105.845 65.059 105.014 64.7925C104.183 64.526 103.445 64.0309 102.883 63.3641L102.819 63.3768L104.146 70.0311L101.389 70.5813L97.8215 52.7024L100.491 52.1698L100.937 54.4043L100.987 54.3942C101.27 53.5624 101.773 52.823 102.443 52.2544C103.113 51.6859 103.924 51.3096 104.791 51.1656C108.201 50.4852 110.986 52.7321 111.817 56.8954ZM108.983 57.4609C108.44 54.741 106.677 53.2332 104.533 53.6612C102.426 54.0816 101.373 56.1902 101.908 58.8725C102.448 61.5794 104.227 63.1094 106.334 62.689C108.479 62.2611 109.53 60.2055 108.983 57.4609L108.983 57.4609Z" fill="white"/>
<path d="M121.908 56.5276C122.476 58.3142 124.491 59.1597 126.917 58.6757C129.241 58.212 130.674 56.6785 130.345 55.0308C130.06 53.6006 128.88 52.9454 126.375 52.835L123.872 52.7362C120.326 52.594 118.439 51.325 117.927 48.7572C117.292 45.5779 119.627 42.8413 123.562 42.0563C127.455 41.2794 130.56 42.9306 131.284 46.092L128.501 46.6474C127.967 44.8418 126.226 44.0351 124.004 44.4783C121.783 44.9215 120.487 46.3479 120.813 47.9825C121.073 49.2852 122.197 49.8581 124.689 49.971L126.818 50.0644C130.777 50.2042 132.651 51.4095 133.189 54.1047C133.877 57.5521 131.562 60.2592 127.194 61.1307C123.108 61.946 119.928 60.3881 119.085 57.0907L121.908 56.5276Z" fill="white"/>
<path d="M136.886 41.6026L137.521 44.7819L140.075 44.2722L140.511 46.456L137.956 46.9657L139.434 54.3721C139.664 55.5226 140.282 55.9567 141.405 55.7327C141.707 55.6669 142.006 55.5852 142.3 55.4879L142.733 57.6586C142.247 57.8537 141.742 57.9988 141.226 58.0918C138.506 58.6345 137.242 57.8245 136.722 55.219L135.186 47.5185L133.232 47.9083L132.796 45.7245L134.75 45.3348L134.115 42.1554L136.886 41.6026Z" fill="white"/>
<path d="M142.895 50.6952C142.051 46.4682 144.011 43.3153 147.893 42.5407C151.788 41.7635 154.796 43.9252 155.64 48.1523C156.485 52.3909 154.548 55.5273 150.64 56.3071C146.733 57.0866 143.741 54.9338 142.895 50.6952ZM152.83 48.7129C152.251 45.8133 150.581 44.367 148.347 44.8129C146.112 45.2587 145.129 47.248 145.705 50.1346C146.286 53.0458 147.952 54.4793 150.186 54.0335C152.421 53.5877 153.411 51.6242 152.83 48.713L152.83 48.7129Z" fill="white"/>
<path d="M156.571 40.9806L159.202 40.4558L159.658 42.7424L159.722 42.7297C159.757 41.98 160.05 41.2654 160.55 40.706C161.05 40.1465 161.728 39.7764 162.469 39.6577C162.786 39.5932 163.11 39.5645 163.434 39.5721L163.949 42.1515C163.523 42.1089 163.093 42.1362 162.677 42.2321C162.273 42.2957 161.887 42.4461 161.547 42.6727C161.207 42.8993 160.92 43.1969 160.705 43.5451C160.491 43.8932 160.354 44.2836 160.305 44.6894C160.256 45.0953 160.295 45.507 160.42 45.8963L162.01 53.8649L159.252 54.4151L156.571 40.9806Z" fill="white"/>
<path d="M178.049 46.5621C178.165 49.0749 176.123 51.2225 173.085 51.8288C169.176 52.6086 166.228 50.4741 165.39 46.2732C164.549 42.0592 166.443 38.8396 170.222 38.0855C173.939 37.3439 176.786 39.4308 177.599 43.5042L177.787 44.449L168.298 46.3423L168.332 46.5089C168.386 47.0121 168.548 47.4978 168.805 47.9339C169.062 48.3699 169.409 48.7463 169.822 49.038C170.236 49.3297 170.707 49.5301 171.204 49.6258C171.701 49.7215 172.213 49.7104 172.705 49.5932C173.369 49.5242 173.993 49.2428 174.484 48.7908C174.975 48.3388 175.307 47.7404 175.43 47.0845L178.049 46.5621ZM167.927 44.4124L174.643 43.0723C174.579 42.6228 174.423 42.1913 174.185 41.805C173.946 41.4187 173.63 41.0859 173.257 40.8275C172.884 40.5691 172.461 40.3906 172.015 40.3033C171.57 40.2159 171.111 40.2216 170.668 40.32C170.218 40.4069 169.79 40.582 169.409 40.8352C169.027 41.0884 168.699 41.4146 168.445 41.7951C168.19 42.1756 168.013 42.6027 167.924 43.052C167.835 43.5012 167.836 43.9636 167.927 44.4124L167.927 44.4124Z" fill="white"/>
<path d="M66.2099 39.3968C66.7798 39.24 67.3774 39.2116 67.9595 39.3136C68.5417 39.4157 69.094 39.6457 69.5765 39.9871C70.059 40.3284 70.4598 40.7726 70.7498 41.2876C71.0399 41.8025 71.2121 42.3755 71.2539 42.965C71.8183 45.7937 70.6139 47.7247 67.9765 48.2509L64.7784 48.889L63.0118 40.0349L66.2099 39.3968ZM65.9037 47.3625L67.5731 47.0294C67.9911 46.9717 68.391 46.8214 68.7437 46.5896C69.0964 46.3579 69.3929 46.0504 69.6118 45.6895C69.8306 45.3287 69.9662 44.9236 70.0088 44.5037C70.0513 44.0839 69.9997 43.6598 69.8576 43.2624C69.8322 42.8434 69.7145 42.4352 69.5128 42.0671C69.3111 41.699 69.0304 41.38 68.691 41.1331C68.3516 40.8862 67.9617 40.7174 67.5494 40.6388C67.137 40.5603 66.7124 40.5739 66.306 40.6787L64.6366 41.0118L65.9037 47.3625Z" fill="white"/>
<path d="M73.0289 43.7657C72.8993 43.335 72.8611 42.8819 72.9169 42.4356C72.9726 41.9892 73.121 41.5595 73.3526 41.1738C73.5841 40.7882 73.8937 40.4552 74.2615 40.1963C74.6293 39.9373 75.0471 39.7581 75.4882 39.6701C75.9293 39.5821 76.384 39.5872 76.823 39.6852C77.262 39.7832 77.6757 39.9718 78.0375 40.2391C78.3993 40.5063 78.7013 40.8462 78.924 41.237C79.1468 41.6277 79.2854 42.0608 79.331 42.5082C79.4615 42.9393 79.5004 43.3928 79.4452 43.8398C79.39 44.2867 79.2418 44.7171 79.0103 45.1034C78.7788 45.4897 78.4691 45.8233 78.101 46.0827C77.7328 46.3421 77.3145 46.5217 76.8729 46.6098C76.4313 46.6979 75.9761 46.6927 75.5366 46.5944C75.0971 46.4961 74.683 46.3069 74.321 46.0391C73.959 45.7712 73.657 45.4306 73.4345 45.0391C73.212 44.6475 73.0738 44.2138 73.0289 43.7657ZM77.9747 42.7789C77.6857 41.3305 76.866 40.6133 75.7242 40.8412C74.5779 41.0699 74.1021 42.0455 74.3911 43.4939C74.6824 44.9539 75.495 45.6657 76.6411 45.437C77.783 45.2091 78.2648 44.233 77.9747 42.7789L77.9747 42.7789Z" fill="white"/>
<path d="M88.3756 44.1805L87.0076 44.4534L84.6447 39.8078L84.5404 39.8287L84.1471 45.0242L82.7922 45.2945L79.6172 38.9802L80.9547 38.7134L83.169 43.5731L83.2675 43.5535L83.624 38.1808L84.889 37.9284L87.2801 42.7529L87.3844 42.732L87.5583 37.3958L88.8769 37.1327L88.3756 44.1805Z" fill="white"/>
<path d="M90.4235 36.824L91.6929 36.5708L91.9047 37.6322L92.0033 37.6126C92.0944 37.198 92.3126 36.8221 92.6274 36.5374C92.9422 36.2527 93.3381 36.0733 93.7597 36.0243C94.08 35.935 94.4162 35.9188 94.7435 35.9771C95.0708 36.0354 95.3808 36.1666 95.6505 36.3609C95.9203 36.5553 96.1428 36.8078 96.3017 37.0999C96.4606 37.3919 96.5517 37.716 96.5683 38.048L97.4314 42.3735L96.1127 42.6366L95.3157 38.6423C95.1015 37.5685 94.5283 37.1276 93.5531 37.3222C93.3303 37.3559 93.1174 37.4375 92.9291 37.5612C92.7408 37.6849 92.5814 37.8479 92.462 38.0389C92.3425 38.23 92.2658 38.4447 92.2371 38.6681C92.2083 38.8916 92.2282 39.1187 92.2955 39.3338L93.0754 43.2427L91.7567 43.5058L90.4235 36.824Z" fill="white"/>
<path d="M97.6797 32.6641L98.9984 32.401L100.852 41.6911L99.5333 41.9542L97.6797 32.6641Z" fill="white"/>
<path d="M102.023 37.9809C101.893 37.5501 101.855 37.0971 101.911 36.6507C101.967 36.2043 102.115 35.7745 102.347 35.3889C102.578 35.0033 102.888 34.6703 103.256 34.4113C103.624 34.1523 104.042 33.9731 104.483 33.8851C104.924 33.7971 105.379 33.8022 105.818 33.9002C106.257 33.9982 106.67 34.1868 107.032 34.4541C107.394 34.7213 107.696 35.0612 107.919 35.452C108.142 35.8428 108.28 36.2758 108.326 36.7233C108.456 37.1544 108.495 37.6079 108.44 38.0549C108.385 38.5018 108.236 38.9323 108.005 39.3186C107.773 39.7048 107.464 40.0384 107.095 40.2978C106.727 40.5572 106.309 40.7368 105.867 40.8249C105.426 40.913 104.971 40.9078 104.531 40.8095C104.092 40.7112 103.677 40.5221 103.315 40.2542C102.953 39.9864 102.651 39.6458 102.429 39.2543C102.206 38.8628 102.068 38.429 102.023 37.9809ZM106.969 36.9941C106.68 35.5457 105.86 34.8286 104.718 35.0564C103.572 35.2851 103.096 36.2607 103.385 37.7091C103.677 39.1691 104.489 39.8809 105.635 39.6522C106.777 39.4244 107.259 38.4483 106.969 36.9941L106.969 36.9941Z" fill="white"/>
<path d="M110.003 37.9006C109.763 36.6979 110.521 35.8258 112.091 35.4101L113.88 34.9446L113.765 34.3679C113.624 33.6622 113.078 33.3568 112.176 33.5366C111.44 33.6835 110.984 34.0555 110.932 34.5571L109.655 34.8119C109.561 33.6373 110.494 32.6857 112.01 32.3833C113.685 32.0491 114.796 32.6945 115.078 34.1059L115.988 38.6713L114.719 38.9246L114.532 37.9856L114.427 38.0064C114.283 38.3855 114.04 38.7194 113.724 38.9741C113.409 39.2287 113.031 39.395 112.63 39.4559C112.355 39.5411 112.065 39.5677 111.78 39.5341C111.494 39.5006 111.219 39.4075 110.971 39.261C110.724 39.1144 110.51 38.9177 110.343 38.6834C110.177 38.4491 110.061 38.1824 110.003 37.9006ZM114.185 36.4727L114.073 35.9141L112.462 36.344C111.554 36.5891 111.199 36.9854 111.317 37.5745C111.437 38.1758 112.028 38.4217 112.746 38.2786C112.96 38.2579 113.168 38.1943 113.358 38.0916C113.547 37.9889 113.714 37.8491 113.848 37.6806C113.982 37.5121 114.081 37.3184 114.139 37.1109C114.197 36.9033 114.212 36.6863 114.185 36.4727Z" fill="white"/>
<path d="M117.054 34.9818C116.632 32.8705 117.451 31.3164 119.139 30.9795C119.553 30.877 119.987 30.8943 120.391 31.0295C120.796 31.1647 121.153 31.4122 121.422 31.743L121.521 31.7233L120.788 28.0535L122.107 27.7904L123.961 37.0806L122.697 37.3327L122.486 36.277L122.382 36.2978C122.245 36.707 121.999 37.0709 121.67 37.3502C121.341 37.6295 120.942 37.8135 120.516 37.8823C118.817 38.2215 117.476 37.0982 117.054 34.9818ZM118.416 34.71C118.699 36.1272 119.537 36.8467 120.654 36.6238C121.765 36.4021 122.28 35.3999 122.001 34.0008C121.723 32.6082 120.854 31.8693 119.749 32.0896C118.639 32.3111 118.135 33.3044 118.416 34.71L118.416 34.71Z" fill="white"/>
<path d="M128.748 32.6483C128.618 32.2175 128.58 31.7645 128.636 31.3181C128.691 30.8718 128.84 30.442 129.071 30.0564C129.303 29.6708 129.612 29.3378 129.98 29.0788C130.348 28.8199 130.766 28.6406 131.207 28.5526C131.648 28.4646 132.103 28.4698 132.542 28.5678C132.981 28.6657 133.394 28.8544 133.756 29.1216C134.118 29.3889 134.42 29.7288 134.643 30.1195C134.866 30.5103 135.004 30.9433 135.05 31.3908C135.18 31.8218 135.219 32.2754 135.164 32.7223C135.109 33.1693 134.961 33.5997 134.729 33.986C134.498 34.3723 134.188 34.7058 133.82 34.9653C133.452 35.2247 133.033 35.4042 132.592 35.4924C132.15 35.5805 131.695 35.5752 131.255 35.4769C130.816 35.3786 130.402 35.1895 130.04 34.9216C129.678 34.6538 129.376 34.3131 129.153 33.9216C128.931 33.5301 128.793 33.0963 128.748 32.6483ZM133.693 31.6614C133.404 30.2131 132.585 29.4959 131.443 29.7237C130.297 29.9524 129.821 30.9281 130.11 32.3765C130.401 33.8364 131.214 34.5482 132.36 34.3196C133.502 34.0917 133.984 33.1156 133.693 31.6614Z" fill="white"/>
<path d="M136.152 27.7L137.421 27.4467L137.633 28.5082L137.732 28.4885C137.823 28.0739 138.041 27.6981 138.356 27.4134C138.671 27.1287 139.067 26.9493 139.488 26.9002C139.808 26.8109 140.145 26.7948 140.472 26.8531C140.799 26.9114 141.109 27.0425 141.379 27.2369C141.649 27.4313 141.871 27.6838 142.03 27.9759C142.189 28.2679 142.28 28.5919 142.297 28.924L143.16 33.2495L141.841 33.5126L141.044 29.5182C140.83 28.4445 140.257 28.0036 139.282 28.1981C139.059 28.2319 138.846 28.3134 138.658 28.4372C138.469 28.5609 138.31 28.7239 138.19 28.9149C138.071 29.106 137.994 29.3206 137.966 29.5441C137.937 29.7676 137.957 29.9947 138.024 30.2097L138.804 34.1187L137.485 34.3818L136.152 27.7Z" fill="white"/>
<path d="M148.947 23.4173L149.285 25.1113L150.733 24.8224L150.955 25.9332L149.507 26.222L150.192 29.6578C150.332 30.3578 150.682 30.6067 151.338 30.4757C151.506 30.4417 151.672 30.398 151.835 30.345L152.054 31.4434C151.826 31.533 151.59 31.6034 151.35 31.6539C149.884 31.9465 149.197 31.5471 148.94 30.2589L148.187 26.4854L147.126 26.697L146.904 25.5863L147.965 25.3746L147.627 23.6807L148.947 23.4173Z" fill="white"/>
<path d="M152.006 21.8242L153.313 21.5634L154.048 25.2456L154.152 25.2248C154.25 24.805 154.476 24.4258 154.798 24.1389C155.12 23.8519 155.522 23.6712 155.95 23.6213C156.27 23.5392 156.605 23.5287 156.929 23.5905C157.253 23.6524 157.56 23.7851 157.827 23.9791C158.095 24.1732 158.316 24.4239 158.475 24.7132C158.634 25.0026 158.728 25.3235 158.749 25.6532L159.609 29.9671L158.289 30.2305L157.494 26.2419C157.281 25.1746 156.676 24.7333 155.744 24.9192C155.514 24.9458 155.292 25.0224 155.094 25.1437C154.897 25.265 154.728 25.428 154.6 25.6214C154.472 25.8147 154.387 26.0337 154.353 26.263C154.318 26.4923 154.334 26.7263 154.4 26.9488L155.178 30.8513L153.86 31.1144L152.006 21.8242Z" fill="white"/>
<path d="M166.939 26.6293C166.882 27.2757 166.599 27.8814 166.14 28.3404C165.681 28.7994 165.076 29.0825 164.429 29.1401C163.992 29.2395 163.537 29.2425 163.098 29.1488C162.659 29.0551 162.245 28.8669 161.886 28.5974C161.527 28.3278 161.231 27.9833 161.018 27.5878C160.806 27.1924 160.682 26.7553 160.655 26.3071C160.509 25.8812 160.456 25.4289 160.5 24.9809C160.544 24.5329 160.684 24.0996 160.91 23.7103C161.136 23.321 161.443 22.9848 161.811 22.7245C162.178 22.4642 162.597 22.2858 163.039 22.2015C164.898 21.8306 166.273 22.877 166.692 24.9752L166.784 25.4353L162.065 26.3767L162.08 26.4506C162.108 26.6999 162.188 26.9406 162.315 27.1572C162.442 27.3737 162.613 27.5615 162.816 27.7082C163.02 27.855 163.251 27.9577 163.497 28.0096C163.742 28.0615 163.996 28.0616 164.242 28.0098C164.565 27.9847 164.873 27.8641 165.127 27.6634C165.381 27.4627 165.57 27.1909 165.67 26.8825L166.939 26.6293ZM161.871 25.4015L165.246 24.7281C165.218 24.5005 165.142 24.2813 165.024 24.0846C164.906 23.8879 164.749 23.7181 164.561 23.586C164.374 23.4539 164.161 23.3624 163.936 23.3175C163.711 23.2726 163.479 23.2753 163.256 23.3253C163.027 23.3679 162.809 23.4559 162.615 23.584C162.421 23.7122 162.255 23.8779 162.125 24.0714C161.996 24.2649 161.907 24.4822 161.864 24.7107C161.82 24.9391 161.822 25.174 161.871 25.4015L161.871 25.4015Z" fill="white"/>
</svg>
