<svg width="523" height="611" viewBox="0 0 523 611" fill="none" xmlns="http://www.w3.org/2000/svg">
<path d="M467.554 403.633L474.089 413.465C467.53 438.747 460.972 464.029 454.413 489.31C433.732 487.167 413.062 485.023 392.381 482.879C393.003 468.819 393.626 454.771 394.248 440.711C406.061 437.142 420.028 431.909 435 424.112C447.878 417.405 458.71 410.256 467.554 403.633Z" fill="#F28FBD"/>
<path d="M318.249 223.978C326.376 228.541 335.867 233.248 346.71 237.547C356.237 241.332 365.19 244.17 373.304 246.326C371.449 253.823 370.707 260.158 370.384 264.685C369.749 273.524 369.414 279.224 371.976 285.979C373.029 288.745 374.896 293.644 379.42 297.428C387.906 304.506 399.611 302.542 403.093 301.955C425.582 298.159 436.126 271.991 437.072 269.536C436.832 266.518 436.593 263.5 436.354 260.494C443.379 261.631 452.619 263.907 462.672 268.697C469.255 271.835 474.676 275.332 478.985 278.542V425.178C461.894 402.974 444.803 380.77 427.724 358.578C422.913 362.674 416.414 367.429 408.156 371.692C401.023 375.369 394.404 377.74 388.899 379.297C387.594 368.579 386.278 357.872 384.973 347.153C387.104 345.572 389.222 344.003 391.352 342.423C388.265 333.512 383.669 322.746 376.775 311.273C370.946 301.584 364.818 293.656 359.277 287.356C359.277 285.751 358.798 258.506 336.872 245.535C324.976 238.493 312.924 239.32 308.256 239.895C311.583 234.589 314.922 229.284 318.249 223.978Z" fill="#F28FBD"/>
<path d="M43.5254 348.123C44.5547 339.237 47.2236 326.734 54.5124 313.692C72.1059 282.218 103.2 271.416 111.997 268.697C115.324 279.692 118.663 290.698 121.99 301.692L146.884 281.189C151.037 287.033 155.191 292.877 159.356 298.71C160.493 296.362 161.63 294.027 162.778 291.68C174.926 299.213 189.205 311.045 192.185 328.027C194.207 339.572 189.827 346.77 187.134 362.626C185.016 375.082 183.915 392.974 189.001 415.849C157.357 422.196 125.7 428.531 94.056 434.879C96.3539 424.316 98.3526 410.004 97.5148 393.094C96.7967 378.675 94.2235 366.447 91.5306 357.034C75.5408 354.064 59.5511 351.081 43.5493 348.111L43.5254 348.123Z" fill="#D4C9F8"/>
<path d="M299.83 241.547C303.816 240.35 313.211 238.134 324.15 241.44C334.407 244.541 340.451 250.805 344.077 254.637C355.471 266.709 358.379 280.853 359.265 287.368C352.611 279.883 345.956 272.386 339.29 264.901" stroke="#151B22" stroke-width="3.35526" stroke-linecap="round" stroke-linejoin="round"/>
<path d="M326.999 252.134C330.685 254.793 337.615 260.565 342.462 270.398C346.471 278.542 347.321 285.991 347.489 290.338C340.691 282.518 333.151 274.482 324.809 266.386C321.098 262.781 317.412 259.344 313.762 256.074" stroke="#151B22" stroke-width="3.35526" stroke-linecap="round" stroke-linejoin="round"/>
<path d="M313.76 256.075C313.999 258.278 314.286 263.56 311.522 269.368C308.685 275.344 304.245 278.494 302.378 279.68C301.648 270.829 300.918 261.979 300.188 253.128" stroke="#151B22" stroke-width="3.35526" stroke-linecap="round" stroke-linejoin="round"/>
<path d="M300.389 224.673C300.294 234.865 300.198 245.056 300.102 255.26C298.989 257.404 287.799 278.075 263.024 281.883C238.465 285.655 221.673 269.595 219.926 267.859C219.974 262.793 220.034 257.691 220.117 252.577C220.428 234.481 221.003 216.709 221.829 199.235" stroke="#151B22" stroke-width="3.35526" stroke-linecap="round" stroke-linejoin="round"/>
<path d="M304.471 148.037C302.975 158.038 303.61 165.918 304.471 171.283C305.644 178.529 307.164 180.78 310.312 193.475C313.4 205.93 314.908 212.23 313.412 215.595C307.93 227.883 282.246 226.565 281.049 226.493C260.535 225.236 246.448 212.026 241.146 206.421" stroke="#151B22" stroke-width="3.35526" stroke-linecap="round" stroke-linejoin="round"/>
<path d="M284.866 170.78C284.711 173.103 284.866 176.684 287.056 179.642C290.671 184.481 297.301 184.217 297.373 186.577C297.421 188.373 293.651 190.062 290.898 190.505C286.542 191.211 283.143 189.032 282.197 188.385" stroke="#151B22" stroke-width="3.35526" stroke-linecap="round" stroke-linejoin="round"/>
<path d="M229.072 165.487C228.641 164.804 225.756 160.433 220.442 159.822C220.095 159.786 215.583 159.331 212.663 161.942C206.427 167.523 209.06 185.607 218.743 189.271C223.147 190.936 227.755 189.14 230.065 188.002" stroke="#151B22" stroke-width="4.47368" stroke-linecap="round" stroke-linejoin="round"/>
<path d="M227.119 172.409C226.712 173.103 225.707 175.02 225.947 177.559C226.102 179.175 226.712 180.373 227.119 181.056" stroke="#151B22" stroke-width="3.35526" stroke-linecap="round" stroke-linejoin="round"/>
<path d="M218.467 172.672C218.862 173.379 219.999 175.211 222.321 176.277C223.793 176.948 225.133 177.044 225.923 177.032" stroke="#151B22" stroke-width="3.35526" stroke-linecap="round" stroke-linejoin="round"/>
<path d="M264.15 179.343V174.098" stroke="#151B22" stroke-width="3.35526" stroke-linecap="round" stroke-linejoin="round"/>
<path d="M294.705 176.72V171.475" stroke="#151B22" stroke-width="3.35526" stroke-linecap="round" stroke-linejoin="round"/>
<path d="M282.65 205.427C283.88 202.3 283.63 199.274 282.092 198.669C280.555 198.063 278.311 200.107 277.082 203.234C275.852 206.361 276.102 209.386 277.64 209.992C279.177 210.597 281.421 208.553 282.65 205.427Z" stroke="#151B22" stroke-width="2.23684" stroke-linecap="round" stroke-linejoin="round"/>
<path d="M264.246 187.834C271.272 187.834 276.968 182.134 276.968 175.103C276.968 168.073 271.272 162.373 264.246 162.373C257.219 162.373 251.523 168.073 251.523 175.103C251.523 182.134 257.219 187.834 264.246 187.834Z" stroke="#151B22" stroke-width="2.23684" stroke-linecap="round" stroke-linejoin="round"/>
<path d="M297.384 183.307C304.298 183.307 309.903 177.699 309.903 170.78C309.903 163.862 304.298 158.253 297.384 158.253C290.47 158.253 284.865 163.862 284.865 170.78C284.865 177.699 290.47 183.307 297.384 183.307Z" stroke="#151B22" stroke-width="2.23684" stroke-linecap="round" stroke-linejoin="round"/>
<path d="M276.896 172.409C277.028 169.439 279.446 167.127 282.198 167.103C284.664 167.079 286.926 168.876 287.5 171.439" stroke="#151B22" stroke-width="2.23684" stroke-linecap="round" stroke-linejoin="round"/>
<path d="M230.816 164.169C237.674 166.577 244.544 168.984 251.402 171.391" stroke="#151B22" stroke-width="2.23684" stroke-linecap="round" stroke-linejoin="round"/>
<path d="M182.128 417.693C155.511 422.867 128.905 428.052 102.287 433.226" stroke="#151B22" stroke-width="4.47368" stroke-linecap="round" stroke-linejoin="round"/>
<path d="M210.758 261.08C212.59 258.781 215.869 253.979 216.719 247.212C217.927 237.595 213.739 227.918 207.144 222.373C197.557 214.313 188.916 220.086 183.746 213.499C178.156 206.397 186.929 198.014 186.798 177.714C186.762 171.846 185.146 157.367 176.756 142.6C174.757 139.091 169.432 130.013 158.648 125.893C149.66 122.456 141.605 124.253 138.84 124.899C125.795 127.977 118.65 137.486 116.711 140.265C114.664 139.654 98.1717 134.959 85.928 144.864C77.3826 151.762 75.6352 161.942 74.8931 166.241C71.7096 184.696 84.5277 191.343 80.267 203.2C76.0541 214.924 63.3436 213.643 52.2609 226.649C46.0493 233.93 39.8976 246.422 41.2859 269.128" stroke="#151B22" stroke-width="3.35526" stroke-linecap="round" stroke-linejoin="round"/>
<path d="M106.789 209.727C107.675 210.553 108.56 211.379 109.458 212.206C110.308 231.032 111.158 249.871 112.007 268.697C126.441 273.871 140.875 279.033 155.309 284.206C154.387 268.062 153.466 251.919 152.544 235.787" stroke="#151B22" stroke-width="4.47368" stroke-linecap="round" stroke-linejoin="round"/>
<path d="M110.307 192.457C108.512 186.301 104.084 182.756 100.757 183.319C96.9745 183.966 95.1194 189.882 95.0237 193.727C94.9638 196.086 95.5623 198.026 96.1008 199.307" stroke="#151B22" stroke-width="4.47368" stroke-linecap="round" stroke-linejoin="round"/>
<path d="M127.707 226.11C129.395 227.619 132.159 229.739 135.989 231.32C136.755 231.631 150.399 237.056 160.058 230.386C165.132 226.889 167.227 221.356 168.83 214.948C171.248 205.331 174.097 187.655 169.525 162.493" stroke="#151B22" stroke-width="3.35526" stroke-linecap="round" stroke-linejoin="round"/>
<path d="M107.304 201.212C107.124 200.601 106.37 198.241 104.012 196.9C102.947 196.301 101.942 196.122 101.26 196.062" stroke="#151B22" stroke-width="2.23684" stroke-linecap="round" stroke-linejoin="round"/>
<path d="M108.511 196.984C108.176 197.511 106.896 199.643 107.446 202.301C107.698 203.487 108.236 204.373 108.631 204.924" stroke="#151B22" stroke-width="2.23684" stroke-linecap="round" stroke-linejoin="round"/>
<path d="M148.451 187.068C148.63 188.768 149.121 191.403 150.569 194.289C152.173 197.475 154.232 199.559 155.584 200.721C154.794 201.152 153.777 201.607 152.556 201.93C149.923 202.625 147.661 202.361 146.309 202.086" stroke="#151B22" stroke-width="4.47368" stroke-linecap="round" stroke-linejoin="round"/>
<path d="M143.461 213.14C142.575 213.272 139.212 213.679 135.861 211.583C132.043 209.188 131.097 205.307 130.93 204.565" stroke="#151B22" stroke-width="4.47368" stroke-linecap="round" stroke-linejoin="round"/>
<path d="M137.128 188.433C135.022 187.714 133.861 187.702 132.114 187.691C130.354 187.667 129.217 187.631 127.063 188.265C126.321 185.295 129.349 182.78 132.185 182.9C135.022 182.876 137.966 185.487 137.128 188.433Z" fill="#151B22"/>
<path d="M163.304 187.93C161.198 187.211 160.037 187.199 158.289 187.188C156.53 187.164 155.393 187.128 153.239 187.762C152.497 184.792 155.525 182.277 158.361 182.397C161.198 182.373 164.142 184.984 163.304 187.93Z" fill="#151B22"/>
<path d="M110.953 191.738C107.865 184.409 108.655 180.026 109.96 177.367C112.425 172.385 117.632 171.654 125.519 166.541C131.766 162.481 136.051 158.049 138.612 155.067C139.869 156.552 147.397 165.139 158.982 165.044C163.519 165.008 167.169 163.654 169.503 162.505" stroke="#151B22" stroke-width="3.35526" stroke-linecap="round" stroke-linejoin="round"/>
<path d="M58.459 351.656C67.8183 353.692 77.1776 355.728 86.5368 357.764C87.2669 352.315 87.997 346.866 88.7271 341.417C94.436 352.686 103.4 374.076 104.023 402.291C104.573 426.855 98.577 446.22 94.1128 457.513L147.336 444.004" stroke="#151B22" stroke-width="4.47368" stroke-linecap="round" stroke-linejoin="round"/>
<path d="M147.672 443.43C149.778 436.675 151.873 429.932 153.979 423.178C156.852 428.831 159.724 434.471 162.596 440.124L187.802 433.729C183.098 422.902 172.363 394.016 181.004 359.525C182.273 354.471 183.828 349.776 185.564 345.476C191.045 331.776 187.515 316.099 176.707 306.063C174.565 304.075 172.399 301.991 170.256 299.763C164.44 293.823 159.449 287.979 155.2 282.47" stroke="#151B22" stroke-width="4.47368" stroke-linecap="round" stroke-linejoin="round"/>
<path d="M162.775 291.691C161.638 294.039 160.501 296.374 159.352 298.721C155.199 292.877 151.046 287.033 146.881 281.2C138.587 288.039 130.293 294.865 121.987 301.703C118.923 290.637 115.847 279.56 112.783 268.494" stroke="#151B22" stroke-width="4.47368" stroke-linecap="round" stroke-linejoin="round"/>
<path d="M179.352 435.861C181.889 439.537 185.3 444.879 188.711 451.645C192.194 458.568 201.685 478.975 203.564 523.43C204.354 542.017 203.911 567.227 198.896 596.916" stroke="#151B22" stroke-width="4.47368" stroke-linecap="round" stroke-linejoin="round"/>
<path d="M157.292 481.226C151.153 484.232 145.013 487.238 138.873 490.244" stroke="#151B22" stroke-width="4.47368" stroke-linecap="round" stroke-linejoin="round"/>
<path d="M144.12 487.682C143.414 522.532 142.72 557.383 142.014 592.233" stroke="#151B22" stroke-width="4.47368" stroke-linecap="round" stroke-linejoin="round"/>
<path d="M96.2794 454.04C91.5639 463.861 87.0997 475.406 83.8323 488.592C72.4743 534.293 81.7857 573.946 88.9309 595.635" stroke="#151B22" stroke-width="4.47368" stroke-linecap="round" stroke-linejoin="round"/>
<path d="M88.5234 343.021C89.086 338.818 89.6604 334.626 90.2229 330.422" stroke="#151B22" stroke-width="4.47368" stroke-linecap="round" stroke-linejoin="round"/>
<path d="M111.994 268.697C102.275 272.374 58.8419 289.919 47.4839 330.291C45.9998 335.548 44.9227 341.74 44.791 348.842C49.339 349.776 53.887 350.722 58.447 351.656" stroke="#151B22" stroke-width="4.47368" stroke-linecap="round" stroke-linejoin="round"/>
<path d="M17.2172 298.721C6.78074 345.105 16.6307 373.477 22.8064 386.507C25.99 393.213 33.9011 409.896 43.9546 409.585C47.186 409.489 51.1596 407.609 60.088 394.722C66.0722 386.088 73.6601 373.393 80.0393 356.351" stroke="#151B22" stroke-width="4.47368" stroke-linecap="round" stroke-linejoin="round"/>
<path d="M34.4395 294.805C39.2029 322.746 43.9663 350.686 48.7297 378.626" stroke="#151B22" stroke-width="4.47368" stroke-linecap="round" stroke-linejoin="round"/>
<path d="M38.2931 268.278C40.6509 252.326 43.0087 236.374 45.3664 220.421C42.0392 222.984 36.5218 227.966 32.5124 235.99C26.7795 247.475 27.6293 258.206 28.2037 262.494C27.2702 247.811 26.3367 233.128 25.4151 218.433C22.8419 221.176 19.5267 225.475 17.3484 231.463C12.1302 245.835 17.5638 258.817 19.0958 262.182" stroke="#151B22" stroke-width="3.35526" stroke-linecap="round" stroke-linejoin="round"/>
<path d="M15.8647 252.913C6.36179 255.895 1.02389 264.757 2.63962 272.386C4.27929 280.123 12.4058 283.44 13.112 283.715C12.9444 281.608 12.9564 279.057 13.3992 276.206C14.4046 269.727 17.1693 264.949 19.1081 262.194" stroke="#151B22" stroke-width="3.35526" stroke-linecap="round" stroke-linejoin="round"/>
<path d="M21.5983 299.572C19.9826 299.069 16.2844 297.68 13.2444 294.051C8.98363 288.949 9.10331 283.105 9.17512 281.667" stroke="#151B22" stroke-width="3.35526" stroke-linecap="round" stroke-linejoin="round"/>
<path d="M34.6184 294.183C40.4709 287.859 46.3115 281.536 52.164 275.212C41.7396 270.254 31.3151 265.296 20.8906 260.35C22.3388 263.524 24.8881 268.039 29.2446 272.386C31.9853 275.128 34.7381 277.093 37.024 278.47C36.7607 278.35 30.98 275.799 26.6953 279.033C25.2112 280.158 24.4213 281.572 24.0024 282.578" stroke="#151B22" stroke-width="3.35526" stroke-linecap="round" stroke-linejoin="round"/>
<path d="M59.2362 305.728C56.8784 304.087 53.8504 301.632 50.954 298.087C47.2438 293.548 45.2451 289.069 44.168 285.979" stroke="#151B22" stroke-width="4.47368" stroke-linecap="round" stroke-linejoin="round"/>
<path d="M97.3937 218.218C102.285 218.218 106.25 214.25 106.25 209.355C106.25 204.461 102.285 200.493 97.3937 200.493C92.5024 200.493 88.5371 204.461 88.5371 209.355C88.5371 214.25 92.5024 218.218 97.3937 218.218Z" stroke="#151B22" stroke-width="3.35526" stroke-linecap="round" stroke-linejoin="round"/>
<path d="M345.234 455.19C321.692 463.909 289.569 472.783 250.851 474.999C230.72 476.149 212.505 475.286 196.742 473.538" stroke="#151B22" stroke-width="3.35526" stroke-linecap="round" stroke-linejoin="round"/>
<path d="M348.767 508.556C347.774 540.976 346.792 573.407 345.799 605.827" stroke="#151B22" stroke-width="3.35526" stroke-linecap="round" stroke-linejoin="round"/>
<path d="M250.67 86.7675C250.419 82.8273 248.396 56.875 231.784 49.4258C228.014 47.7372 220.725 45.7611 217.901 48.8629C214.825 52.2402 218.775 59.7133 223.191 70.7314C226.386 78.7076 230.599 90.4442 234.226 105.558" fill="white"/>
<path d="M250.67 86.7675C250.419 82.8273 248.396 56.875 231.784 49.4258C228.014 47.7372 220.725 45.7611 217.901 48.8629C214.825 52.2402 218.775 59.7133 223.191 70.7314C226.386 78.7076 230.599 90.4442 234.226 105.558" stroke="#151B22" stroke-width="3.35526" stroke-linecap="round" stroke-linejoin="round"/>
<path d="M404.238 218.852C401.916 221.547 393.933 230.11 380.577 232.409C379.511 232.589 359.452 235.799 348.489 223.667C339.094 213.272 342.134 197.523 347.352 170.433C351.146 150.768 353.037 140.947 360.087 134.468C375.562 120.253 409.145 119.39 425.171 140.133C439.461 158.624 430.928 182.792 430.269 184.565" stroke="#151B22" stroke-width="3.35526" stroke-linecap="round" stroke-linejoin="round"/>
<path d="M373.395 233.296C373.299 246.23 373.203 259.164 373.107 272.087C373.478 275.584 374.998 288.075 383.783 293.62C396.135 301.404 420.287 293.919 437.055 269.536C435.187 246.242 433.332 222.96 431.465 199.667" stroke="#151B22" stroke-width="3.35526" stroke-linecap="round" stroke-linejoin="round"/>
<path d="M430.266 184.565C431.954 175.822 436.059 169.75 439.602 169.858C443.826 169.99 447.525 178.924 446.675 186.277C446.076 191.475 442.773 199.715 436.203 200.433C431.523 200.948 427.765 197.379 426.867 196.469" stroke="#151B22" stroke-width="3.35526" stroke-linecap="round" stroke-linejoin="round"/>
<path d="M370.068 168.648C369.338 170.72 368.033 173.511 365.616 176.086C360.074 181.954 352.821 182.205 352.881 183.726C352.917 184.756 356.304 186.014 370.283 187.128" stroke="#151B22" stroke-width="3.35526" stroke-linecap="round" stroke-linejoin="round"/>
<path d="M361.57 195.415C363.82 196.397 370.642 199.044 379.188 197.116C387.254 195.295 392.138 190.469 393.837 188.625C397.116 195.595 395.836 203.87 390.654 209.439C385.232 215.26 376.579 216.984 369.218 213.691" stroke="#151B22" stroke-width="3.35526" stroke-linecap="round" stroke-linejoin="round"/>
<path d="M382.502 181.69C384.306 181.69 385.769 180.227 385.769 178.421C385.769 176.615 384.306 175.151 382.502 175.151C380.697 175.151 379.234 176.615 379.234 178.421C379.234 180.227 380.697 181.69 382.502 181.69Z" fill="#151B22"/>
<path d="M358.301 175.104C360.105 175.104 361.568 173.64 361.568 171.834C361.568 170.028 360.105 168.565 358.301 168.565C356.496 168.565 355.033 170.028 355.033 171.834C355.033 173.64 356.496 175.104 358.301 175.104Z" fill="#151B22"/>
<path d="M394.901 202.852C391.394 204.805 386.379 207.068 380.048 208.373C376.051 209.188 372.46 209.439 369.492 209.427C369.408 210.841 369.312 212.266 369.229 213.679" stroke="#151B22" stroke-width="2.23684" stroke-miterlimit="10"/>
<path d="M364.551 196.517C365.819 198.828 367.088 201.152 368.345 203.463C371.133 203.846 375.969 204.122 381.594 202.433C388.823 200.253 393.395 196.002 395.417 193.858" stroke="#151B22" stroke-width="2.23684" stroke-miterlimit="10"/>
<path d="M467.549 403.633C436.922 424.543 408.497 436.124 388.306 442.711C359.869 451.993 340.109 453.813 300.578 457.442C300.578 457.442 287.951 458.604 251.34 451.19C247.618 450.436 240.58 448.879 238.486 443.693C237.385 440.975 238.019 438.16 238.629 436.376" stroke="#151B22" stroke-width="3.35526" stroke-linecap="round" stroke-linejoin="round"/>
<path d="M338.398 384.315C334.461 379.884 327.028 372.83 315.647 368.818C311.35 367.297 307.352 366.531 303.941 366.147" stroke="#151B22" stroke-width="3.35526" stroke-linecap="round" stroke-linejoin="round"/>
<path d="M287.747 439.885C274.522 440.292 263.499 439.478 255.336 438.532C233.602 436.005 229.82 432.244 228.79 429.202C227.797 426.244 229.233 423.477 229.425 423.13C231.77 418.771 238.473 416.771 246.324 418.435" stroke="#151B22" stroke-width="3.35526" stroke-linecap="round" stroke-linejoin="round"/>
<path d="M293.362 422.064C280.136 422.471 269.114 421.657 260.951 420.711C239.217 418.184 235.435 414.423 234.405 411.381C233.543 408.806 234.573 406.268 235.04 405.309C239.109 396.83 254.476 398.028 274.799 395.034C282.398 393.908 293.481 391.788 306.814 387.357" stroke="#151B22" stroke-width="3.35526" stroke-linecap="round" stroke-linejoin="round"/>
<path d="M268.791 387.261C270.826 388.699 273.483 388.196 274.632 386.519C275.505 385.249 275.434 383.405 274.416 381.956C274.751 381.956 278.102 381.944 280.149 384.723C281.597 386.687 282.04 389.585 280.724 391.777C278.797 394.974 273.746 395.633 270.909 393.238C268.444 391.142 268.755 387.645 268.791 387.273V387.261Z" stroke="#151B22" stroke-width="3.35526" stroke-linecap="round" stroke-linejoin="round"/>
<path d="M235.281 413.022C235.892 409.07 239.051 406.184 242.558 406.076C245.586 405.98 249.033 407.932 249.739 411.226C250.385 414.22 248.387 416.663 248.099 416.998" stroke="#151B22" stroke-width="3.35526" stroke-linecap="round" stroke-linejoin="round"/>
<path d="M229.582 431.094C230.192 427.142 233.352 424.256 236.859 424.148C239.887 424.052 243.334 426.004 244.04 429.298C244.686 432.292 242.687 434.735 242.4 435.07" stroke="#151B22" stroke-width="3.35526" stroke-linecap="round" stroke-linejoin="round"/>
<path d="M240.018 446.436C240.556 442.939 243.345 440.388 246.457 440.292C249.138 440.208 252.189 441.933 252.812 444.843C253.386 447.49 251.615 449.645 251.364 449.957" stroke="#151B22" stroke-width="3.35526" stroke-linecap="round" stroke-linejoin="round"/>
<path d="M436.338 260.494C446.331 262.051 463.051 266.027 480.142 277.488C486.557 281.787 509.8 297.129 517.495 321.668C527.549 353.716 512.397 392.639 478.861 416.819C459.76 392.04 440.658 367.261 421.557 342.483C432.879 333.285 444.201 324.075 455.511 314.878" stroke="#151B22" stroke-width="3.35526" stroke-linecap="round" stroke-linejoin="round"/>
<path d="M406.068 151.319C404.393 149.882 400.91 153.067 387.673 155.714C387.206 155.81 386.955 155.858 386.644 155.918C382.251 156.72 368.176 158.553 358.123 149.535C356.543 148.121 351.145 143.283 350.188 135.846C348.201 120.504 366.992 108.648 368.715 107.594C384.214 98.0969 409.97 96.3124 422.537 111.57C429.479 120.001 429.754 130.433 429.598 134.96C438.359 134.708 446.151 140.253 448.568 148.205C451.285 157.127 446.653 167.187 437.545 171.163C433.572 181.607 429.61 192.062 425.637 202.505C422.405 202.805 419.162 203.092 415.93 203.391C414.841 198.804 413.728 191.116 415.93 182.206C416.792 178.708 418.001 175.714 419.222 173.271C413.022 172.828 406.451 171.343 404.417 166.924C401.712 161.068 408.57 153.439 406.092 151.319H406.068Z" fill="#151B22"/>
<path d="M338.396 384.315C348.905 385.465 367.408 386.136 388.867 379.285C408.866 372.902 422.869 362.746 430.757 356.063" stroke="#151B22" stroke-width="3.35526" stroke-linecap="round" stroke-linejoin="round"/>
<path d="M437.138 180.637C437.377 181.523 437.748 183.295 437.282 185.451C436.743 187.966 435.367 189.595 434.732 190.265" stroke="#151B22" stroke-width="3.35526" stroke-linecap="round" stroke-linejoin="round"/>
<path d="M426.461 186.349C427.191 185.786 428.687 184.768 430.853 184.373C433.379 183.906 435.401 184.553 436.275 184.888" stroke="#151B22" stroke-width="3.35526" stroke-linecap="round" stroke-linejoin="round"/>
<path d="M371.479 248.601C363.376 247.2 353.658 244.889 343.042 240.961C332.139 236.925 323.055 232.218 315.874 227.883C313.337 231.895 310.787 235.895 308.25 239.907" stroke="#151B22" stroke-width="3.35526" stroke-linecap="round" stroke-linejoin="round"/>
<path d="M309.328 237.008C306.336 233.859 303.344 230.697 300.352 227.547" stroke="#151B22" stroke-width="3.35526" stroke-linecap="round" stroke-linejoin="round"/>
<path d="M273.158 83.4141C275.193 79.3661 286.443 56.3 276.21 41.6771C273.445 37.725 267.916 32.671 264.613 34.0363C261.285 35.4016 262.003 42.5155 261.214 53.5814C260.675 61.1264 259.43 70.4319 256.689 81.0548" stroke="#151B22" stroke-width="3.35526" stroke-linecap="round" stroke-linejoin="round"/>
<path d="M301.141 387.273C301.141 387.273 304.145 366.351 306.347 349.189C306.515 347.872 307.054 344.506 305.151 342.662C303.726 341.285 301.572 341.381 300.734 341.405C267.773 342.554 262.782 342.89 252.777 343.548C251.76 343.62 248.971 343.776 247.307 345.74C246.015 347.261 245.979 349.189 245.967 349.824C245.847 354.183 244.519 373.046 242.688 399.082" stroke="#151B22" stroke-width="3.35526" stroke-linecap="round" stroke-linejoin="round"/>
<path d="M294.209 362.243C296.239 362.243 297.884 360.286 297.884 357.872C297.884 355.458 296.239 353.5 294.209 353.5C292.18 353.5 290.535 355.458 290.535 357.872C290.535 360.286 292.18 362.243 294.209 362.243Z" stroke="#151B22" stroke-width="3.35526" stroke-linecap="round" stroke-linejoin="round"/>
<path d="M298.89 340.986C299.297 340.087 299.788 339.165 300.374 338.219C303.295 333.524 307.232 330.71 310.14 329.081C308.752 329.668 300.805 332.89 292.104 329.081C281.656 324.518 279.178 313.812 278.939 312.722C280.004 314.686 283.092 320.961 281.704 329.081C280.638 335.249 277.515 339.381 275.971 341.189" stroke="#151B22" stroke-width="3.35526" stroke-linecap="round" stroke-linejoin="round"/>
<path d="M254.01 337.908L238.941 331.393" stroke="#151B22" stroke-width="3.35526" stroke-linecap="round" stroke-linejoin="round"/>
<path d="M338.4 330.411L322.674 335.081" stroke="#151B22" stroke-width="3.35526" stroke-linecap="round" stroke-linejoin="round"/>
<path d="M307.638 299.572L300.266 314.231" stroke="#151B22" stroke-width="3.35526" stroke-linecap="round" stroke-linejoin="round"/>
<path d="M256.605 307.177L268.67 318.303" stroke="#151B22" stroke-width="3.35526" stroke-linecap="round" stroke-linejoin="round"/>
<path d="M346.26 275.093C348.534 276.829 350.796 278.697 353.034 280.685C374.278 299.572 385.349 323.021 391.333 342.423C385.948 346.602 379.82 350.866 372.89 354.962C355.883 365.01 339.642 370.734 326.477 374.112" stroke="#151B22" stroke-width="3.35526" stroke-linecap="round" stroke-linejoin="round"/>
<path d="M471.237 407.884C464.331 431.322 457.414 454.759 450.508 478.185C431.622 475.634 412.736 473.083 393.85 470.532" stroke="#151B22" stroke-width="3.35526" stroke-linecap="round" stroke-linejoin="round"/>
<path d="M435.976 476.232C428.209 519.933 420.441 563.635 412.674 607.348" stroke="#151B22" stroke-width="3.35526" stroke-linecap="round" stroke-linejoin="round"/>
<path d="M248.436 525.969C253.965 526.161 261.026 525.85 268.961 524.077C282.33 521.095 292.24 515.31 298.272 511.071" stroke="#151B22" stroke-width="3.35526" stroke-linecap="round" stroke-linejoin="round"/>
<path d="M266.579 525.969C266.435 553.443 266.292 580.904 266.16 608.377" stroke="#151B22" stroke-width="3.35526" stroke-linecap="round" stroke-linejoin="round"/>
<path d="M267.668 475.358C266.914 490.256 266.16 505.155 265.418 520.065C265.478 520.017 265.526 519.969 265.586 519.921C276.333 510.484 283.43 497.562 285.645 483.43C286.303 479.214 286.961 474.999 287.619 470.783" stroke="#151B22" stroke-width="3.35526" stroke-linecap="round" stroke-linejoin="round"/>
<path d="M333.65 489.801C329.509 488.687 323.369 486.508 316.918 482.089C310.216 477.502 305.883 472.34 303.334 468.795" stroke="#151B22" stroke-width="3.35526" stroke-linecap="round" stroke-linejoin="round"/>
<path d="M386.395 347.357C387.4 357.273 388.405 367.201 389.423 377.118" stroke="#151B22" stroke-width="3.35526" stroke-linecap="round" stroke-linejoin="round"/>
<path d="M394.939 442.076C395.238 461.13 393.443 476.58 391.743 487.131C391.743 487.131 384.467 534.185 364.755 548.484C364.264 548.844 363.546 549.287 362.78 549.107C357.933 548.005 359.142 524.221 361.332 501.61" stroke="#151B22" stroke-width="3.35526" stroke-linecap="round" stroke-linejoin="round"/>
<path d="M347.784 470.005C345.582 472.256 342.925 475.286 340.268 479.13C338.485 481.729 335.553 486.616 332.549 493.897C331.053 497.526 323.74 515.31 328.18 518.388C330.287 519.849 333.829 517.143 346.576 509.801C354.331 505.334 360.686 501.921 364.66 499.825" stroke="#151B22" stroke-width="3.35526" stroke-linecap="round" stroke-linejoin="round"/>
<path d="M347.784 470.005C347.592 464.268 347.389 458.543 347.197 452.807" stroke="#151B22" stroke-width="3.35526" stroke-linecap="round" stroke-linejoin="round"/>
<path d="M327.773 509.61C329.473 511.047 331.759 511.394 333.47 510.472C336.08 509.071 336.738 505.071 334.871 502.939C333.267 501.095 330.502 501.478 330.275 501.514" stroke="#151B22" stroke-width="3.35526" stroke-linecap="round" stroke-linejoin="round"/>
<path d="M368.381 544.928C368.202 544.856 365.329 543.658 364.982 541.167C364.551 538.101 368.202 535.023 371.122 535.658C372.845 536.029 373.827 537.598 374.126 538.125" stroke="#151B22" stroke-width="3.35526" stroke-linecap="round" stroke-linejoin="round"/>
<path d="M200.215 494.148C201.878 492.807 203.793 490.987 205.601 488.604C209.275 483.789 210.819 478.927 211.513 475.825" stroke="#151B22" stroke-width="3.35526" stroke-linecap="round" stroke-linejoin="round"/>
<path d="M155.189 282.47C161.317 277.668 170.557 271.536 182.908 266.961C198.048 261.356 211.441 260.482 220.01 260.59" stroke="#151B22" stroke-width="3.35526" stroke-linecap="round" stroke-linejoin="round"/>
<path d="M229.992 165.978C235.282 168.038 241.087 167.762 244.725 164.672C250.195 160.025 250.769 148.948 243.05 141.019C257.543 151.211 272.241 151.199 277.543 144.732C278.332 143.774 281.001 140.109 279.553 132.205C285.513 143.762 298.008 149.942 309.749 147.522C320.952 145.223 328.121 135.774 330.383 126.828C333.028 116.36 330.359 100.492 318.355 95.965C309.702 92.6955 298.786 96.3003 291.749 105.031C292.216 101.582 292.958 92.4679 287.369 85.4858C277.327 72.9588 251.547 73.1863 243.217 87.3302C238.633 95.1147 240.034 105.953 245.623 115.079C240.931 102.803 228.065 96.8632 217.832 100.48C208.7 103.702 201.483 114.6 204.727 124.432C207.898 134.037 219.101 136.612 219.723 136.756C215.522 137.175 202.596 139.019 194.673 149.355C181.376 166.72 191.406 196.002 205.002 202.026C205.696 202.337 214.792 206.23 221.195 202.529C223.35 201.295 224.642 199.511 224.774 199.331C227.227 195.906 226.94 192.062 226.785 190.84C218.478 190.768 211.441 185.69 209.466 178.732C207.336 171.187 211.046 161.043 217.976 159.834C224.283 158.732 229.705 165.642 229.956 165.978" fill="#151B22"/>
</svg>
