<svg width="218" height="162" viewBox="0 0 218 162" fill="none" xmlns="http://www.w3.org/2000/svg">
<path d="M137.193 2C124.295 17.5072 111.312 31.8976 115.181 53.129C116.587 60.8422 120.756 68.8071 125.871 74.7123C135.31 85.6107 162.153 70.4826 151.657 55.2438C148.77 51.0515 146.46 44.6493 140.852 44.654C131.345 44.6621 124.612 47.6346 116.34 52.331C103.246 59.7654 103.444 81.1766 109.044 93.1346C119.658 115.798 142.743 119.933 162.728 132.083C168.629 135.671 174.793 139.456 180.819 142.78C184.684 144.912 176.005 132.759 174.875 131.119C174.229 130.18 166.884 118.402 165.784 119.159C164.621 119.96 172.823 130.62 173.495 131.595C174.875 133.599 181.274 140.529 178.241 141.518C171.347 143.765 163.398 146.236 157.389 150.375" stroke="#2D3849" stroke-width="2.16841" stroke-linecap="round" stroke-dasharray="4.34 4.34"/>
<path d="M7.68029 57.8063C6.86253 57.9361 6.10515 57.9105 5.40816 57.7295C4.72115 57.5348 4.1535 57.2118 3.70521 56.7605C3.25504 56.2973 2.97042 55.7289 2.85135 55.0552L4.57577 54.7815C4.7272 55.3529 5.04229 55.8071 5.52106 56.1442C6.00979 56.4676 6.65711 56.5653 7.46303 56.4374C8.23338 56.3152 8.80772 56.0296 9.18604 55.5807C9.57433 55.1182 9.7205 54.5846 9.62457 53.9802C9.54933 53.5061 9.35782 53.1417 9.05006 52.8868C8.7423 52.6318 8.38064 52.4584 7.96508 52.3664C7.54952 52.2744 6.99579 52.1922 6.30388 52.1198C5.45226 52.0362 4.76063 51.9273 4.229 51.793C3.70922 51.6568 3.23582 51.3917 2.80879 50.9978C2.39173 50.5901 2.12207 50.0011 1.9998 49.2307C1.89258 48.5552 1.96943 47.9294 2.23036 47.3534C2.4913 46.7773 2.90733 46.2982 3.47847 45.916C4.06146 45.5318 4.75592 45.2758 5.56183 45.1479C6.72329 44.9635 7.71751 45.1034 8.54448 45.5675C9.38331 46.0297 9.92631 46.7333 10.1735 47.6783L8.39574 47.9604C8.26124 47.4958 7.94652 47.1205 7.45158 46.8345C6.95475 46.5367 6.34487 46.4452 5.62192 46.5599C4.94637 46.6671 4.42349 46.9324 4.05326 47.3557C3.68115 47.7671 3.54494 48.2868 3.64464 48.915C3.71612 49.3653 3.89888 49.713 4.19291 49.9579C4.49879 50.201 4.84766 50.3704 5.23951 50.4662C5.64134 50.5482 6.19507 50.6304 6.90071 50.7128C7.75421 50.8082 8.44772 50.929 8.98123 51.0751C9.51286 51.2095 9.99313 51.4795 10.422 51.8853C10.8491 52.2792 11.1247 52.8673 11.2488 53.6495C11.3447 54.254 11.275 54.8482 11.0397 55.4323C10.8043 56.0165 10.3989 56.5243 9.82347 56.9558C9.248 57.3874 8.53361 57.6709 7.68029 57.8063ZM11.7976 52.0133C11.6377 51.0059 11.6999 50.0969 11.9844 49.2863C12.267 48.4638 12.7309 47.7887 13.3761 47.2611C14.0333 46.7315 14.824 46.3934 15.7485 46.2467C16.9455 46.0567 17.9752 46.1909 18.8378 46.6494C19.7122 47.106 20.3556 47.83 20.7681 48.8216L19.026 49.0981C18.766 48.5319 18.3658 48.1155 17.8253 47.8489C17.2967 47.5805 16.6768 47.5027 15.9657 47.6155C15.0413 47.7622 14.3454 48.2007 13.8781 48.931C13.4089 49.6495 13.2665 50.5894 13.4509 51.7509C13.6371 52.9242 14.0654 53.7857 14.7359 54.3354C15.4063 54.8851 16.2038 55.0866 17.1282 54.9398C17.8393 54.827 18.4056 54.567 18.827 54.1599C19.2484 53.7528 19.499 53.227 19.579 52.5825L21.3212 52.306C21.2185 53.3429 20.824 54.2257 20.1377 54.9543C19.4495 55.671 18.5188 56.1225 17.3455 56.3087C16.421 56.4554 15.5644 56.3788 14.7756 56.0787C13.9987 55.7768 13.3486 55.2785 12.8252 54.584C12.3019 53.8894 11.9593 53.0325 11.7976 52.0133ZM23.3114 46.8324C23.5074 46.2302 23.8417 45.7337 24.3142 45.3428C24.7987 44.95 25.4201 44.6934 26.1786 44.573L26.4439 46.2441L26.0172 46.3118C24.2039 46.5996 23.4534 47.7272 23.7656 49.6945L24.6065 54.9922L22.9887 55.249L21.4425 45.5069L23.0602 45.2502L23.3114 46.8324ZM32.9071 53.8388C31.9945 53.9836 31.132 53.9079 30.3195 53.6116C29.5189 53.3134 28.845 52.819 28.298 52.1282C27.7609 51.4236 27.4124 50.5677 27.2525 49.5603C27.0945 48.5648 27.1687 47.6539 27.4749 46.8277C27.7912 45.9877 28.2906 45.307 28.9733 44.7855C29.6542 44.2522 30.4568 43.9122 31.3812 43.7655C32.3056 43.6187 33.1741 43.6935 33.9866 43.9898C34.7972 44.2743 35.476 44.7619 36.0231 45.4527C36.582 46.1416 36.9414 46.9897 37.1013 47.9971C37.2612 49.0045 37.177 49.9291 36.849 50.771C36.5308 51.5991 36.0254 52.2807 35.3328 52.8159C34.6401 53.3511 33.8316 53.6921 32.9071 53.8388ZM32.6814 52.4166C33.2621 52.3244 33.7857 52.1016 34.252 51.7481C34.7184 51.3947 35.0624 50.9209 35.284 50.3268C35.5174 49.7308 35.5721 49.0418 35.448 48.2595C35.3238 47.4773 35.0644 46.8381 34.6697 46.3418C34.2751 45.8456 33.8081 45.5066 33.269 45.3248C32.728 45.1312 32.1671 45.0805 31.5863 45.1727C30.9938 45.2668 30.4702 45.4896 30.0157 45.8412C29.5712 46.179 29.244 46.6441 29.0343 47.2363C28.8245 47.8285 28.7817 48.5157 28.9058 49.2979C29.0319 50.092 29.2804 50.739 29.6513 51.239C30.0342 51.7372 30.4902 52.084 31.0193 52.2794C31.5466 52.4631 32.1007 52.5088 32.6814 52.4166ZM38.5464 39.293L40.6344 52.4483L39.0166 52.7051L36.9286 39.5498L38.5464 39.293ZM41.9337 38.7554L44.0216 51.9107L42.4039 52.1675L40.3159 39.0121L41.9337 38.7554ZM48.1599 46.2237C48.0018 45.2282 48.0651 44.3251 48.3495 43.5145C48.6321 42.692 49.0901 42.0179 49.7235 41.4921C50.3687 40.9644 51.1299 40.631 52.0069 40.4918C52.7654 40.3714 53.4988 40.4373 54.2071 40.6894C54.9135 40.9296 55.4837 41.3069 55.9176 41.8212L55.0994 36.6658L56.7349 36.4062L58.8229 49.5615L57.1874 49.8211L56.8967 47.99C56.6689 48.6215 56.271 49.1768 55.7031 49.6557C55.1333 50.1228 54.4276 50.4231 53.5862 50.5567C52.721 50.694 51.899 50.6058 51.1202 50.292C50.3532 49.9763 49.7071 49.4653 49.1819 48.7589C48.6567 48.0525 48.316 47.2074 48.1599 46.2237ZM56.4114 44.9323C56.2948 44.1975 56.0451 43.581 55.6623 43.0828C55.2794 42.5847 54.8106 42.2338 54.2559 42.0303C53.7111 41.813 53.1365 41.7523 52.532 41.8483C51.9276 41.9442 51.3991 42.1739 50.9464 42.5373C50.4938 42.9008 50.1626 43.3786 49.9529 43.9708C49.7431 44.563 49.6965 45.2265 49.8132 45.9613C49.9317 46.708 50.1833 47.3363 50.568 47.8463C50.9508 48.3444 51.4146 48.7022 51.9594 48.9194C52.5023 49.1249 53.076 49.1796 53.6804 49.0837C54.2849 48.9878 54.8134 48.7581 55.266 48.3946C55.7286 48.0175 56.0648 47.5328 56.2745 46.9406C56.4824 46.3365 56.5281 45.6671 56.4114 44.9323ZM64.8433 48.77C63.9307 48.9148 63.0682 48.8391 62.2557 48.5428C61.4551 48.2446 60.7812 47.7501 60.2342 47.0593C59.6971 46.3548 59.3486 45.4989 59.1887 44.4915C59.0307 43.4959 59.1048 42.5851 59.4111 41.7588C59.7274 40.9189 60.2268 40.2382 60.9095 39.7167C61.5903 39.1834 62.393 38.8434 63.3174 38.6966C64.2418 38.5499 65.1103 38.6247 65.9228 38.921C66.7334 39.2055 67.4122 39.6931 67.9593 40.3839C68.5182 41.0728 68.8776 41.9209 69.0374 42.9283C69.1973 43.9357 69.1132 44.8603 68.7851 45.7022C68.467 46.5303 67.9616 47.2119 67.269 47.7471C66.5763 48.2823 65.7677 48.6233 64.8433 48.77ZM64.6176 47.3478C65.1983 47.2556 65.7219 47.0328 66.1882 46.6793C66.6546 46.3258 66.9986 45.8521 67.2202 45.258C67.4536 44.662 67.5083 43.9729 67.3841 43.1907C67.26 42.4085 67.0006 41.7693 66.6059 41.273C66.2112 40.7767 65.7443 40.4377 65.2052 40.256C64.6641 40.0624 64.1033 40.0117 63.5225 40.1039C62.9299 40.1979 62.4064 40.4208 61.9519 40.7724C61.5074 41.1102 61.1802 41.5752 60.9704 42.1674C60.7607 42.7596 60.7179 43.4469 60.842 44.2291C60.9681 45.0231 61.2166 45.6702 61.5875 46.1702C61.9703 46.6683 62.4263 47.0152 62.9555 47.2106C63.4828 47.3942 64.0368 47.44 64.6176 47.3478ZM82.3841 35.8345L80.8904 46.059L79.2193 46.3242L75.6453 38.9635L74.5261 47.0691L72.855 47.3344L68.251 38.0776L69.9043 37.8152L73.4422 45.6373L74.562 37.076L76.2153 36.8135L79.8805 44.6337L80.7841 36.0884L82.3841 35.8345ZM87.7204 34.8052C88.9055 34.6171 89.9229 34.8262 90.7724 35.4326C91.6201 36.027 92.1512 36.9998 92.3656 38.3509L93.277 44.093L91.677 44.347L90.8023 38.836C90.6481 37.8641 90.2875 37.162 89.7207 36.7295C89.1521 36.2851 88.447 36.1297 87.6055 36.2633C86.7522 36.3987 86.113 36.7735 85.6881 37.3877C85.2749 38.0001 85.1493 38.8159 85.311 39.8351L86.166 45.2217L84.5482 45.4784L83.002 35.7364L84.6198 35.4796L84.8398 36.8663C85.0808 36.3177 85.4523 35.8639 85.9542 35.5047C86.468 35.1437 87.0567 34.9106 87.7204 34.8052Z" fill="#2D3849"/>
</svg>
