<svg width="86" height="82" viewBox="0 0 86 82" fill="none" xmlns="http://www.w3.org/2000/svg">
<path d="M20.3397 61.9207C31.5726 66.3659 45.1168 58.7547 50.5914 44.9205C56.066 31.0863 51.398 16.2679 40.1651 11.8227C28.9322 7.37748 15.3881 14.9888 9.91349 28.8229C4.43886 42.6571 9.10686 57.4755 20.3397 61.9207Z" fill="#FFACD0"/>
<path d="M21.8839 36.0477C22.6025 36.294 23.3072 36.5698 24.0004 36.8771C24.3266 37.0235 24.6489 37.175 24.9699 37.3336C25.1182 37.4078 25.2666 37.482 25.4136 37.5633C25.4734 37.5957 25.6171 37.6385 25.657 37.6921L25.4727 37.5912C25.5376 37.6274 25.5999 37.6617 25.6647 37.6978C26.8447 38.3704 27.965 39.1503 28.9961 40.0394C29.245 40.2522 29.4857 40.4707 29.7225 40.6944C29.7701 40.7377 29.8204 40.7989 29.8718 40.8371C29.5774 40.6265 29.6974 40.6637 29.7836 40.7517C29.9265 40.8977 30.0714 41.0411 30.2124 41.1897C30.6547 41.6577 31.0773 42.1469 31.4769 42.651C31.8765 43.1551 32.2544 43.683 32.6068 44.2238C32.701 44.3655 32.7933 44.5098 32.8811 44.6548C32.956 44.7742 33.0411 45.0089 33.1472 45.0916C33.124 45.0745 32.9534 44.7563 33.0923 44.999C33.1265 45.0604 33.1601 45.1172 33.1943 45.1785C33.2964 45.358 33.394 45.5382 33.4923 45.7228C34.1194 46.8984 34.6487 48.125 35.1 49.3814C35.3377 50.0445 35.5472 50.7186 35.7478 51.3941C35.8155 51.6199 35.6434 51.0135 35.7419 51.3698C35.7615 51.4401 35.781 51.5105 35.7987 51.5834C35.8457 51.7619 35.8926 51.9404 35.9396 52.1189C36.0298 52.481 36.1174 52.8412 36.1986 53.2046C36.86 56.1607 37.1924 59.1837 37.3347 62.2051C37.3561 62.6598 37.373 63.1151 37.3874 63.5686C37.3929 63.7761 37.3984 63.9836 37.402 64.1937C37.3939 63.8446 37.4004 64.1367 37.4022 64.2257C37.4054 64.3717 37.4068 64.5203 37.4056 64.667C37.4138 65.5586 37.4085 66.4522 37.3892 67.3433C37.3505 69.2651 37.2516 71.1821 37.1181 73.0974C37.0625 73.8977 37.5451 74.623 38.3314 74.8158C39.1176 75.0086 39.8971 74.598 40.2009 73.8503C40.9865 71.9325 41.8304 70.0382 42.7578 68.1818C42.9754 67.749 43.1956 67.3182 43.4183 66.8892C43.5205 66.6978 43.6208 66.509 43.723 66.3176C43.7839 66.2033 43.8455 66.0935 43.9065 65.9792C43.9458 65.9047 43.9897 65.8295 44.029 65.755C43.9331 65.9271 43.9154 65.9618 43.975 65.8546C44.4196 65.0677 44.8718 64.2866 45.3492 63.5201C46.2313 62.1009 47.1764 60.7204 48.2012 59.399C48.6856 58.7734 49.188 58.1612 49.711 57.5642C49.9339 57.3069 50.162 57.0534 50.3933 56.8063C50.508 56.684 50.6202 56.5599 50.7374 56.4395C50.8069 56.3674 50.8764 56.2953 50.9458 56.2233C51.1523 56.0096 50.6628 56.5078 50.9917 56.1776C51.9683 55.1953 53.004 54.273 54.099 53.4266C54.6191 53.027 55.1508 52.6439 55.6948 52.2819C55.9387 52.1199 56.1833 51.9624 56.4311 51.8113C56.5045 51.7661 56.5779 51.7209 56.6514 51.6757C56.6955 51.6486 56.9484 51.5013 56.6955 51.6486C56.4425 51.7959 56.6955 51.6486 56.7376 51.6241C56.8366 51.566 56.9337 51.5104 57.0353 51.4542C58.1072 50.8539 59.2179 50.3302 60.3617 49.891C60.9205 49.6756 61.487 49.482 62.0633 49.3075C62.1925 49.2678 62.3224 49.2326 62.4516 49.1929C61.9329 49.3543 62.3991 49.2098 62.5264 49.1727C62.8392 49.0898 63.1527 49.0114 63.4694 48.9394C64.7587 48.648 66.0696 48.4565 67.3867 48.3534C67.7242 48.3287 68.0642 48.3059 68.401 48.2927C68.5784 48.2848 68.7539 48.2794 68.9294 48.2741C68.9819 48.2732 69.0389 48.2717 69.0914 48.2708C68.5586 48.29 68.9749 48.272 69.0914 48.2708C69.7774 48.2655 70.4667 48.2826 71.1497 48.319C71.9525 48.3606 72.6729 47.9061 72.8682 47.1057C73.0635 46.3054 72.6454 45.5522 71.9027 45.2362C71.4361 45.0374 70.9738 44.8218 70.5211 44.5935C70.3009 44.4818 70.0819 44.3631 69.861 44.2469C69.6998 44.1632 70.0331 44.3428 70.0228 44.3352C69.9714 44.297 69.9078 44.2698 69.8507 44.2393C69.7383 44.1758 69.6252 44.1078 69.5128 44.0443C68.6847 43.5532 67.8871 43.005 67.1284 42.4097C66.7683 42.1265 66.4152 41.8284 66.0723 41.522C65.9012 41.371 65.7364 41.2168 65.5736 41.06C65.5414 41.0282 65.5092 40.9963 65.4751 40.967C65.3214 40.8249 65.7333 41.2264 65.5878 41.0785C65.5041 40.9925 65.4185 40.909 65.3348 40.8229C64.7039 40.179 64.1107 39.4953 63.5608 38.7799C63.0109 38.0645 62.5348 37.368 62.0815 36.6246C62.0214 36.5282 61.9652 36.4266 61.9026 36.3283C61.8903 36.3072 62.0899 36.6509 62.0034 36.4988C61.9756 36.4503 61.9452 36.3998 61.9175 36.3513C61.8096 36.1635 61.7062 35.975 61.6028 35.7866C61.3979 35.4071 61.2019 35.0263 61.0187 34.639C60.2759 33.0983 59.6742 31.4909 59.1935 29.8496C59.1662 29.7575 59.1407 29.6628 59.1108 29.5688C59.2605 30.0549 59.1434 29.6808 59.1095 29.5599C59.0527 29.3462 58.9934 29.1306 58.9411 28.9163C58.8386 28.5171 58.7443 28.1121 58.6553 27.7109C58.481 26.9194 58.333 26.1194 58.2055 25.3187C57.9603 23.7846 57.7978 22.2359 57.7037 20.6862C57.6605 19.9761 57.6353 19.2633 57.619 18.5491C57.6166 18.4556 57.6243 18.9719 57.6201 18.6497C57.6184 18.5607 57.6186 18.4691 57.6169 18.38C57.6135 18.202 57.6145 18.0233 57.6136 17.8471C57.614 17.5243 57.6143 17.2014 57.6217 16.8799C57.6406 15.753 57.6921 14.6306 57.7776 13.5054C57.8666 12.327 58.0358 11.1642 58.1787 9.99385C58.1786 9.97784 58.183 9.96116 58.1874 9.94449C58.3258 9.16171 57.6989 8.40508 56.9742 8.22606C56.2495 8.04705 55.3463 8.42553 55.1047 9.19152C54.8221 10.0826 54.4586 10.9536 54.0843 11.8125C53.6725 12.7593 53.2261 13.6883 52.7502 14.6034C52.6036 14.8815 52.4589 15.157 52.3071 15.4313C52.269 15.4987 52.13 15.7505 52.2925 15.4563C52.455 15.1622 52.3141 15.4165 52.276 15.4839C52.189 15.6387 52.102 15.7935 52.0124 15.9464C51.672 16.5393 51.3187 17.1226 50.9506 17.699C50.1351 18.9802 49.2521 20.2234 48.306 21.4117C47.7999 22.0451 47.2757 22.6651 46.7284 23.268C46.4468 23.5775 46.1594 23.8787 45.8727 24.1843C45.7337 24.3285 46.1436 23.9108 46.002 24.053C45.9644 24.0929 45.9243 24.1309 45.8867 24.1708C45.8191 24.2403 45.7509 24.3053 45.6833 24.3748C45.5278 24.5306 45.3697 24.6845 45.209 24.8364C43.9218 26.0706 42.5399 27.2067 41.0729 28.2156C40.6969 28.475 40.3106 28.7267 39.9229 28.9694C39.8201 29.0327 39.7192 29.0934 39.6164 29.1566C39.5532 29.1935 39.2504 29.3756 39.4861 29.2354C39.7409 29.0856 39.3615 29.3065 39.313 29.3343C39.2076 29.3956 39.1041 29.4544 38.9981 29.5113C38.1497 29.9824 37.2813 30.4107 36.3903 30.7942C35.4992 31.1778 34.5536 31.5328 33.6083 31.8282C33.3742 31.9017 33.1395 31.9708 32.9047 32.0398C32.7052 32.0991 33.2157 31.9595 33.0122 32.0079C32.9636 32.0197 32.9175 32.0334 32.867 32.0477C32.7218 32.0875 32.5785 32.1247 32.4326 32.16C31.9272 32.2874 31.4153 32.402 30.9015 32.5031C29.8155 32.714 28.7209 32.8667 27.6177 32.9611C27.0523 33.0081 26.4824 33.0397 25.915 33.0572C25.8445 33.0607 25.7587 33.0528 25.6914 33.0627C25.7318 33.0568 26.0501 33.0578 25.7645 33.0611C25.6319 33.0624 25.4993 33.0637 25.3667 33.065C25.0599 33.0645 24.755 33.0616 24.4494 33.0541C23.8401 33.0366 23.2334 33.0049 22.6247 32.9599C21.791 32.8954 20.9157 33.4941 20.8585 34.377C20.8014 35.26 21.3799 36.0764 22.2757 36.1431C26.9803 36.5007 31.7107 35.9639 36.152 34.3389C39.8023 33.0003 43.189 30.9154 46.1037 28.3486C48.6741 26.0846 50.9333 23.4659 52.8513 20.6298C54.3369 18.43 55.6444 16.094 56.7478 13.6782C57.232 12.6177 57.7474 11.5205 58.0711 10.3966C58.0755 10.38 58.0825 10.3652 58.0869 10.3485L55.0016 9.59365C54.8295 10.5668 54.7313 11.5589 54.6438 12.547C54.4186 15.0962 54.3786 17.6592 54.4865 20.2164C54.6226 23.4287 55.047 26.6396 55.8667 29.7531C56.8143 33.3445 58.2358 36.7811 60.3658 39.8383C62.6674 43.1425 65.7779 45.7709 69.3629 47.5828C69.8156 47.8112 70.2778 48.0267 70.7445 48.2255L71.4993 45.1402C66.357 44.8726 61.1624 45.7069 56.5557 48.0866C51.0916 50.9067 46.7767 55.4615 43.44 60.5631C40.9496 64.3743 38.9295 68.4868 37.2071 72.6927L40.2925 73.4476C40.7567 66.8477 40.8453 60.0768 39.5325 53.5656C38.3608 47.7616 35.9785 42.2396 31.6219 38.1197C29.1895 35.8192 26.188 34.1454 23.0306 33.0578C22.2395 32.7856 21.2419 33.1299 20.9591 33.973C20.6901 34.7705 21.0254 35.7534 21.8743 36.0445L21.8839 36.0477Z" fill="#2D3849"/>
</svg>
